<svg class="main-svg" xmlns="http://www.w3.org/2000/svg" xmlns:xlink="http://www.w3.org/1999/xlink" width="1400" height="1100" style="" viewBox="0 0 700 550"><rect x="0" y="0" width="700" height="550" style="fill: rgb(255, 255, 255); fill-opacity: 1;"/><defs id="defs-a0af95"><g class="clips"><clipPath id="clipa0af95xyplot" class="plotclip"><rect width="321" height="370"/></clipPath><clipPath class="axesclip" id="clipa0af95x"><rect x="80" y="0" width="321" height="550"/></clipPath><clipPath class="axesclip" id="clipa0af95y"><rect x="0" y="100" width="700" height="370"/></clipPath><clipPath class="axesclip" id="clipa0af95xy"><rect x="80" y="100" width="321" height="370"/></clipPath></g><g class="gradients"/><g class="patterns"/></defs><g class="bglayer"><rect class="bg" x="80" y="100" width="321" height="370" style="fill: rgb(229, 236, 246); fill-opacity: 1; stroke-width: 0;"/></g><g class="layer-below"><g class="imagelayer"/><g class="shapelayer"/></g><g class="cartesianlayer"><g class="subplot xy"><g class="layer-subplot"><g class="shapelayer"/><g class="imagelayer"/></g><g class="minor-gridlayer"><g class="x"/><g class="y"/></g><g class="gridlayer"><g class="x"><path class="xgrid crisp" transform="translate(98.88,0)" d="M0,100v370" style="stroke: rgb(255, 255, 255); stroke-opacity: 1; stroke-width: 1px;"/><path class="xgrid crisp" transform="translate(193.29000000000002,0)" d="M0,100v370" style="stroke: rgb(255, 255, 255); stroke-opacity: 1; stroke-width: 1px;"/><path class="xgrid crisp" transform="translate(287.71000000000004,0)" d="M0,100v370" style="stroke: rgb(255, 255, 255); stroke-opacity: 1; stroke-width: 1px;"/><path class="xgrid crisp" transform="translate(382.12,0)" d="M0,100v370" style="stroke: rgb(255, 255, 255); stroke-opacity: 1; stroke-width: 1px;"/></g><g class="y"><path class="ygrid crisp" transform="translate(0,430.42)" d="M80,0h321" style="stroke: rgb(255, 255, 255); stroke-opacity: 1; stroke-width: 1px;"/><path class="ygrid crisp" transform="translate(0,390.83)" d="M80,0h321" style="stroke: rgb(255, 255, 255); stroke-opacity: 1; stroke-width: 1px;"/><path class="ygrid crisp" transform="translate(0,351.25)" d="M80,0h321" style="stroke: rgb(255, 255, 255); stroke-opacity: 1; stroke-width: 1px;"/><path class="ygrid crisp" transform="translate(0,311.66999999999996)" d="M80,0h321" style="stroke: rgb(255, 255, 255); stroke-opacity: 1; stroke-width: 1px;"/><path class="ygrid crisp" transform="translate(0,272.08000000000004)" d="M80,0h321" style="stroke: rgb(255, 255, 255); stroke-opacity: 1; stroke-width: 1px;"/><path class="ygrid crisp" transform="translate(0,232.5)" d="M80,0h321" style="stroke: rgb(255, 255, 255); stroke-opacity: 1; stroke-width: 1px;"/><path class="ygrid crisp" transform="translate(0,192.92000000000002)" d="M80,0h321" style="stroke: rgb(255, 255, 255); stroke-opacity: 1; stroke-width: 1px;"/><path class="ygrid crisp" transform="translate(0,153.32999999999998)" d="M80,0h321" style="stroke: rgb(255, 255, 255); stroke-opacity: 1; stroke-width: 1px;"/><path class="ygrid crisp" transform="translate(0,113.75)" d="M80,0h321" style="stroke: rgb(255, 255, 255); stroke-opacity: 1; stroke-width: 1px;"/></g></g><g class="zerolinelayer"><path class="yzl zl crisp" transform="translate(0,470)" d="M80,0h321" style="stroke: rgb(255, 255, 255); stroke-opacity: 1; stroke-width: 2px;"/></g><g class="layer-between"><g class="shapelayer"/><g class="imagelayer"/></g><path class="xlines-below"/><path class="ylines-below"/><g class="overlines-below"/><g class="xaxislayer-below"/><g class="yaxislayer-below"/><g class="overaxes-below"/><g class="overplot"><g class="xy" transform="translate(80,100)" clip-path="url(#clipa0af95xyplot)"><g class="scatterlayer mlayer"><g class="trace scatter traceb4f1a3" style="stroke-miterlimit: 2;"><g class="fills"><g><path class="js-fill" d="M321,370L0,370L0,355.1L18.88,354.69L37.76,349.52L56.65,363.13L75.53,345.42L94.41,351.79L113.29,354.33L132.18,357.14L151.06,336.16L169.94,333.78L188.82,338.33L207.71,316.68L226.59,308.68L245.47,312.7L264.35,270.24L283.24,255.52L302.12,242.98L321,323.61" style="fill: rgb(99, 110, 250); fill-opacity: 0.5; stroke-width: 0;"/></g><g><path class="js-fill" d="M0,340.19L18.88,339.38L37.76,329.03L56.65,356.26L75.53,320.84L94.41,335.17L113.29,338.65L132.18,344.27L151.06,302.31L169.94,297.56L188.82,306.67L207.71,263.36L226.59,247.36L245.47,255.39L264.35,170.49L283.24,141.04L302.12,115.97L321,277.22L321,323.61L302.12,242.98L283.24,255.52L264.35,270.24L245.47,312.7L226.59,308.68L207.71,316.68L188.82,338.33L169.94,333.78L151.06,336.16L132.18,357.14L113.29,354.33L94.41,351.79L75.53,345.42L56.65,363.13L37.76,349.52L18.88,354.69L0,355.1Z" style="fill: rgb(239, 85, 59); fill-opacity: 0.5; stroke-width: 0;"/></g></g><g class="errorbars"/><g class="lines"><path class="js-line" d="M0,355.1L18.88,354.69L37.76,349.52L56.65,363.13L75.53,345.42L94.41,351.79L113.29,354.33L132.18,357.14L151.06,336.16L169.94,333.78L188.82,338.33L207.71,316.68L226.59,308.68L245.47,312.7L264.35,270.24L283.24,255.52L302.12,242.98L321,323.61" style="vector-effect: none; fill: none; stroke: rgb(99, 110, 250); stroke-opacity: 1; stroke-width: 2px; opacity: 1;"/></g><g class="points"/><g class="text"/></g><g class="trace scatter trace0a4962" style="stroke-miterlimit: 2;"><g class="fills"><g><path class="js-fill" d="M0,340.19L18.88,338.13L37.76,329.03L56.65,355.13L75.53,320.84L94.41,335.17L113.29,338.65L132.18,344.27L151.06,302.31L169.94,297.56L188.82,306.67L207.71,263.36L226.59,247.36L245.47,255.39L264.35,170.49L283.24,141.04L302.12,115.97L321,277.22L321,277.22L302.12,115.97L283.24,141.04L264.35,170.49L245.47,255.39L226.59,247.36L207.71,263.36L188.82,306.67L169.94,297.56L151.06,302.31L132.18,344.27L113.29,338.65L94.41,335.17L75.53,320.84L56.65,356.26L37.76,329.03L18.88,339.38L0,340.19Z" style="fill: rgb(0, 204, 150); fill-opacity: 0.5; stroke-width: 0;"/></g></g><g class="errorbars"/><g class="lines"><path class="js-line" d="M0,340.19L18.88,339.38L37.76,329.03L56.65,356.26L75.53,320.84L94.41,335.17L113.29,338.65L132.18,344.27L151.06,302.31L169.94,297.56L188.82,306.67L207.71,263.36L226.59,247.36L245.47,255.39L264.35,170.49L283.24,141.04L302.12,115.97L321,277.22" style="vector-effect: none; fill: none; stroke: rgb(239, 85, 59); stroke-opacity: 1; stroke-width: 2px; opacity: 1;"/></g><g class="points"/><g class="text"/></g><g class="trace scatter trace3b0ff3" style="stroke-miterlimit: 2;"><g class="fills"><g><path class="js-fill" d="M0,340.19L18.88,336.87L37.76,329.03L56.65,354L75.53,320.84L94.41,335.17L113.29,331.72L132.18,334.18L151.06,302.31L169.94,297.56L188.82,306.67L207.71,261.19L226.59,231.16L245.47,230.55L264.35,142.24L283.24,115.35L302.12,94.44L321,272.13L321,277.22L302.12,115.97L283.24,141.04L264.35,170.49L245.47,255.39L226.59,247.36L207.71,263.36L188.82,306.67L169.94,297.56L151.06,302.31L132.18,344.27L113.29,338.65L94.41,335.17L75.53,320.84L56.65,355.13L37.76,329.03L18.88,338.13L0,340.19Z" style="fill: rgb(171, 99, 250); fill-opacity: 0.5; stroke-width: 0;"/></g></g><g class="errorbars"/><g class="lines"><path class="js-line" d="M0,340.19L18.88,338.13L37.76,329.03L56.65,355.13L75.53,320.84L94.41,335.17L113.29,338.65L132.18,344.27L151.06,302.31L169.94,297.56L188.82,306.67L207.71,263.36L226.59,247.36L245.47,255.39L264.35,170.49L283.24,141.04L302.12,115.97L321,277.22" style="vector-effect: none; fill: none; stroke: rgb(0, 204, 150); stroke-opacity: 1; stroke-width: 2px; opacity: 1;"/></g><g class="points"/><g class="text"/></g><g class="trace scatter tracea47eb6" style="stroke-miterlimit: 2;"><g class="fills"><g><path class="js-fill" d="M0,340.19L18.88,336.87L37.76,329.03L56.65,354L75.53,320.84L94.41,335.17L113.29,324.8L132.18,324.08L151.06,302.31L169.94,297.56L188.82,306.67L207.71,259.01L226.59,221.96L245.47,222.2L264.35,130.88L283.24,100.63L302.12,81.16L321,269.02L321,272.13L302.12,94.44L283.24,115.35L264.35,142.24L245.47,230.55L226.59,231.16L207.71,261.19L188.82,306.67L169.94,297.56L151.06,302.31L132.18,334.18L113.29,331.72L94.41,335.17L75.53,320.84L56.65,354L37.76,329.03L18.88,336.87L0,340.19Z" style="fill: rgb(255, 161, 90); fill-opacity: 0.5; stroke-width: 0;"/></g></g><g class="errorbars"/><g class="lines"><path class="js-line" d="M0,340.19L18.88,336.87L37.76,329.03L56.65,354L75.53,320.84L94.41,335.17L113.29,331.72L132.18,334.18L151.06,302.31L169.94,297.56L188.82,306.67L207.71,261.19L226.59,231.16L245.47,230.55L264.35,142.24L283.24,115.35L302.12,94.44L321,272.13" style="vector-effect: none; fill: none; stroke: rgb(171, 99, 250); stroke-opacity: 1; stroke-width: 2px; opacity: 1;"/></g><g class="points"/><g class="text"/></g><g class="trace scatter tracea3dd28" style="stroke-miterlimit: 2;"><g class="fills"><g><path class="js-fill" d="M0,340.19L18.88,336.87L37.76,329.03L56.65,354L75.53,320.84L94.41,335.17L113.29,324.8L132.18,324.08L151.06,302.31L169.94,297.56L188.82,306.67L207.71,259.01L226.59,221.96L245.47,218.4L264.35,119.52L283.24,78.21L302.12,59.64L321,263.94L321,269.02L302.12,81.16L283.24,100.63L264.35,130.88L245.47,222.2L226.59,221.96L207.71,259.01L188.82,306.67L169.94,297.56L151.06,302.31L132.18,324.08L113.29,324.8L94.41,335.17L75.53,320.84L56.65,354L37.76,329.03L18.88,336.87L0,340.19Z" style="fill: rgb(25, 211, 243); fill-opacity: 0.5; stroke-width: 0;"/></g></g><g class="errorbars"/><g class="lines"><path class="js-line" d="M0,340.19L18.88,336.87L37.76,329.03L56.65,354L75.53,320.84L94.41,335.17L113.29,324.8L132.18,324.08L151.06,302.31L169.94,297.56L188.82,306.67L207.71,259.01L226.59,221.96L245.47,222.2L264.35,130.88L283.24,100.63L302.12,81.16L321,269.02" style="vector-effect: none; fill: none; stroke: rgb(255, 161, 90); stroke-opacity: 1; stroke-width: 2px; opacity: 1;"/></g><g class="points"/><g class="text"/></g><g class="trace scatter trace01a58f" style="stroke-miterlimit: 2;"><g class="fills"><g><path class="js-fill" d="M0,340.19L18.88,336.87L37.76,329.03L56.65,354L75.53,320.84L94.41,335.17L113.29,324.8L132.18,324.08L151.06,302.31L169.94,297.56L188.82,306.67L207.71,259.01L226.59,221.96L245.47,218.4L264.35,119.52L283.24,67.25L302.12,51.39L321,261.96L321,263.94L302.12,59.64L283.24,78.21L264.35,119.52L245.47,218.4L226.59,221.96L207.71,259.01L188.82,306.67L169.94,297.56L151.06,302.31L132.18,324.08L113.29,324.8L94.41,335.17L75.53,320.84L56.65,354L37.76,329.03L18.88,336.87L0,340.19Z" style="fill: rgb(255, 102, 146); fill-opacity: 0.5; stroke-width: 0;"/></g></g><g class="errorbars"/><g class="lines"><path class="js-line" d="M0,340.19L18.88,336.87L37.76,329.03L56.65,354L75.53,320.84L94.41,335.17L113.29,324.8L132.18,324.08L151.06,302.31L169.94,297.56L188.82,306.67L207.71,259.01L226.59,221.96L245.47,218.4L264.35,119.52L283.24,78.21L302.12,59.64L321,263.94" style="vector-effect: none; fill: none; stroke: rgb(25, 211, 243); stroke-opacity: 1; stroke-width: 2px; opacity: 1;"/></g><g class="points"/><g class="text"/></g><g class="trace scatter tracee2df40" style="stroke-miterlimit: 2;"><g class="fills"><g><path class="js-fill" d="M0,340.19L18.88,336.87L37.76,329.03L56.65,354L75.53,320.84L94.41,335.17L113.29,324.8L132.18,324.08L151.06,302.31L169.94,297.56L188.82,306.67L207.71,259.01L226.59,221.96L245.47,218.4L264.35,119.52L283.24,63.82L302.12,29.87L321,256.87L321,261.96L302.12,51.39L283.24,67.25L264.35,119.52L245.47,218.4L226.59,221.96L207.71,259.01L188.82,306.67L169.94,297.56L151.06,302.31L132.18,324.08L113.29,324.8L94.41,335.17L75.53,320.84L56.65,354L37.76,329.03L18.88,336.87L0,340.19Z" style="fill: rgb(182, 232, 128); fill-opacity: 0.5; stroke-width: 0;"/></g></g><g class="errorbars"/><g class="lines"><path class="js-line" d="M0,340.19L18.88,336.87L37.76,329.03L56.65,354L75.53,320.84L94.41,335.17L113.29,324.8L132.18,324.08L151.06,302.31L169.94,297.56L188.82,306.67L207.71,259.01L226.59,221.96L245.47,218.4L264.35,119.52L283.24,67.25L302.12,51.39L321,261.96" style="vector-effect: none; fill: none; stroke: rgb(255, 102, 146); stroke-opacity: 1; stroke-width: 2px; opacity: 1;"/></g><g class="points"/><g class="text"/></g><g class="trace scatter trace997fde" style="stroke-miterlimit: 2;"><g class="fills"><g><path class="js-fill" d="M0,340.19L18.88,336.87L37.76,329.03L56.65,354L75.53,320.84L94.41,335.17L113.29,324.8L132.18,324.08L151.06,302.31L169.94,297.56L188.82,306.67L207.71,259.01L226.59,221.96L245.47,218.4L264.35,119.52L283.24,62.7L302.12,24.44L321,253.76L321,256.87L302.12,29.87L283.24,63.82L264.35,119.52L245.47,218.4L226.59,221.96L207.71,259.01L188.82,306.67L169.94,297.56L151.06,302.31L132.18,324.08L113.29,324.8L94.41,335.17L75.53,320.84L56.65,354L37.76,329.03L18.88,336.87L0,340.19Z" style="fill: rgb(255, 151, 255); fill-opacity: 0.5; stroke-width: 0;"/></g></g><g class="errorbars"/><g class="lines"><path class="js-line" d="M0,340.19L18.88,336.87L37.76,329.03L56.65,354L75.53,320.84L94.41,335.17L113.29,324.8L132.18,324.08L151.06,302.31L169.94,297.56L188.82,306.67L207.71,259.01L226.59,221.96L245.47,218.4L264.35,119.52L283.24,63.82L302.12,29.87L321,256.87" style="vector-effect: none; fill: none; stroke: rgb(182, 232, 128); stroke-opacity: 1; stroke-width: 2px; opacity: 1;"/></g><g class="points"/><g class="text"/></g><g class="trace scatter tracee812d5" style="stroke-miterlimit: 2;"><g class="fills"><g><path class="js-fill" d="M0,340.19L18.88,336.87L37.76,329.03L56.65,354L75.53,320.84L94.41,335.17L113.29,324.8L132.18,324.08L151.06,302.31L169.94,297.56L188.82,306.67L207.71,259.01L226.59,221.96L245.47,218.4L264.35,119.52L283.24,62.7L302.12,18.5L321,251.78L321,253.76L302.12,24.44L283.24,62.7L264.35,119.52L245.47,218.4L226.59,221.96L207.71,259.01L188.82,306.67L169.94,297.56L151.06,302.31L132.18,324.08L113.29,324.8L94.41,335.17L75.53,320.84L56.65,354L37.76,329.03L18.88,336.87L0,340.19Z" style="fill: rgb(254, 203, 82); fill-opacity: 0.5; stroke-width: 0;"/></g></g><g class="errorbars"/><g class="lines"><path class="js-line" d="M0,340.19L18.88,336.87L37.76,329.03L56.65,354L75.53,320.84L94.41,335.17L113.29,324.8L132.18,324.08L151.06,302.31L169.94,297.56L188.82,306.67L207.71,259.01L226.59,221.96L245.47,218.4L264.35,119.52L283.24,62.7L302.12,24.44L321,253.76" style="vector-effect: none; fill: none; stroke: rgb(255, 151, 255); stroke-opacity: 1; stroke-width: 2px; opacity: 1;"/></g><g class="points"/><g class="text"/></g><g class="trace scatter trace0b1da0" style="stroke-miterlimit: 2;"><g class="fills"/><g class="errorbars"/><g class="lines"><path class="js-line" d="M0,340.19L18.88,336.87L37.76,329.03L56.65,354L75.53,320.84L94.41,335.17L113.29,324.8L132.18,324.08L151.06,302.31L169.94,297.56L188.82,306.67L207.71,259.01L226.59,221.96L245.47,218.4L264.35,119.52L283.24,62.7L302.12,18.5L321,251.78" style="vector-effect: none; fill: none; stroke: rgb(254, 203, 82); stroke-opacity: 1; stroke-width: 2px; opacity: 1;"/></g><g class="points"/><g class="text"/></g></g></g></g><g class="zerolinelayer-above"/><path class="xlines-above crisp" d="M0,0" style="fill: none;"/><path class="ylines-above crisp" d="M0,0" style="fill: none;"/><g class="overlines-above"/><g class="xaxislayer-above"><g class="xtick"><text text-anchor="middle" x="0" y="483" transform="translate(98.88,0)" style="font-family: 'Open Sans', verdana, arial, sans-serif; font-size: 12px; fill: rgb(42, 63, 95); fill-opacity: 1; white-space: pre;">2010</text></g><g class="xtick"><text text-anchor="middle" x="0" y="483" style="font-family: 'Open Sans', verdana, arial, sans-serif; font-size: 12px; fill: rgb(42, 63, 95); fill-opacity: 1; white-space: pre;" transform="translate(193.29000000000002,0)">2015</text></g><g class="xtick"><text text-anchor="middle" x="0" y="483" style="font-family: 'Open Sans', verdana, arial, sans-serif; font-size: 12px; fill: rgb(42, 63, 95); fill-opacity: 1; white-space: pre;" transform="translate(287.71000000000004,0)">2020</text></g><g class="xtick"><text text-anchor="middle" x="0" y="483" style="font-family: 'Open Sans', verdana, arial, sans-serif; font-size: 12px; fill: rgb(42, 63, 95); fill-opacity: 1; white-space: pre;" transform="translate(382.12,0)">2025</text></g></g><g class="yaxislayer-above"><g class="ytick"><text text-anchor="end" x="79" y="4.199999999999999" transform="translate(0,470)" style="font-family: 'Open Sans', verdana, arial, sans-serif; font-size: 12px; fill: rgb(42, 63, 95); fill-opacity: 1; white-space: pre;">0</text></g><g class="ytick"><text text-anchor="end" x="79" y="4.199999999999999" style="font-family: 'Open Sans', verdana, arial, sans-serif; font-size: 12px; fill: rgb(42, 63, 95); fill-opacity: 1; white-space: pre;" transform="translate(0,430.42)">1M</text></g><g class="ytick"><text text-anchor="end" x="79" y="4.199999999999999" style="font-family: 'Open Sans', verdana, arial, sans-serif; font-size: 12px; fill: rgb(42, 63, 95); fill-opacity: 1; white-space: pre;" transform="translate(0,390.83)">2M</text></g><g class="ytick"><text text-anchor="end" x="79" y="4.199999999999999" style="font-family: 'Open Sans', verdana, arial, sans-serif; font-size: 12px; fill: rgb(42, 63, 95); fill-opacity: 1; white-space: pre;" transform="translate(0,351.25)">3M</text></g><g class="ytick"><text text-anchor="end" x="79" y="4.199999999999999" style="font-family: 'Open Sans', verdana, arial, sans-serif; font-size: 12px; fill: rgb(42, 63, 95); fill-opacity: 1; white-space: pre;" transform="translate(0,311.66999999999996)">4M</text></g><g class="ytick"><text text-anchor="end" x="79" y="4.199999999999999" style="font-family: 'Open Sans', verdana, arial, sans-serif; font-size: 12px; fill: rgb(42, 63, 95); fill-opacity: 1; white-space: pre;" transform="translate(0,272.08000000000004)">5M</text></g><g class="ytick"><text text-anchor="end" x="79" y="4.199999999999999" style="font-family: 'Open Sans', verdana, arial, sans-serif; font-size: 12px; fill: rgb(42, 63, 95); fill-opacity: 1; white-space: pre;" transform="translate(0,232.5)">6M</text></g><g class="ytick"><text text-anchor="end" x="79" y="4.199999999999999" style="font-family: 'Open Sans', verdana, arial, sans-serif; font-size: 12px; fill: rgb(42, 63, 95); fill-opacity: 1; white-space: pre;" transform="translate(0,192.92000000000002)">7M</text></g><g class="ytick"><text text-anchor="end" x="79" y="4.199999999999999" style="font-family: 'Open Sans', verdana, arial, sans-serif; font-size: 12px; fill: rgb(42, 63, 95); fill-opacity: 1; white-space: pre;" transform="translate(0,153.32999999999998)">8M</text></g><g class="ytick"><text text-anchor="end" x="79" y="4.199999999999999" style="font-family: 'Open Sans', verdana, arial, sans-serif; font-size: 12px; fill: rgb(42, 63, 95); fill-opacity: 1; white-space: pre;" transform="translate(0,113.75)">9M</text></g></g><g class="overaxes-above"/></g></g><g class="polarlayer"/><g class="smithlayer"/><g class="ternarylayer"/><g class="geolayer"/><g class="funnelarealayer"/><g class="pielayer"/><g class="iciclelayer"/><g class="treemaplayer"/><g class="sunburstlayer"/><g class="glimages"/><defs id="topdefs-a0af95"><g class="clips"/><clipPath id="legenda0af95"><rect width="281" height="219" x="0" y="0"/></clipPath></defs><g class="layer-above"><g class="imagelayer"/><g class="shapelayer"/></g><g class="infolayer"><g class="legend" pointer-events="all" transform="translate(407.42,100)"><rect class="bg" shape-rendering="crispEdges" style="stroke: rgb(68, 68, 68); stroke-opacity: 1; fill: rgb(255, 255, 255); fill-opacity: 1; stroke-width: 0px;" width="281" height="219" x="0" y="0"/><g class="scrollbox" transform="" clip-path="url(#legenda0af95)"><text class="legendtitletext" text-anchor="start" x="2" y="18.2" style="font-family: 'Open Sans', verdana, arial, sans-serif; font-size: 14px; fill: rgb(42, 63, 95); fill-opacity: 1; white-space: pre; opacity: 1;">Government Entity</text><g class="groups" transform=""><g class="traces" transform="translate(0,32.7)" style="opacity: 1;"><text class="legendtext" text-anchor="start" x="40" y="4.680000000000001" style="font-family: 'Open Sans', verdana, arial, sans-serif; font-size: 12px; fill: rgb(42, 63, 95); fill-opacity: 1; white-space: pre;">HOUSE OF REPRESENTATIVES</text><g class="layers"><g class="legendfill"><path class="js-fill" d="M5,-2h30v6h-30z" style="stroke-width: 0; fill: rgb(99, 110, 250); fill-opacity: 0.5;"/></g><g class="legendlines"><path class="js-line" d="M5,-2h30" style="fill: none; stroke: rgb(99, 110, 250); stroke-opacity: 1; stroke-width: 2px;"/></g><g class="legendsymbols"><g class="legendpoints"/></g></g><rect class="legendtoggle" x="0" y="-9.5" width="275.125" height="19" style="fill: rgb(0, 0, 0); fill-opacity: 0;"/></g></g><g class="groups" transform=""><g class="traces" transform="translate(0,51.7)" style="opacity: 1;"><text class="legendtext" text-anchor="start" x="40" y="4.680000000000001" style="font-family: 'Open Sans', verdana, arial, sans-serif; font-size: 12px; fill: rgb(42, 63, 95); fill-opacity: 1; white-space: pre;">SENATE</text><g class="layers"><g class="legendfill"><path class="js-fill" d="M5,-2h30v6h-30z" style="stroke-width: 0; fill: rgb(239, 85, 59); fill-opacity: 0.5;"/></g><g class="legendlines"><path class="js-line" d="M5,-2h30" style="fill: none; stroke: rgb(239, 85, 59); stroke-opacity: 1; stroke-width: 2px;"/></g><g class="legendsymbols"><g class="legendpoints"/></g></g><rect class="legendtoggle" x="0" y="-9.5" width="275.125" height="19" style="fill: rgb(0, 0, 0); fill-opacity: 0;"/></g></g><g class="groups" transform=""><g class="traces" transform="translate(0,70.7)" style="opacity: 1;"><text class="legendtext" text-anchor="start" x="40" y="4.680000000000001" style="font-family: 'Open Sans', verdana, arial, sans-serif; font-size: 12px; fill: rgb(42, 63, 95); fill-opacity: 1; white-space: pre;">Air Force, Dept of</text><g class="layers"><g class="legendfill"><path class="js-fill" d="M5,-2h30v6h-30z" style="stroke-width: 0; fill: rgb(0, 204, 150); fill-opacity: 0.5;"/></g><g class="legendlines"><path class="js-line" d="M5,-2h30" style="fill: none; stroke: rgb(0, 204, 150); stroke-opacity: 1; stroke-width: 2px;"/></g><g class="legendsymbols"><g class="legendpoints"/></g></g><rect class="legendtoggle" x="0" y="-9.5" width="275.125" height="19" style="fill: rgb(0, 0, 0); fill-opacity: 0;"/></g></g><g class="groups" transform=""><g class="traces" transform="translate(0,89.7)" style="opacity: 1;"><text class="legendtext" text-anchor="start" x="40" y="4.680000000000001" style="font-family: 'Open Sans', verdana, arial, sans-serif; font-size: 12px; fill: rgb(42, 63, 95); fill-opacity: 1; white-space: pre;">Defense, Dept of (DOD)</text><g class="layers"><g class="legendfill"><path class="js-fill" d="M5,-2h30v6h-30z" style="stroke-width: 0; fill: rgb(171, 99, 250); fill-opacity: 0.5;"/></g><g class="legendlines"><path class="js-line" d="M5,-2h30" style="fill: none; stroke: rgb(171, 99, 250); stroke-opacity: 1; stroke-width: 2px;"/></g><g class="legendsymbols"><g class="legendpoints"/></g></g><rect class="legendtoggle" x="0" y="-9.5" width="275.125" height="19" style="fill: rgb(0, 0, 0); fill-opacity: 0;"/></g></g><g class="groups" transform=""><g class="traces" transform="translate(0,108.7)" style="opacity: 1;"><text class="legendtext" text-anchor="start" x="40" y="4.680000000000001" style="font-family: 'Open Sans', verdana, arial, sans-serif; font-size: 12px; fill: rgb(42, 63, 95); fill-opacity: 1; white-space: pre;">Homeland Security, Dept of (DHS)</text><g class="layers"><g class="legendfill"><path class="js-fill" d="M5,-2h30v6h-30z" style="stroke-width: 0; fill: rgb(255, 161, 90); fill-opacity: 0.5;"/></g><g class="legendlines"><path class="js-line" d="M5,-2h30" style="fill: none; stroke: rgb(255, 161, 90); stroke-opacity: 1; stroke-width: 2px;"/></g><g class="legendsymbols"><g class="legendpoints"/></g></g><rect class="legendtoggle" x="0" y="-9.5" width="275.125" height="19" style="fill: rgb(0, 0, 0); fill-opacity: 0;"/></g></g><g class="groups" transform=""><g class="traces" transform="translate(0,127.7)" style="opacity: 1;"><text class="legendtext" text-anchor="start" x="40" y="4.680000000000001" style="font-family: 'Open Sans', verdana, arial, sans-serif; font-size: 12px; fill: rgb(42, 63, 95); fill-opacity: 1; white-space: pre;">State, Dept of (DOS)</text><g class="layers"><g class="legendfill"><path class="js-fill" d="M5,-2h30v6h-30z" style="stroke-width: 0; fill: rgb(25, 211, 243); fill-opacity: 0.5;"/></g><g class="legendlines"><path class="js-line" d="M5,-2h30" style="fill: none; stroke: rgb(25, 211, 243); stroke-opacity: 1; stroke-width: 2px;"/></g><g class="legendsymbols"><g class="legendpoints"/></g></g><rect class="legendtoggle" x="0" y="-9.5" width="275.125" height="19" style="fill: rgb(0, 0, 0); fill-opacity: 0;"/></g></g><g class="groups" transform=""><g class="traces" transform="translate(0,146.7)" style="opacity: 1;"><text class="legendtext" text-anchor="start" x="40" y="4.680000000000001" style="font-family: 'Open Sans', verdana, arial, sans-serif; font-size: 12px; fill: rgb(42, 63, 95); fill-opacity: 1; white-space: pre;">Commerce, Dept of (DOC)</text><g class="layers"><g class="legendfill"><path class="js-fill" d="M5,-2h30v6h-30z" style="stroke-width: 0; fill: rgb(255, 102, 146); fill-opacity: 0.5;"/></g><g class="legendlines"><path class="js-line" d="M5,-2h30" style="fill: none; stroke: rgb(255, 102, 146); stroke-opacity: 1; stroke-width: 2px;"/></g><g class="legendsymbols"><g class="legendpoints"/></g></g><rect class="legendtoggle" x="0" y="-9.5" width="275.125" height="19" style="fill: rgb(0, 0, 0); fill-opacity: 0;"/></g></g><g class="groups" transform=""><g class="traces" transform="translate(0,165.7)" style="opacity: 1;"><text class="legendtext" text-anchor="start" x="40" y="4.680000000000001" style="font-family: 'Open Sans', verdana, arial, sans-serif; font-size: 12px; fill: rgb(42, 63, 95); fill-opacity: 1; white-space: pre;">Natl Security Council (NSC)</text><g class="layers"><g class="legendfill"><path class="js-fill" d="M5,-2h30v6h-30z" style="stroke-width: 0; fill: rgb(182, 232, 128); fill-opacity: 0.5;"/></g><g class="legendlines"><path class="js-line" d="M5,-2h30" style="fill: none; stroke: rgb(182, 232, 128); stroke-opacity: 1; stroke-width: 2px;"/></g><g class="legendsymbols"><g class="legendpoints"/></g></g><rect class="legendtoggle" x="0" y="-9.5" width="275.125" height="19" style="fill: rgb(0, 0, 0); fill-opacity: 0;"/></g></g><g class="groups" transform=""><g class="traces" transform="translate(0,184.7)" style="opacity: 1;"><text class="legendtext" text-anchor="start" x="40" y="4.680000000000001" style="font-family: 'Open Sans', verdana, arial, sans-serif; font-size: 12px; fill: rgb(42, 63, 95); fill-opacity: 1; white-space: pre;">Office of Management &amp; Budget (OMB)</text><g class="layers"><g class="legendfill"><path class="js-fill" d="M5,-2h30v6h-30z" style="stroke-width: 0; fill: rgb(255, 151, 255); fill-opacity: 0.5;"/></g><g class="legendlines"><path class="js-line" d="M5,-2h30" style="fill: none; stroke: rgb(255, 151, 255); stroke-opacity: 1; stroke-width: 2px;"/></g><g class="legendsymbols"><g class="legendpoints"/></g></g><rect class="legendtoggle" x="0" y="-9.5" width="275.125" height="19" style="fill: rgb(0, 0, 0); fill-opacity: 0;"/></g></g><g class="groups" transform=""><g class="traces" transform="translate(0,203.7)" style="opacity: 1;"><text class="legendtext" text-anchor="start" x="40" y="4.680000000000001" style="font-family: 'Open Sans', verdana, arial, sans-serif; font-size: 12px; fill: rgb(42, 63, 95); fill-opacity: 1; white-space: pre;">Vice President of the U.S.</text><g class="layers"><g class="legendfill"><path class="js-fill" d="M5,-2h30v6h-30z" style="stroke-width: 0; fill: rgb(254, 203, 82); fill-opacity: 0.5;"/></g><g class="legendlines"><path class="js-line" d="M5,-2h30" style="fill: none; stroke: rgb(254, 203, 82); stroke-opacity: 1; stroke-width: 2px;"/></g><g class="legendsymbols"><g class="legendpoints"/></g></g><rect class="legendtoggle" x="0" y="-9.5" width="275.125" height="19" style="fill: rgb(0, 0, 0); fill-opacity: 0;"/></g></g></g><rect class="scrollbar" rx="20" ry="3" width="0" height="0" style="fill: rgb(128, 139, 164); fill-opacity: 1;" x="0" y="0"/></g><g class="g-gtitle"><text class="gtitle" x="35" y="50" text-anchor="start" dy="0em" style="opacity: 1; font-family: 'Open Sans', verdana, arial, sans-serif; font-size: 17px; fill: rgb(42, 63, 95); fill-opacity: 1; white-space: pre;">Lobbying Spend Attributed to Government Entities Over Time (Top 10)</text></g><g class="g-xtitle"><text class="xtitle" x="240.5" y="510.3" text-anchor="middle" style="opacity: 1; font-family: 'Open Sans', verdana, arial, sans-serif; font-size: 14px; fill: rgb(42, 63, 95); fill-opacity: 1; white-space: pre;">Year</text></g><g class="g-ytitle"><text class="ytitle" transform="rotate(-90,41.85,285)" x="41.85" y="285" text-anchor="middle" style="opacity: 1; font-family: 'Open Sans', verdana, arial, sans-serif; font-size: 14px; fill: rgb(42, 63, 95); fill-opacity: 1; white-space: pre;">Attributed Expenses ($)</text></g></g></svg>