<svg class="main-svg" xmlns="http://www.w3.org/2000/svg" xmlns:xlink="http://www.w3.org/1999/xlink" width="1400" height="1100" style="" viewBox="0 0 700 550"><rect x="0" y="0" width="700" height="550" style="fill: rgb(255, 255, 255); fill-opacity: 1;"/><defs id="defs-23b6d8"><g class="clips"><clipPath id="clip23b6d8xyplot" class="plotclip"><rect width="321" height="370"/></clipPath><clipPath class="axesclip" id="clip23b6d8x"><rect x="80" y="0" width="321" height="550"/></clipPath><clipPath class="axesclip" id="clip23b6d8y"><rect x="0" y="100" width="700" height="370"/></clipPath><clipPath class="axesclip" id="clip23b6d8xy"><rect x="80" y="100" width="321" height="370"/></clipPath></g><g class="gradients"/><g class="patterns"/></defs><g class="bglayer"><rect class="bg" x="80" y="100" width="321" height="370" style="fill: rgb(229, 236, 246); fill-opacity: 1; stroke-width: 0;"/></g><g class="layer-below"><g class="imagelayer"/><g class="shapelayer"/></g><g class="cartesianlayer"><g class="subplot xy"><g class="layer-subplot"><g class="shapelayer"/><g class="imagelayer"/></g><g class="minor-gridlayer"><g class="x"/><g class="y"/></g><g class="gridlayer"><g class="x"><path class="xgrid crisp" transform="translate(98.88,0)" d="M0,100v370" style="stroke: rgb(255, 255, 255); stroke-opacity: 1; stroke-width: 1px;"/><path class="xgrid crisp" transform="translate(193.29000000000002,0)" d="M0,100v370" style="stroke: rgb(255, 255, 255); stroke-opacity: 1; stroke-width: 1px;"/><path class="xgrid crisp" transform="translate(287.71000000000004,0)" d="M0,100v370" style="stroke: rgb(255, 255, 255); stroke-opacity: 1; stroke-width: 1px;"/><path class="xgrid crisp" transform="translate(382.12,0)" d="M0,100v370" style="stroke: rgb(255, 255, 255); stroke-opacity: 1; stroke-width: 1px;"/></g><g class="y"><path class="ygrid crisp" transform="translate(0,419.06)" d="M80,0h321" style="stroke: rgb(255, 255, 255); stroke-opacity: 1; stroke-width: 1px;"/><path class="ygrid crisp" transform="translate(0,368.12)" d="M80,0h321" style="stroke: rgb(255, 255, 255); stroke-opacity: 1; stroke-width: 1px;"/><path class="ygrid crisp" transform="translate(0,317.16999999999996)" d="M80,0h321" style="stroke: rgb(255, 255, 255); stroke-opacity: 1; stroke-width: 1px;"/><path class="ygrid crisp" transform="translate(0,266.23)" d="M80,0h321" style="stroke: rgb(255, 255, 255); stroke-opacity: 1; stroke-width: 1px;"/><path class="ygrid crisp" transform="translate(0,215.29000000000002)" d="M80,0h321" style="stroke: rgb(255, 255, 255); stroke-opacity: 1; stroke-width: 1px;"/><path class="ygrid crisp" transform="translate(0,164.35)" d="M80,0h321" style="stroke: rgb(255, 255, 255); stroke-opacity: 1; stroke-width: 1px;"/><path class="ygrid crisp" transform="translate(0,113.41)" d="M80,0h321" style="stroke: rgb(255, 255, 255); stroke-opacity: 1; stroke-width: 1px;"/></g></g><g class="zerolinelayer"><path class="yzl zl crisp" transform="translate(0,470)" d="M80,0h321" style="stroke: rgb(255, 255, 255); stroke-opacity: 1; stroke-width: 2px;"/></g><g class="layer-between"><g class="shapelayer"/><g class="imagelayer"/></g><path class="xlines-below"/><path class="ylines-below"/><g class="overlines-below"/><g class="xaxislayer-below"/><g class="yaxislayer-below"/><g class="overaxes-below"/><g class="overplot"><g class="xy" transform="translate(80,100)" clip-path="url(#clip23b6d8xyplot)"><g class="scatterlayer mlayer"><g class="trace scatter trace4c2422" style="stroke-miterlimit: 2;"><g class="fills"><g><path class="js-fill" d="M321,370L0,370L0,349.62L37.76,329.25L56.65,344.53L75.53,329.25L94.41,329.25L188.82,329.25L207.71,324.15L226.59,293.59L245.47,298.68L283.24,278.3L302.12,288.49L321,349.62" style="fill: rgb(99, 110, 250); fill-opacity: 0.5; stroke-width: 0;"/></g><g><path class="js-fill" d="M0,329.25L37.76,288.49L56.65,319.06L75.53,288.49L94.41,293.59L113.29,288.49L132.18,288.49L188.82,288.49L207.71,278.3L226.59,217.17L245.47,227.36L283.24,186.61L302.12,206.99L321,329.25L321,349.62L302.12,288.49L283.24,278.3L245.47,298.68L226.59,293.59L207.71,324.15L188.82,329.25L94.41,329.25L75.53,329.25L56.65,344.53L37.76,329.25L0,349.62Z" style="fill: rgb(239, 85, 59); fill-opacity: 0.5; stroke-width: 0;"/></g></g><g class="errorbars"/><g class="lines"><path class="js-line" d="M0,349.62L37.76,329.25L56.65,344.53L75.53,329.25L94.41,329.25L188.82,329.25L207.71,324.15L226.59,293.59L245.47,298.68L283.24,278.3L302.12,288.49L321,349.62" style="vector-effect: none; fill: none; stroke: rgb(99, 110, 250); stroke-opacity: 1; stroke-width: 2px; opacity: 1;"/></g><g class="points"/><g class="text"/></g><g class="trace scatter trace9cd3ae" style="stroke-miterlimit: 2;"><g class="fills"><g><path class="js-fill" d="M0,329.25L18.88,303.78L37.76,288.49L56.65,303.78L75.53,288.49L94.41,293.59L113.29,288.49L188.82,288.49L207.71,278.3L226.59,217.17L245.47,227.36L283.24,186.61L302.12,206.99L321,329.25L321,329.25L302.12,206.99L283.24,186.61L245.47,227.36L226.59,217.17L207.71,278.3L188.82,288.49L132.18,288.49L113.29,288.49L94.41,293.59L75.53,288.49L56.65,319.06L37.76,288.49L0,329.25Z" style="fill: rgb(0, 204, 150); fill-opacity: 0.5; stroke-width: 0;"/></g></g><g class="errorbars"/><g class="lines"><path class="js-line" d="M0,329.25L37.76,288.49L56.65,319.06L75.53,288.49L94.41,293.59L113.29,288.49L132.18,288.49L188.82,288.49L207.71,278.3L226.59,217.17L245.47,227.36L283.24,186.61L302.12,206.99L321,329.25" style="vector-effect: none; fill: none; stroke: rgb(239, 85, 59); stroke-opacity: 1; stroke-width: 2px; opacity: 1;"/></g><g class="points"/><g class="text"/></g><g class="trace scatter trace8f6f8a" style="stroke-miterlimit: 2;"><g class="fills"><g><path class="js-fill" d="M0,329.25L18.88,298.68L37.76,288.49L75.53,288.49L94.41,293.59L113.29,273.21L132.18,268.12L151.06,288.49L169.94,288.49L188.82,288.49L207.71,273.21L226.59,186.61L245.47,186.61L283.24,145.86L302.12,166.23L321,319.06L321,329.25L302.12,206.99L283.24,186.61L245.47,227.36L226.59,217.17L207.71,278.3L188.82,288.49L113.29,288.49L94.41,293.59L75.53,288.49L56.65,303.78L37.76,288.49L18.88,303.78L0,329.25Z" style="fill: rgb(171, 99, 250); fill-opacity: 0.5; stroke-width: 0;"/></g></g><g class="errorbars"/><g class="lines"><path class="js-line" d="M0,329.25L18.88,303.78L37.76,288.49L56.65,303.78L75.53,288.49L94.41,293.59L113.29,288.49L188.82,288.49L207.71,278.3L226.59,217.17L245.47,227.36L283.24,186.61L302.12,206.99L321,329.25" style="vector-effect: none; fill: none; stroke: rgb(0, 204, 150); stroke-opacity: 1; stroke-width: 2px; opacity: 1;"/></g><g class="points"/><g class="text"/></g><g class="trace scatter traceba57f9" style="stroke-miterlimit: 2;"><g class="fills"><g><path class="js-fill" d="M0,329.25L18.88,298.68L37.76,288.49L75.53,288.49L94.41,293.59L113.29,257.93L132.18,247.74L151.06,288.49L169.94,288.49L188.82,288.49L207.71,268.12L226.59,166.23L245.47,166.23L283.24,125.48L302.12,145.86L321,313.96L321,319.06L302.12,166.23L283.24,145.86L245.47,186.61L226.59,186.61L207.71,273.21L188.82,288.49L169.94,288.49L151.06,288.49L132.18,268.12L113.29,273.21L94.41,293.59L75.53,288.49L37.76,288.49L18.88,298.68L0,329.25Z" style="fill: rgb(255, 161, 90); fill-opacity: 0.5; stroke-width: 0;"/></g></g><g class="errorbars"/><g class="lines"><path class="js-line" d="M0,329.25L18.88,298.68L37.76,288.49L75.53,288.49L94.41,293.59L113.29,273.21L132.18,268.12L151.06,288.49L169.94,288.49L188.82,288.49L207.71,273.21L226.59,186.61L245.47,186.61L283.24,145.86L302.12,166.23L321,319.06" style="vector-effect: none; fill: none; stroke: rgb(171, 99, 250); stroke-opacity: 1; stroke-width: 2px; opacity: 1;"/></g><g class="points"/><g class="text"/></g><g class="trace scatter trace9ed31c" style="stroke-miterlimit: 2;"><g class="fills"><g><path class="js-fill" d="M0,329.25L18.88,298.68L37.76,288.49L75.53,288.49L94.41,293.59L113.29,257.93L132.18,247.74L151.06,288.49L169.94,288.49L188.82,288.49L207.71,268.12L226.59,166.23L245.47,156.04L264.35,125.48L283.24,89.82L302.12,105.1L321,303.78L321,313.96L302.12,145.86L283.24,125.48L245.47,166.23L226.59,166.23L207.71,268.12L188.82,288.49L169.94,288.49L151.06,288.49L132.18,247.74L113.29,257.93L94.41,293.59L75.53,288.49L37.76,288.49L18.88,298.68L0,329.25Z" style="fill: rgb(25, 211, 243); fill-opacity: 0.5; stroke-width: 0;"/></g></g><g class="errorbars"/><g class="lines"><path class="js-line" d="M0,329.25L18.88,298.68L37.76,288.49L75.53,288.49L94.41,293.59L113.29,257.93L132.18,247.74L151.06,288.49L169.94,288.49L188.82,288.49L207.71,268.12L226.59,166.23L245.47,166.23L283.24,125.48L302.12,145.86L321,313.96" style="vector-effect: none; fill: none; stroke: rgb(255, 161, 90); stroke-opacity: 1; stroke-width: 2px; opacity: 1;"/></g><g class="points"/><g class="text"/></g><g class="trace scatter traceba98a9" style="stroke-miterlimit: 2;"><g class="fills"><g><path class="js-fill" d="M0,329.25L18.88,298.68L37.76,288.49L75.53,288.49L94.41,293.59L113.29,257.93L132.18,247.74L151.06,288.49L169.94,288.49L188.82,288.49L207.71,268.12L226.59,166.23L245.47,156.04L264.35,125.48L283.24,69.44L302.12,84.72L321,298.68L321,303.78L302.12,105.1L283.24,89.82L264.35,125.48L245.47,156.04L226.59,166.23L207.71,268.12L188.82,288.49L169.94,288.49L151.06,288.49L132.18,247.74L113.29,257.93L94.41,293.59L75.53,288.49L37.76,288.49L18.88,298.68L0,329.25Z" style="fill: rgb(255, 102, 146); fill-opacity: 0.5; stroke-width: 0;"/></g></g><g class="errorbars"/><g class="lines"><path class="js-line" d="M0,329.25L18.88,298.68L37.76,288.49L75.53,288.49L94.41,293.59L113.29,257.93L132.18,247.74L151.06,288.49L169.94,288.49L188.82,288.49L207.71,268.12L226.59,166.23L245.47,156.04L264.35,125.48L283.24,89.82L302.12,105.1L321,303.78" style="vector-effect: none; fill: none; stroke: rgb(25, 211, 243); stroke-opacity: 1; stroke-width: 2px; opacity: 1;"/></g><g class="points"/><g class="text"/></g><g class="trace scatter trace0c998b" style="stroke-miterlimit: 2;"><g class="fills"><g><path class="js-fill" d="M0,329.25L18.88,298.68L37.76,288.49L75.53,288.49L94.41,293.59L113.29,257.93L132.18,247.74L151.06,288.49L169.94,288.49L188.82,288.49L207.71,268.12L226.59,166.23L245.47,156.04L264.35,125.48L283.24,59.25L302.12,43.97L321,288.49L321,298.68L302.12,84.72L283.24,69.44L264.35,125.48L245.47,156.04L226.59,166.23L207.71,268.12L188.82,288.49L169.94,288.49L151.06,288.49L132.18,247.74L113.29,257.93L94.41,293.59L75.53,288.49L37.76,288.49L18.88,298.68L0,329.25Z" style="fill: rgb(182, 232, 128); fill-opacity: 0.5; stroke-width: 0;"/></g></g><g class="errorbars"/><g class="lines"><path class="js-line" d="M0,329.25L18.88,298.68L37.76,288.49L75.53,288.49L94.41,293.59L113.29,257.93L132.18,247.74L151.06,288.49L169.94,288.49L188.82,288.49L207.71,268.12L226.59,166.23L245.47,156.04L264.35,125.48L283.24,69.44L302.12,84.72L321,298.68" style="vector-effect: none; fill: none; stroke: rgb(255, 102, 146); stroke-opacity: 1; stroke-width: 2px; opacity: 1;"/></g><g class="points"/><g class="text"/></g><g class="trace scatter traced36129" style="stroke-miterlimit: 2;"><g class="fills"><g><path class="js-fill" d="M0,329.25L18.88,298.68L37.76,288.49L75.53,288.49L94.41,293.59L113.29,257.93L132.18,247.74L151.06,288.49L169.94,288.49L188.82,288.49L207.71,268.12L226.59,166.23L245.47,156.04L264.35,125.48L283.24,54.16L302.12,33.78L321,283.4L321,288.49L302.12,43.97L283.24,59.25L264.35,125.48L245.47,156.04L226.59,166.23L207.71,268.12L188.82,288.49L169.94,288.49L151.06,288.49L132.18,247.74L113.29,257.93L94.41,293.59L75.53,288.49L37.76,288.49L18.88,298.68L0,329.25Z" style="fill: rgb(255, 151, 255); fill-opacity: 0.5; stroke-width: 0;"/></g></g><g class="errorbars"/><g class="lines"><path class="js-line" d="M0,329.25L18.88,298.68L37.76,288.49L75.53,288.49L94.41,293.59L113.29,257.93L132.18,247.74L151.06,288.49L169.94,288.49L188.82,288.49L207.71,268.12L226.59,166.23L245.47,156.04L264.35,125.48L283.24,59.25L302.12,43.97L321,288.49" style="vector-effect: none; fill: none; stroke: rgb(182, 232, 128); stroke-opacity: 1; stroke-width: 2px; opacity: 1;"/></g><g class="points"/><g class="text"/></g><g class="trace scatter trace197a7f" style="stroke-miterlimit: 2;"><g class="fills"><g><path class="js-fill" d="M0,329.25L18.88,298.68L37.76,288.49L75.53,288.49L94.41,293.59L113.29,257.93L132.18,247.74L151.06,288.49L169.94,288.49L188.82,288.49L207.71,268.12L226.59,166.23L245.47,156.04L264.35,125.48L283.24,54.16L302.12,18.5L321,278.3L321,283.4L302.12,33.78L283.24,54.16L264.35,125.48L245.47,156.04L226.59,166.23L207.71,268.12L188.82,288.49L169.94,288.49L151.06,288.49L132.18,247.74L113.29,257.93L94.41,293.59L75.53,288.49L37.76,288.49L18.88,298.68L0,329.25Z" style="fill: rgb(254, 203, 82); fill-opacity: 0.5; stroke-width: 0;"/></g></g><g class="errorbars"/><g class="lines"><path class="js-line" d="M0,329.25L18.88,298.68L37.76,288.49L75.53,288.49L94.41,293.59L113.29,257.93L132.18,247.74L151.06,288.49L169.94,288.49L188.82,288.49L207.71,268.12L226.59,166.23L245.47,156.04L264.35,125.48L283.24,54.16L302.12,33.78L321,283.4" style="vector-effect: none; fill: none; stroke: rgb(255, 151, 255); stroke-opacity: 1; stroke-width: 2px; opacity: 1;"/></g><g class="points"/><g class="text"/></g><g class="trace scatter trace9cb00e" style="stroke-miterlimit: 2;"><g class="fills"/><g class="errorbars"/><g class="lines"><path class="js-line" d="M0,329.25L18.88,298.68L37.76,288.49L75.53,288.49L94.41,293.59L113.29,257.93L132.18,247.74L151.06,288.49L169.94,288.49L188.82,288.49L207.71,268.12L226.59,166.23L245.47,156.04L264.35,125.48L283.24,54.16L302.12,18.5L321,278.3" style="vector-effect: none; fill: none; stroke: rgb(254, 203, 82); stroke-opacity: 1; stroke-width: 2px; opacity: 1;"/></g><g class="points"/><g class="text"/></g></g></g></g><g class="zerolinelayer-above"/><path class="xlines-above crisp" d="M0,0" style="fill: none;"/><path class="ylines-above crisp" d="M0,0" style="fill: none;"/><g class="overlines-above"/><g class="xaxislayer-above"><g class="xtick"><text text-anchor="middle" x="0" y="483" transform="translate(98.88,0)" style="font-family: 'Open Sans', verdana, arial, sans-serif; font-size: 12px; fill: rgb(42, 63, 95); fill-opacity: 1; white-space: pre;">2010</text></g><g class="xtick"><text text-anchor="middle" x="0" y="483" style="font-family: 'Open Sans', verdana, arial, sans-serif; font-size: 12px; fill: rgb(42, 63, 95); fill-opacity: 1; white-space: pre;" transform="translate(193.29000000000002,0)">2015</text></g><g class="xtick"><text text-anchor="middle" x="0" y="483" style="font-family: 'Open Sans', verdana, arial, sans-serif; font-size: 12px; fill: rgb(42, 63, 95); fill-opacity: 1; white-space: pre;" transform="translate(287.71000000000004,0)">2020</text></g><g class="xtick"><text text-anchor="middle" x="0" y="483" style="font-family: 'Open Sans', verdana, arial, sans-serif; font-size: 12px; fill: rgb(42, 63, 95); fill-opacity: 1; white-space: pre;" transform="translate(382.12,0)">2025</text></g></g><g class="yaxislayer-above"><g class="ytick"><text text-anchor="end" x="79" y="4.199999999999999" transform="translate(0,470)" style="font-family: 'Open Sans', verdana, arial, sans-serif; font-size: 12px; fill: rgb(42, 63, 95); fill-opacity: 1; white-space: pre;">0</text></g><g class="ytick"><text text-anchor="end" x="79" y="4.199999999999999" style="font-family: 'Open Sans', verdana, arial, sans-serif; font-size: 12px; fill: rgb(42, 63, 95); fill-opacity: 1; white-space: pre;" transform="translate(0,419.06)">10</text></g><g class="ytick"><text text-anchor="end" x="79" y="4.199999999999999" style="font-family: 'Open Sans', verdana, arial, sans-serif; font-size: 12px; fill: rgb(42, 63, 95); fill-opacity: 1; white-space: pre;" transform="translate(0,368.12)">20</text></g><g class="ytick"><text text-anchor="end" x="79" y="4.199999999999999" style="font-family: 'Open Sans', verdana, arial, sans-serif; font-size: 12px; fill: rgb(42, 63, 95); fill-opacity: 1; white-space: pre;" transform="translate(0,317.16999999999996)">30</text></g><g class="ytick"><text text-anchor="end" x="79" y="4.199999999999999" style="font-family: 'Open Sans', verdana, arial, sans-serif; font-size: 12px; fill: rgb(42, 63, 95); fill-opacity: 1; white-space: pre;" transform="translate(0,266.23)">40</text></g><g class="ytick"><text text-anchor="end" x="79" y="4.199999999999999" style="font-family: 'Open Sans', verdana, arial, sans-serif; font-size: 12px; fill: rgb(42, 63, 95); fill-opacity: 1; white-space: pre;" transform="translate(0,215.29000000000002)">50</text></g><g class="ytick"><text text-anchor="end" x="79" y="4.199999999999999" style="font-family: 'Open Sans', verdana, arial, sans-serif; font-size: 12px; fill: rgb(42, 63, 95); fill-opacity: 1; white-space: pre;" transform="translate(0,164.35)">60</text></g><g class="ytick"><text text-anchor="end" x="79" y="4.199999999999999" style="font-family: 'Open Sans', verdana, arial, sans-serif; font-size: 12px; fill: rgb(42, 63, 95); fill-opacity: 1; white-space: pre;" transform="translate(0,113.41)">70</text></g></g><g class="overaxes-above"/></g></g><g class="polarlayer"/><g class="smithlayer"/><g class="ternarylayer"/><g class="geolayer"/><g class="funnelarealayer"/><g class="pielayer"/><g class="iciclelayer"/><g class="treemaplayer"/><g class="sunburstlayer"/><g class="glimages"/><defs id="topdefs-23b6d8"><g class="clips"/><clipPath id="legend23b6d8"><rect width="281" height="219" x="0" y="0"/></clipPath></defs><g class="layer-above"><g class="imagelayer"/><g class="shapelayer"/></g><g class="infolayer"><g class="legend" pointer-events="all" transform="translate(407.42,100)"><rect class="bg" shape-rendering="crispEdges" style="stroke: rgb(68, 68, 68); stroke-opacity: 1; fill: rgb(255, 255, 255); fill-opacity: 1; stroke-width: 0px;" width="281" height="219" x="0" y="0"/><g class="scrollbox" transform="" clip-path="url(#legend23b6d8)"><text class="legendtitletext" text-anchor="start" x="2" y="18.2" style="font-family: 'Open Sans', verdana, arial, sans-serif; font-size: 14px; fill: rgb(42, 63, 95); fill-opacity: 1; white-space: pre; opacity: 1;">Government Entity</text><g class="groups" transform=""><g class="traces" transform="translate(0,32.7)" style="opacity: 1;"><text class="legendtext" text-anchor="start" x="40" y="4.680000000000001" style="font-family: 'Open Sans', verdana, arial, sans-serif; font-size: 12px; fill: rgb(42, 63, 95); fill-opacity: 1; white-space: pre;">HOUSE OF REPRESENTATIVES</text><g class="layers"><g class="legendfill"><path class="js-fill" d="M5,-2h30v6h-30z" style="stroke-width: 0; fill: rgb(99, 110, 250); fill-opacity: 0.5;"/></g><g class="legendlines"><path class="js-line" d="M5,-2h30" style="fill: none; stroke: rgb(99, 110, 250); stroke-opacity: 1; stroke-width: 2px;"/></g><g class="legendsymbols"><g class="legendpoints"/></g></g><rect class="legendtoggle" x="0" y="-9.5" width="275.125" height="19" style="fill: rgb(0, 0, 0); fill-opacity: 0;"/></g></g><g class="groups" transform=""><g class="traces" transform="translate(0,51.7)" style="opacity: 1;"><text class="legendtext" text-anchor="start" x="40" y="4.680000000000001" style="font-family: 'Open Sans', verdana, arial, sans-serif; font-size: 12px; fill: rgb(42, 63, 95); fill-opacity: 1; white-space: pre;">SENATE</text><g class="layers"><g class="legendfill"><path class="js-fill" d="M5,-2h30v6h-30z" style="stroke-width: 0; fill: rgb(239, 85, 59); fill-opacity: 0.5;"/></g><g class="legendlines"><path class="js-line" d="M5,-2h30" style="fill: none; stroke: rgb(239, 85, 59); stroke-opacity: 1; stroke-width: 2px;"/></g><g class="legendsymbols"><g class="legendpoints"/></g></g><rect class="legendtoggle" x="0" y="-9.5" width="275.125" height="19" style="fill: rgb(0, 0, 0); fill-opacity: 0;"/></g></g><g class="groups" transform=""><g class="traces" transform="translate(0,70.7)" style="opacity: 1;"><text class="legendtext" text-anchor="start" x="40" y="4.680000000000001" style="font-family: 'Open Sans', verdana, arial, sans-serif; font-size: 12px; fill: rgb(42, 63, 95); fill-opacity: 1; white-space: pre;">Air Force, Dept of</text><g class="layers"><g class="legendfill"><path class="js-fill" d="M5,-2h30v6h-30z" style="stroke-width: 0; fill: rgb(0, 204, 150); fill-opacity: 0.5;"/></g><g class="legendlines"><path class="js-line" d="M5,-2h30" style="fill: none; stroke: rgb(0, 204, 150); stroke-opacity: 1; stroke-width: 2px;"/></g><g class="legendsymbols"><g class="legendpoints"/></g></g><rect class="legendtoggle" x="0" y="-9.5" width="275.125" height="19" style="fill: rgb(0, 0, 0); fill-opacity: 0;"/></g></g><g class="groups" transform=""><g class="traces" transform="translate(0,89.7)" style="opacity: 1;"><text class="legendtext" text-anchor="start" x="40" y="4.680000000000001" style="font-family: 'Open Sans', verdana, arial, sans-serif; font-size: 12px; fill: rgb(42, 63, 95); fill-opacity: 1; white-space: pre;">Defense, Dept of (DOD)</text><g class="layers"><g class="legendfill"><path class="js-fill" d="M5,-2h30v6h-30z" style="stroke-width: 0; fill: rgb(171, 99, 250); fill-opacity: 0.5;"/></g><g class="legendlines"><path class="js-line" d="M5,-2h30" style="fill: none; stroke: rgb(171, 99, 250); stroke-opacity: 1; stroke-width: 2px;"/></g><g class="legendsymbols"><g class="legendpoints"/></g></g><rect class="legendtoggle" x="0" y="-9.5" width="275.125" height="19" style="fill: rgb(0, 0, 0); fill-opacity: 0;"/></g></g><g class="groups" transform=""><g class="traces" transform="translate(0,108.7)" style="opacity: 1;"><text class="legendtext" text-anchor="start" x="40" y="4.680000000000001" style="font-family: 'Open Sans', verdana, arial, sans-serif; font-size: 12px; fill: rgb(42, 63, 95); fill-opacity: 1; white-space: pre;">Homeland Security, Dept of (DHS)</text><g class="layers"><g class="legendfill"><path class="js-fill" d="M5,-2h30v6h-30z" style="stroke-width: 0; fill: rgb(255, 161, 90); fill-opacity: 0.5;"/></g><g class="legendlines"><path class="js-line" d="M5,-2h30" style="fill: none; stroke: rgb(255, 161, 90); stroke-opacity: 1; stroke-width: 2px;"/></g><g class="legendsymbols"><g class="legendpoints"/></g></g><rect class="legendtoggle" x="0" y="-9.5" width="275.125" height="19" style="fill: rgb(0, 0, 0); fill-opacity: 0;"/></g></g><g class="groups" transform=""><g class="traces" transform="translate(0,127.7)" style="opacity: 1;"><text class="legendtext" text-anchor="start" x="40" y="4.680000000000001" style="font-family: 'Open Sans', verdana, arial, sans-serif; font-size: 12px; fill: rgb(42, 63, 95); fill-opacity: 1; white-space: pre;">State, Dept of (DOS)</text><g class="layers"><g class="legendfill"><path class="js-fill" d="M5,-2h30v6h-30z" style="stroke-width: 0; fill: rgb(25, 211, 243); fill-opacity: 0.5;"/></g><g class="legendlines"><path class="js-line" d="M5,-2h30" style="fill: none; stroke: rgb(25, 211, 243); stroke-opacity: 1; stroke-width: 2px;"/></g><g class="legendsymbols"><g class="legendpoints"/></g></g><rect class="legendtoggle" x="0" y="-9.5" width="275.125" height="19" style="fill: rgb(0, 0, 0); fill-opacity: 0;"/></g></g><g class="groups" transform=""><g class="traces" transform="translate(0,146.7)" style="opacity: 1;"><text class="legendtext" text-anchor="start" x="40" y="4.680000000000001" style="font-family: 'Open Sans', verdana, arial, sans-serif; font-size: 12px; fill: rgb(42, 63, 95); fill-opacity: 1; white-space: pre;">Commerce, Dept of (DOC)</text><g class="layers"><g class="legendfill"><path class="js-fill" d="M5,-2h30v6h-30z" style="stroke-width: 0; fill: rgb(255, 102, 146); fill-opacity: 0.5;"/></g><g class="legendlines"><path class="js-line" d="M5,-2h30" style="fill: none; stroke: rgb(255, 102, 146); stroke-opacity: 1; stroke-width: 2px;"/></g><g class="legendsymbols"><g class="legendpoints"/></g></g><rect class="legendtoggle" x="0" y="-9.5" width="275.125" height="19" style="fill: rgb(0, 0, 0); fill-opacity: 0;"/></g></g><g class="groups" transform=""><g class="traces" transform="translate(0,165.7)" style="opacity: 1;"><text class="legendtext" text-anchor="start" x="40" y="4.680000000000001" style="font-family: 'Open Sans', verdana, arial, sans-serif; font-size: 12px; fill: rgb(42, 63, 95); fill-opacity: 1; white-space: pre;">Natl Security Council (NSC)</text><g class="layers"><g class="legendfill"><path class="js-fill" d="M5,-2h30v6h-30z" style="stroke-width: 0; fill: rgb(182, 232, 128); fill-opacity: 0.5;"/></g><g class="legendlines"><path class="js-line" d="M5,-2h30" style="fill: none; stroke: rgb(182, 232, 128); stroke-opacity: 1; stroke-width: 2px;"/></g><g class="legendsymbols"><g class="legendpoints"/></g></g><rect class="legendtoggle" x="0" y="-9.5" width="275.125" height="19" style="fill: rgb(0, 0, 0); fill-opacity: 0;"/></g></g><g class="groups" transform=""><g class="traces" transform="translate(0,184.7)" style="opacity: 1;"><text class="legendtext" text-anchor="start" x="40" y="4.680000000000001" style="font-family: 'Open Sans', verdana, arial, sans-serif; font-size: 12px; fill: rgb(42, 63, 95); fill-opacity: 1; white-space: pre;">Office of Management &amp; Budget (OMB)</text><g class="layers"><g class="legendfill"><path class="js-fill" d="M5,-2h30v6h-30z" style="stroke-width: 0; fill: rgb(255, 151, 255); fill-opacity: 0.5;"/></g><g class="legendlines"><path class="js-line" d="M5,-2h30" style="fill: none; stroke: rgb(255, 151, 255); stroke-opacity: 1; stroke-width: 2px;"/></g><g class="legendsymbols"><g class="legendpoints"/></g></g><rect class="legendtoggle" x="0" y="-9.5" width="275.125" height="19" style="fill: rgb(0, 0, 0); fill-opacity: 0;"/></g></g><g class="groups" transform=""><g class="traces" transform="translate(0,203.7)" style="opacity: 1;"><text class="legendtext" text-anchor="start" x="40" y="4.680000000000001" style="font-family: 'Open Sans', verdana, arial, sans-serif; font-size: 12px; fill: rgb(42, 63, 95); fill-opacity: 1; white-space: pre;">Vice President of the U.S.</text><g class="layers"><g class="legendfill"><path class="js-fill" d="M5,-2h30v6h-30z" style="stroke-width: 0; fill: rgb(254, 203, 82); fill-opacity: 0.5;"/></g><g class="legendlines"><path class="js-line" d="M5,-2h30" style="fill: none; stroke: rgb(254, 203, 82); stroke-opacity: 1; stroke-width: 2px;"/></g><g class="legendsymbols"><g class="legendpoints"/></g></g><rect class="legendtoggle" x="0" y="-9.5" width="275.125" height="19" style="fill: rgb(0, 0, 0); fill-opacity: 0;"/></g></g></g><rect class="scrollbar" rx="20" ry="3" width="0" height="0" style="fill: rgb(128, 139, 164); fill-opacity: 1;" x="0" y="0"/></g><g class="g-gtitle"><text class="gtitle" x="35" y="50" text-anchor="start" dy="0em" style="opacity: 1; font-family: 'Open Sans', verdana, arial, sans-serif; font-size: 17px; fill: rgb(42, 63, 95); fill-opacity: 1; white-space: pre;">Government Entities Lobbied Over Time (Top 10)</text></g><g class="g-xtitle"><text class="xtitle" x="240.5" y="510.3" text-anchor="middle" style="opacity: 1; font-family: 'Open Sans', verdana, arial, sans-serif; font-size: 14px; fill: rgb(42, 63, 95); fill-opacity: 1; white-space: pre;">Year</text></g><g class="g-ytitle"><text class="ytitle" transform="rotate(-90,44.334375,285)" x="44.334375" y="285" text-anchor="middle" style="opacity: 1; font-family: 'Open Sans', verdana, arial, sans-serif; font-size: 14px; fill: rgb(42, 63, 95); fill-opacity: 1; white-space: pre;">Number of Filings</text></g></g></svg>