<svg class="main-svg" xmlns="http://www.w3.org/2000/svg" xmlns:xlink="http://www.w3.org/1999/xlink" width="1400" height="1100" style="" viewBox="0 0 700 550"><rect x="0" y="0" width="700" height="550" style="fill: rgb(255, 255, 255); fill-opacity: 1;"/><defs id="defs-8fd8d6"><g class="clips"><clipPath id="clip8fd8d6xyplot" class="plotclip"><rect width="330" height="370"/></clipPath><clipPath class="axesclip" id="clip8fd8d6x"><rect x="80" y="0" width="330" height="550"/></clipPath><clipPath class="axesclip" id="clip8fd8d6y"><rect x="0" y="100" width="700" height="370"/></clipPath><clipPath class="axesclip" id="clip8fd8d6xy"><rect x="80" y="100" width="330" height="370"/></clipPath></g><g class="gradients"/><g class="patterns"/></defs><g class="bglayer"><rect class="bg" x="80" y="100" width="330" height="370" style="fill: rgb(229, 236, 246); fill-opacity: 1; stroke-width: 0;"/></g><g class="layer-below"><g class="imagelayer"/><g class="shapelayer"/></g><g class="cartesianlayer"><g class="subplot xy"><g class="layer-subplot"><g class="shapelayer"/><g class="imagelayer"/></g><g class="minor-gridlayer"><g class="x"/><g class="y"/></g><g class="gridlayer"><g class="x"><path class="xgrid crisp" transform="translate(92.22,0)" d="M0,100v370" style="stroke: rgb(255, 255, 255); stroke-opacity: 1; stroke-width: 1px;"/><path class="xgrid crisp" transform="translate(214.44,0)" d="M0,100v370" style="stroke: rgb(255, 255, 255); stroke-opacity: 1; stroke-width: 1px;"/><path class="xgrid crisp" transform="translate(336.67,0)" d="M0,100v370" style="stroke: rgb(255, 255, 255); stroke-opacity: 1; stroke-width: 1px;"/></g><g class="y"><path class="ygrid crisp" transform="translate(0,390.11)" d="M80,0h330" style="stroke: rgb(255, 255, 255); stroke-opacity: 1; stroke-width: 1px;"/><path class="ygrid crisp" transform="translate(0,310.23)" d="M80,0h330" style="stroke: rgb(255, 255, 255); stroke-opacity: 1; stroke-width: 1px;"/><path class="ygrid crisp" transform="translate(0,230.34)" d="M80,0h330" style="stroke: rgb(255, 255, 255); stroke-opacity: 1; stroke-width: 1px;"/><path class="ygrid crisp" transform="translate(0,150.45)" d="M80,0h330" style="stroke: rgb(255, 255, 255); stroke-opacity: 1; stroke-width: 1px;"/></g></g><g class="zerolinelayer"><path class="yzl zl crisp" transform="translate(0,470)" d="M80,0h330" style="stroke: rgb(255, 255, 255); stroke-opacity: 1; stroke-width: 2px;"/></g><g class="layer-between"><g class="shapelayer"/><g class="imagelayer"/></g><path class="xlines-below"/><path class="ylines-below"/><g class="overlines-below"/><g class="xaxislayer-below"/><g class="yaxislayer-below"/><g class="overaxes-below"/><g class="overplot"><g class="xy" transform="translate(80,100)" clip-path="url(#clip8fd8d6xyplot)"><g class="scatterlayer mlayer"><g class="trace scatter tracef096ca" style="stroke-miterlimit: 2;"><g class="fills"><g><path class="js-fill" d="M330,370L0,370L0,366.8L12.22,365.21L24.44,365.21L36.67,368.4L48.89,365.21L61.11,363.61L73.33,365.21L85.56,368.4L97.78,363.61L110,350.83L122.22,352.43L146.67,349.23L158.89,350.83L171.11,344.44L183.33,344.44L305.56,344.44L317.78,349.23L330,365.21" style="fill: rgb(99, 110, 250); fill-opacity: 0.5; stroke-width: 0;"/></g><g><path class="js-fill" d="M0,358.82L12.22,354.02L24.44,354.02L36.67,360.41L48.89,352.43L61.11,354.02L73.33,358.82L85.56,355.62L97.78,350.83L110,334.85L122.22,336.45L134.44,326.86L146.67,323.67L158.89,320.47L171.11,318.87L183.33,320.47L195.56,323.67L207.78,323.67L220,325.26L232.22,326.86L244.44,331.65L256.67,323.67L268.89,318.87L281.11,314.08L293.33,312.48L305.56,315.68L317.78,320.47L330,357.22L330,365.21L317.78,349.23L305.56,344.44L183.33,344.44L171.11,344.44L158.89,350.83L146.67,349.23L122.22,352.43L110,350.83L97.78,363.61L85.56,368.4L73.33,365.21L61.11,363.61L48.89,365.21L36.67,368.4L24.44,365.21L12.22,365.21L0,366.8Z" style="fill: rgb(239, 85, 59); fill-opacity: 0.5; stroke-width: 0;"/></g></g><g class="errorbars"/><g class="lines"><path class="js-line" d="M0,366.8L12.22,365.21L24.44,365.21L36.67,368.4L48.89,365.21L61.11,363.61L73.33,365.21L85.56,368.4L97.78,363.61L110,350.83L122.22,352.43L146.67,349.23L158.89,350.83L171.11,344.44L183.33,344.44L305.56,344.44L317.78,349.23L330,365.21" style="vector-effect: none; fill: none; stroke: rgb(99, 110, 250); stroke-opacity: 1; stroke-width: 2px; opacity: 1;"/></g><g class="points"/><g class="text"/></g><g class="trace scatter tracecd17c0" style="stroke-miterlimit: 2;"><g class="fills"><g><path class="js-fill" d="M0,347.63L12.22,342.84L24.44,341.24L36.67,344.44L48.89,334.85L61.11,336.45L73.33,344.44L85.56,341.24L97.78,334.85L110,310.88L122.22,314.08L134.44,298.1L146.67,296.5L171.11,280.53L183.33,280.53L195.56,291.71L207.78,291.71L232.22,294.91L244.44,302.9L256.67,293.31L268.89,282.13L281.11,277.33L293.33,274.14L305.56,278.93L317.78,285.32L330,347.63L330,357.22L317.78,320.47L305.56,315.68L293.33,312.48L281.11,314.08L268.89,318.87L256.67,323.67L244.44,331.65L232.22,326.86L220,325.26L207.78,323.67L195.56,323.67L183.33,320.47L171.11,318.87L158.89,320.47L146.67,323.67L134.44,326.86L122.22,336.45L110,334.85L97.78,350.83L85.56,355.62L73.33,358.82L61.11,354.02L48.89,352.43L36.67,360.41L24.44,354.02L12.22,354.02L0,358.82Z" style="fill: rgb(0, 204, 150); fill-opacity: 0.5; stroke-width: 0;"/></g></g><g class="errorbars"/><g class="lines"><path class="js-line" d="M0,358.82L12.22,354.02L24.44,354.02L36.67,360.41L48.89,352.43L61.11,354.02L73.33,358.82L85.56,355.62L97.78,350.83L110,334.85L122.22,336.45L134.44,326.86L146.67,323.67L158.89,320.47L171.11,318.87L183.33,320.47L195.56,323.67L207.78,323.67L220,325.26L232.22,326.86L244.44,331.65L256.67,323.67L268.89,318.87L281.11,314.08L293.33,312.48L305.56,315.68L317.78,320.47L330,357.22" style="vector-effect: none; fill: none; stroke: rgb(239, 85, 59); stroke-opacity: 1; stroke-width: 2px; opacity: 1;"/></g><g class="points"/><g class="text"/></g><g class="trace scatter traceb43934" style="stroke-miterlimit: 2;"><g class="fills"><g><path class="js-fill" d="M0,342.84L12.22,336.45L24.44,333.25L36.67,336.45L48.89,323.67L61.11,325.26L73.33,336.45L85.56,328.46L97.78,322.07L110,286.92L122.22,290.11L134.44,272.54L146.67,270.94L171.11,254.96L183.33,253.37L195.56,266.15L207.78,266.15L220,267.75L232.22,267.75L244.44,283.72L256.67,269.34L268.89,256.56L281.11,251.77L293.33,248.57L305.56,266.15L317.78,267.75L330,342.84L330,347.63L317.78,285.32L305.56,278.93L293.33,274.14L281.11,277.33L268.89,282.13L256.67,293.31L244.44,302.9L232.22,294.91L207.78,291.71L195.56,291.71L183.33,280.53L171.11,280.53L146.67,296.5L134.44,298.1L122.22,314.08L110,310.88L97.78,334.85L85.56,341.24L73.33,344.44L61.11,336.45L48.89,334.85L36.67,344.44L24.44,341.24L12.22,342.84L0,347.63Z" style="fill: rgb(171, 99, 250); fill-opacity: 0.5; stroke-width: 0;"/></g></g><g class="errorbars"/><g class="lines"><path class="js-line" d="M0,347.63L12.22,342.84L24.44,341.24L36.67,344.44L48.89,334.85L61.11,336.45L73.33,344.44L85.56,341.24L97.78,334.85L110,310.88L122.22,314.08L134.44,298.1L146.67,296.5L171.11,280.53L183.33,280.53L195.56,291.71L207.78,291.71L232.22,294.91L244.44,302.9L256.67,293.31L268.89,282.13L281.11,277.33L293.33,274.14L305.56,278.93L317.78,285.32L330,347.63" style="vector-effect: none; fill: none; stroke: rgb(0, 204, 150); stroke-opacity: 1; stroke-width: 2px; opacity: 1;"/></g><g class="points"/><g class="text"/></g><g class="trace scatter trace76bedf" style="stroke-miterlimit: 2;"><g class="fills"><g><path class="js-fill" d="M0,318.87L36.67,304.49L48.89,290.11L61.11,299.7L73.33,314.08L85.56,304.49L97.78,293.31L110,232.6L122.22,235.79L134.44,221.41L146.67,215.02L158.89,200.64L171.11,191.05L183.33,189.46L195.56,200.64L207.78,200.64L220,210.23L232.22,203.84L244.44,226.2L256.67,211.83L268.89,199.04L281.11,194.25L293.33,191.05L305.56,208.63L317.78,210.23L330,326.86L330,342.84L317.78,267.75L305.56,266.15L293.33,248.57L281.11,251.77L268.89,256.56L256.67,269.34L244.44,283.72L232.22,267.75L220,267.75L207.78,266.15L195.56,266.15L183.33,253.37L171.11,254.96L146.67,270.94L134.44,272.54L122.22,290.11L110,286.92L97.78,322.07L85.56,328.46L73.33,336.45L61.11,325.26L48.89,323.67L36.67,336.45L24.44,333.25L12.22,336.45L0,342.84Z" style="fill: rgb(255, 161, 90); fill-opacity: 0.5; stroke-width: 0;"/></g></g><g class="errorbars"/><g class="lines"><path class="js-line" d="M0,342.84L12.22,336.45L24.44,333.25L36.67,336.45L48.89,323.67L61.11,325.26L73.33,336.45L85.56,328.46L97.78,322.07L110,286.92L122.22,290.11L134.44,272.54L146.67,270.94L171.11,254.96L183.33,253.37L195.56,266.15L207.78,266.15L220,267.75L232.22,267.75L244.44,283.72L256.67,269.34L268.89,256.56L281.11,251.77L293.33,248.57L305.56,266.15L317.78,267.75L330,342.84" style="vector-effect: none; fill: none; stroke: rgb(171, 99, 250); stroke-opacity: 1; stroke-width: 2px; opacity: 1;"/></g><g class="points"/><g class="text"/></g><g class="trace scatter trace6aa008" style="stroke-miterlimit: 2;"><g class="fills"><g><path class="js-fill" d="M0,294.91L12.22,293.31L24.44,285.32L36.67,275.73L48.89,256.56L73.33,291.71L85.56,280.53L97.78,266.15L110,179.87L122.22,187.86L134.44,170.28L146.67,159.1L158.89,138.33L171.11,127.15L183.33,125.55L195.56,135.13L207.78,135.13L220,152.71L232.22,139.93L244.44,168.69L256.67,154.31L268.89,141.52L281.11,136.73L293.33,133.54L305.56,151.11L317.78,152.71L330,310.88L330,326.86L317.78,210.23L305.56,208.63L293.33,191.05L281.11,194.25L268.89,199.04L256.67,211.83L244.44,226.2L232.22,203.84L220,210.23L207.78,200.64L195.56,200.64L183.33,189.46L171.11,191.05L158.89,200.64L146.67,215.02L134.44,221.41L122.22,235.79L110,232.6L97.78,293.31L85.56,304.49L73.33,314.08L61.11,299.7L48.89,290.11L36.67,304.49L0,318.87Z" style="fill: rgb(25, 211, 243); fill-opacity: 0.5; stroke-width: 0;"/></g></g><g class="errorbars"/><g class="lines"><path class="js-line" d="M0,318.87L36.67,304.49L48.89,290.11L61.11,299.7L73.33,314.08L85.56,304.49L97.78,293.31L110,232.6L122.22,235.79L134.44,221.41L146.67,215.02L158.89,200.64L171.11,191.05L183.33,189.46L195.56,200.64L207.78,200.64L220,210.23L232.22,203.84L244.44,226.2L256.67,211.83L268.89,199.04L281.11,194.25L293.33,191.05L305.56,208.63L317.78,210.23L330,326.86" style="vector-effect: none; fill: none; stroke: rgb(255, 161, 90); stroke-opacity: 1; stroke-width: 2px; opacity: 1;"/></g><g class="points"/><g class="text"/></g><g class="trace scatter trace6af516" style="stroke-miterlimit: 2;"><g class="fills"><g><path class="js-fill" d="M0,283.72L12.22,282.13L24.44,272.54L36.67,258.16L48.89,238.99L61.11,256.56L73.33,277.33L85.56,272.54L97.78,254.96L110,155.9L122.22,168.69L134.44,152.71L146.67,143.12L158.89,123.95L171.11,115.96L183.33,119.16L195.56,131.94L207.78,127.15L220,143.12L232.22,122.35L244.44,144.72L256.67,128.74L268.89,115.96L281.11,111.17L293.33,107.97L305.56,123.95L317.78,125.55L330,304.49L330,310.88L317.78,152.71L305.56,151.11L293.33,133.54L281.11,136.73L268.89,141.52L256.67,154.31L244.44,168.69L232.22,139.93L220,152.71L207.78,135.13L195.56,135.13L183.33,125.55L171.11,127.15L158.89,138.33L146.67,159.1L134.44,170.28L122.22,187.86L110,179.87L97.78,266.15L85.56,280.53L73.33,291.71L48.89,256.56L36.67,275.73L24.44,285.32L12.22,293.31L0,294.91Z" style="fill: rgb(255, 102, 146); fill-opacity: 0.5; stroke-width: 0;"/></g></g><g class="errorbars"/><g class="lines"><path class="js-line" d="M0,294.91L12.22,293.31L24.44,285.32L36.67,275.73L48.89,256.56L73.33,291.71L85.56,280.53L97.78,266.15L110,179.87L122.22,187.86L134.44,170.28L146.67,159.1L158.89,138.33L171.11,127.15L183.33,125.55L195.56,135.13L207.78,135.13L220,152.71L232.22,139.93L244.44,168.69L256.67,154.31L268.89,141.52L281.11,136.73L293.33,133.54L305.56,151.11L317.78,152.71L330,310.88" style="vector-effect: none; fill: none; stroke: rgb(25, 211, 243); stroke-opacity: 1; stroke-width: 2px; opacity: 1;"/></g><g class="points"/><g class="text"/></g><g class="trace scatter trace2d0981" style="stroke-miterlimit: 2;"><g class="fills"><g><path class="js-fill" d="M0,275.73L12.22,272.54L24.44,261.35L36.67,246.98L48.89,226.2L61.11,245.38L73.33,267.75L85.56,261.35L97.78,246.98L110,131.94L122.22,151.11L134.44,131.94L146.67,122.35L158.89,104.78L171.11,95.19L183.33,98.39L195.56,112.77L207.78,107.97L220,123.95L232.22,103.18L244.44,125.55L256.67,104.78L268.89,90.4L281.11,85.6L293.33,82.41L305.56,101.58L317.78,98.39L330,298.1L330,304.49L317.78,125.55L305.56,123.95L293.33,107.97L281.11,111.17L268.89,115.96L256.67,128.74L244.44,144.72L232.22,122.35L220,143.12L207.78,127.15L195.56,131.94L183.33,119.16L171.11,115.96L158.89,123.95L146.67,143.12L134.44,152.71L122.22,168.69L110,155.9L97.78,254.96L85.56,272.54L73.33,277.33L61.11,256.56L48.89,238.99L36.67,258.16L24.44,272.54L12.22,282.13L0,283.72Z" style="fill: rgb(182, 232, 128); fill-opacity: 0.5; stroke-width: 0;"/></g></g><g class="errorbars"/><g class="lines"><path class="js-line" d="M0,283.72L12.22,282.13L24.44,272.54L36.67,258.16L48.89,238.99L61.11,256.56L73.33,277.33L85.56,272.54L97.78,254.96L110,155.9L122.22,168.69L134.44,152.71L146.67,143.12L158.89,123.95L171.11,115.96L183.33,119.16L195.56,131.94L207.78,127.15L220,143.12L232.22,122.35L244.44,144.72L256.67,128.74L268.89,115.96L281.11,111.17L293.33,107.97L305.56,123.95L317.78,125.55L330,304.49" style="vector-effect: none; fill: none; stroke: rgb(255, 102, 146); stroke-opacity: 1; stroke-width: 2px; opacity: 1;"/></g><g class="points"/><g class="text"/></g><g class="trace scatter trace5d6c11" style="stroke-miterlimit: 2;"><g class="fills"><g><path class="js-fill" d="M0,275.73L12.22,270.94L24.44,256.56L36.67,243.78L48.89,221.41L61.11,238.99L73.33,262.95L85.56,256.56L97.78,242.18L110,112.77L122.22,133.54L134.44,112.77L146.67,95.19L158.89,76.02L171.11,63.24L183.33,66.43L195.56,80.81L207.78,76.02L220,92L232.22,71.22L244.44,93.59L256.67,72.82L268.89,58.44L281.11,53.65L293.33,50.45L305.56,69.63L317.78,71.22L330,291.71L330,298.1L317.78,98.39L305.56,101.58L293.33,82.41L281.11,85.6L268.89,90.4L256.67,104.78L244.44,125.55L232.22,103.18L220,123.95L207.78,107.97L195.56,112.77L183.33,98.39L171.11,95.19L158.89,104.78L146.67,122.35L134.44,131.94L122.22,151.11L110,131.94L97.78,246.98L85.56,261.35L73.33,267.75L61.11,245.38L48.89,226.2L36.67,246.98L24.44,261.35L12.22,272.54L0,275.73Z" style="fill: rgb(255, 151, 255); fill-opacity: 0.5; stroke-width: 0;"/></g></g><g class="errorbars"/><g class="lines"><path class="js-line" d="M0,275.73L12.22,272.54L24.44,261.35L36.67,246.98L48.89,226.2L61.11,245.38L73.33,267.75L85.56,261.35L97.78,246.98L110,131.94L122.22,151.11L134.44,131.94L146.67,122.35L158.89,104.78L171.11,95.19L183.33,98.39L195.56,112.77L207.78,107.97L220,123.95L232.22,103.18L244.44,125.55L256.67,104.78L268.89,90.4L281.11,85.6L293.33,82.41L305.56,101.58L317.78,98.39L330,298.1" style="vector-effect: none; fill: none; stroke: rgb(182, 232, 128); stroke-opacity: 1; stroke-width: 2px; opacity: 1;"/></g><g class="points"/><g class="text"/></g><g class="trace scatter trace9fd726" style="stroke-miterlimit: 2;"><g class="fills"><g><path class="js-fill" d="M0,275.73L12.22,270.94L24.44,256.56L36.67,242.18L48.89,210.23L61.11,229.4L73.33,253.37L85.56,242.18L97.78,226.2L110,95.19L122.22,115.96L134.44,92L146.67,76.02L158.89,52.05L171.11,44.06L183.33,47.26L195.56,61.64L207.78,56.85L220,71.22L232.22,45.66L244.44,68.03L256.67,42.47L268.89,26.49L281.11,21.7L293.33,18.5L305.56,44.06L317.78,52.05L330,286.92L330,291.71L317.78,71.22L305.56,69.63L293.33,50.45L281.11,53.65L268.89,58.44L256.67,72.82L244.44,93.59L232.22,71.22L220,92L207.78,76.02L195.56,80.81L183.33,66.43L171.11,63.24L158.89,76.02L146.67,95.19L134.44,112.77L122.22,133.54L110,112.77L97.78,242.18L85.56,256.56L73.33,262.95L61.11,238.99L48.89,221.41L36.67,243.78L24.44,256.56L12.22,270.94L0,275.73Z" style="fill: rgb(254, 203, 82); fill-opacity: 0.5; stroke-width: 0;"/></g></g><g class="errorbars"/><g class="lines"><path class="js-line" d="M0,275.73L12.22,270.94L24.44,256.56L36.67,243.78L48.89,221.41L61.11,238.99L73.33,262.95L85.56,256.56L97.78,242.18L110,112.77L122.22,133.54L134.44,112.77L146.67,95.19L158.89,76.02L171.11,63.24L183.33,66.43L195.56,80.81L207.78,76.02L220,92L232.22,71.22L244.44,93.59L256.67,72.82L268.89,58.44L281.11,53.65L293.33,50.45L305.56,69.63L317.78,71.22L330,291.71" style="vector-effect: none; fill: none; stroke: rgb(255, 151, 255); stroke-opacity: 1; stroke-width: 2px; opacity: 1;"/></g><g class="points"/><g class="text"/></g><g class="trace scatter trace64e92b" style="stroke-miterlimit: 2;"><g class="fills"/><g class="errorbars"/><g class="lines"><path class="js-line" d="M0,275.73L12.22,270.94L24.44,256.56L36.67,242.18L48.89,210.23L61.11,229.4L73.33,253.37L85.56,242.18L97.78,226.2L110,95.19L122.22,115.96L134.44,92L146.67,76.02L158.89,52.05L171.11,44.06L183.33,47.26L195.56,61.64L207.78,56.85L220,71.22L232.22,45.66L244.44,68.03L256.67,42.47L268.89,26.49L281.11,21.7L293.33,18.5L305.56,44.06L317.78,52.05L330,286.92" style="vector-effect: none; fill: none; stroke: rgb(254, 203, 82); stroke-opacity: 1; stroke-width: 2px; opacity: 1;"/></g><g class="points"/><g class="text"/></g></g></g></g><g class="zerolinelayer-above"/><path class="xlines-above crisp" d="M0,0" style="fill: none;"/><path class="ylines-above crisp" d="M0,0" style="fill: none;"/><g class="overlines-above"/><g class="xaxislayer-above"><g class="xtick"><text text-anchor="middle" x="0" y="483" transform="translate(92.22,0)" style="font-family: 'Open Sans', verdana, arial, sans-serif; font-size: 12px; fill: rgb(42, 63, 95); fill-opacity: 1; white-space: pre;">2000</text></g><g class="xtick"><text text-anchor="middle" x="0" y="483" style="font-family: 'Open Sans', verdana, arial, sans-serif; font-size: 12px; fill: rgb(42, 63, 95); fill-opacity: 1; white-space: pre;" transform="translate(214.44,0)">2010</text></g><g class="xtick"><text text-anchor="middle" x="0" y="483" style="font-family: 'Open Sans', verdana, arial, sans-serif; font-size: 12px; fill: rgb(42, 63, 95); fill-opacity: 1; white-space: pre;" transform="translate(336.67,0)">2020</text></g></g><g class="yaxislayer-above"><g class="ytick"><text text-anchor="end" x="79" y="4.199999999999999" transform="translate(0,470)" style="font-family: 'Open Sans', verdana, arial, sans-serif; font-size: 12px; fill: rgb(42, 63, 95); fill-opacity: 1; white-space: pre;">0</text></g><g class="ytick"><text text-anchor="end" x="79" y="4.199999999999999" style="font-family: 'Open Sans', verdana, arial, sans-serif; font-size: 12px; fill: rgb(42, 63, 95); fill-opacity: 1; white-space: pre;" transform="translate(0,390.11)">50</text></g><g class="ytick"><text text-anchor="end" x="79" y="4.199999999999999" style="font-family: 'Open Sans', verdana, arial, sans-serif; font-size: 12px; fill: rgb(42, 63, 95); fill-opacity: 1; white-space: pre;" transform="translate(0,310.23)">100</text></g><g class="ytick"><text text-anchor="end" x="79" y="4.199999999999999" style="font-family: 'Open Sans', verdana, arial, sans-serif; font-size: 12px; fill: rgb(42, 63, 95); fill-opacity: 1; white-space: pre;" transform="translate(0,230.34)">150</text></g><g class="ytick"><text text-anchor="end" x="79" y="4.199999999999999" style="font-family: 'Open Sans', verdana, arial, sans-serif; font-size: 12px; fill: rgb(42, 63, 95); fill-opacity: 1; white-space: pre;" transform="translate(0,150.45)">200</text></g></g><g class="overaxes-above"/></g></g><g class="polarlayer"/><g class="smithlayer"/><g class="ternarylayer"/><g class="geolayer"/><g class="funnelarealayer"/><g class="pielayer"/><g class="iciclelayer"/><g class="treemaplayer"/><g class="sunburstlayer"/><g class="glimages"/><defs id="topdefs-8fd8d6"><g class="clips"/><clipPath id="legend8fd8d6"><rect width="271" height="219" x="0" y="0"/></clipPath></defs><g class="layer-above"><g class="imagelayer"/><g class="shapelayer"/></g><g class="infolayer"><g class="legend" pointer-events="all" transform="translate(416.6,100)"><rect class="bg" shape-rendering="crispEdges" style="stroke: rgb(68, 68, 68); stroke-opacity: 1; fill: rgb(255, 255, 255); fill-opacity: 1; stroke-width: 0px;" width="271" height="219" x="0" y="0"/><g class="scrollbox" transform="" clip-path="url(#legend8fd8d6)"><text class="legendtitletext" text-anchor="start" x="2" y="18.2" style="font-family: 'Open Sans', verdana, arial, sans-serif; font-size: 14px; fill: rgb(42, 63, 95); fill-opacity: 1; white-space: pre; opacity: 1;">Government Entity</text><g class="groups" transform=""><g class="traces" transform="translate(0,32.7)" style="opacity: 1;"><text class="legendtext" text-anchor="start" x="40" y="4.680000000000001" style="font-family: 'Open Sans', verdana, arial, sans-serif; font-size: 12px; fill: rgb(42, 63, 95); fill-opacity: 1; white-space: pre;">Air Force, Dept of</text><g class="layers"><g class="legendfill"><path class="js-fill" d="M5,-2h30v6h-30z" style="stroke-width: 0; fill: rgb(99, 110, 250); fill-opacity: 0.5;"/></g><g class="legendlines"><path class="js-line" d="M5,-2h30" style="fill: none; stroke: rgb(99, 110, 250); stroke-opacity: 1; stroke-width: 2px;"/></g><g class="legendsymbols"><g class="legendpoints"/></g></g><rect class="legendtoggle" x="0" y="-9.5" width="266" height="19" style="fill: rgb(0, 0, 0); fill-opacity: 0;"/></g></g><g class="groups" transform=""><g class="traces" transform="translate(0,51.7)" style="opacity: 1;"><text class="legendtext" text-anchor="start" x="40" y="4.680000000000001" style="font-family: 'Open Sans', verdana, arial, sans-serif; font-size: 12px; fill: rgb(42, 63, 95); fill-opacity: 1; white-space: pre;">Commerce, Dept of (DOC)</text><g class="layers"><g class="legendfill"><path class="js-fill" d="M5,-2h30v6h-30z" style="stroke-width: 0; fill: rgb(239, 85, 59); fill-opacity: 0.5;"/></g><g class="legendlines"><path class="js-line" d="M5,-2h30" style="fill: none; stroke: rgb(239, 85, 59); stroke-opacity: 1; stroke-width: 2px;"/></g><g class="legendsymbols"><g class="legendpoints"/></g></g><rect class="legendtoggle" x="0" y="-9.5" width="266" height="19" style="fill: rgb(0, 0, 0); fill-opacity: 0;"/></g></g><g class="groups" transform=""><g class="traces" transform="translate(0,70.7)" style="opacity: 1;"><text class="legendtext" text-anchor="start" x="40" y="4.680000000000001" style="font-family: 'Open Sans', verdana, arial, sans-serif; font-size: 12px; fill: rgb(42, 63, 95); fill-opacity: 1; white-space: pre;">Defense, Dept of (DOD)</text><g class="layers"><g class="legendfill"><path class="js-fill" d="M5,-2h30v6h-30z" style="stroke-width: 0; fill: rgb(0, 204, 150); fill-opacity: 0.5;"/></g><g class="legendlines"><path class="js-line" d="M5,-2h30" style="fill: none; stroke: rgb(0, 204, 150); stroke-opacity: 1; stroke-width: 2px;"/></g><g class="legendsymbols"><g class="legendpoints"/></g></g><rect class="legendtoggle" x="0" y="-9.5" width="266" height="19" style="fill: rgb(0, 0, 0); fill-opacity: 0;"/></g></g><g class="groups" transform=""><g class="traces" transform="translate(0,89.7)" style="opacity: 1;"><text class="legendtext" text-anchor="start" x="40" y="4.680000000000001" style="font-family: 'Open Sans', verdana, arial, sans-serif; font-size: 12px; fill: rgb(42, 63, 95); fill-opacity: 1; white-space: pre;">Federal Aviation Administration (FAA)</text><g class="layers"><g class="legendfill"><path class="js-fill" d="M5,-2h30v6h-30z" style="stroke-width: 0; fill: rgb(171, 99, 250); fill-opacity: 0.5;"/></g><g class="legendlines"><path class="js-line" d="M5,-2h30" style="fill: none; stroke: rgb(171, 99, 250); stroke-opacity: 1; stroke-width: 2px;"/></g><g class="legendsymbols"><g class="legendpoints"/></g></g><rect class="legendtoggle" x="0" y="-9.5" width="266" height="19" style="fill: rgb(0, 0, 0); fill-opacity: 0;"/></g></g><g class="groups" transform=""><g class="traces" transform="translate(0,108.7)" style="opacity: 1;"><text class="legendtext" text-anchor="start" x="40" y="4.680000000000001" style="font-family: 'Open Sans', verdana, arial, sans-serif; font-size: 12px; fill: rgb(42, 63, 95); fill-opacity: 1; white-space: pre;">HOUSE OF REPRESENTATIVES</text><g class="layers"><g class="legendfill"><path class="js-fill" d="M5,-2h30v6h-30z" style="stroke-width: 0; fill: rgb(255, 161, 90); fill-opacity: 0.5;"/></g><g class="legendlines"><path class="js-line" d="M5,-2h30" style="fill: none; stroke: rgb(255, 161, 90); stroke-opacity: 1; stroke-width: 2px;"/></g><g class="legendsymbols"><g class="legendpoints"/></g></g><rect class="legendtoggle" x="0" y="-9.5" width="266" height="19" style="fill: rgb(0, 0, 0); fill-opacity: 0;"/></g></g><g class="groups" transform=""><g class="traces" transform="translate(0,127.7)" style="opacity: 1;"><text class="legendtext" text-anchor="start" x="40" y="4.680000000000001" style="font-family: 'Open Sans', verdana, arial, sans-serif; font-size: 12px; fill: rgb(42, 63, 95); fill-opacity: 1; white-space: pre;">SENATE</text><g class="layers"><g class="legendfill"><path class="js-fill" d="M5,-2h30v6h-30z" style="stroke-width: 0; fill: rgb(25, 211, 243); fill-opacity: 0.5;"/></g><g class="legendlines"><path class="js-line" d="M5,-2h30" style="fill: none; stroke: rgb(25, 211, 243); stroke-opacity: 1; stroke-width: 2px;"/></g><g class="legendsymbols"><g class="legendpoints"/></g></g><rect class="legendtoggle" x="0" y="-9.5" width="266" height="19" style="fill: rgb(0, 0, 0); fill-opacity: 0;"/></g></g><g class="groups" transform=""><g class="traces" transform="translate(0,146.7)" style="opacity: 1;"><text class="legendtext" text-anchor="start" x="40" y="4.680000000000001" style="font-family: 'Open Sans', verdana, arial, sans-serif; font-size: 12px; fill: rgb(42, 63, 95); fill-opacity: 1; white-space: pre;">State, Dept of (DOS)</text><g class="layers"><g class="legendfill"><path class="js-fill" d="M5,-2h30v6h-30z" style="stroke-width: 0; fill: rgb(255, 102, 146); fill-opacity: 0.5;"/></g><g class="legendlines"><path class="js-line" d="M5,-2h30" style="fill: none; stroke: rgb(255, 102, 146); stroke-opacity: 1; stroke-width: 2px;"/></g><g class="legendsymbols"><g class="legendpoints"/></g></g><rect class="legendtoggle" x="0" y="-9.5" width="266" height="19" style="fill: rgb(0, 0, 0); fill-opacity: 0;"/></g></g><g class="groups" transform=""><g class="traces" transform="translate(0,165.7)" style="opacity: 1;"><text class="legendtext" text-anchor="start" x="40" y="4.680000000000001" style="font-family: 'Open Sans', verdana, arial, sans-serif; font-size: 12px; fill: rgb(42, 63, 95); fill-opacity: 1; white-space: pre;">Transportation, Dept of (DOT)</text><g class="layers"><g class="legendfill"><path class="js-fill" d="M5,-2h30v6h-30z" style="stroke-width: 0; fill: rgb(182, 232, 128); fill-opacity: 0.5;"/></g><g class="legendlines"><path class="js-line" d="M5,-2h30" style="fill: none; stroke: rgb(182, 232, 128); stroke-opacity: 1; stroke-width: 2px;"/></g><g class="legendsymbols"><g class="legendpoints"/></g></g><rect class="legendtoggle" x="0" y="-9.5" width="266" height="19" style="fill: rgb(0, 0, 0); fill-opacity: 0;"/></g></g><g class="groups" transform=""><g class="traces" transform="translate(0,184.7)" style="opacity: 1;"><text class="legendtext" text-anchor="start" x="40" y="4.680000000000001" style="font-family: 'Open Sans', verdana, arial, sans-serif; font-size: 12px; fill: rgb(42, 63, 95); fill-opacity: 1; white-space: pre;">Navy, Dept of</text><g class="layers"><g class="legendfill"><path class="js-fill" d="M5,-2h30v6h-30z" style="stroke-width: 0; fill: rgb(255, 151, 255); fill-opacity: 0.5;"/></g><g class="legendlines"><path class="js-line" d="M5,-2h30" style="fill: none; stroke: rgb(255, 151, 255); stroke-opacity: 1; stroke-width: 2px;"/></g><g class="legendsymbols"><g class="legendpoints"/></g></g><rect class="legendtoggle" x="0" y="-9.5" width="266" height="19" style="fill: rgb(0, 0, 0); fill-opacity: 0;"/></g></g><g class="groups" transform=""><g class="traces" transform="translate(0,203.7)" style="opacity: 1;"><text class="legendtext" text-anchor="start" x="40" y="4.680000000000001" style="font-family: 'Open Sans', verdana, arial, sans-serif; font-size: 12px; fill: rgb(42, 63, 95); fill-opacity: 1; white-space: pre;">Homeland Security, Dept of (DHS)</text><g class="layers"><g class="legendfill"><path class="js-fill" d="M5,-2h30v6h-30z" style="stroke-width: 0; fill: rgb(254, 203, 82); fill-opacity: 0.5;"/></g><g class="legendlines"><path class="js-line" d="M5,-2h30" style="fill: none; stroke: rgb(254, 203, 82); stroke-opacity: 1; stroke-width: 2px;"/></g><g class="legendsymbols"><g class="legendpoints"/></g></g><rect class="legendtoggle" x="0" y="-9.5" width="266" height="19" style="fill: rgb(0, 0, 0); fill-opacity: 0;"/></g></g></g><rect class="scrollbar" rx="20" ry="3" width="0" height="0" style="fill: rgb(128, 139, 164); fill-opacity: 1;" x="0" y="0"/></g><g class="g-gtitle"><text class="gtitle" x="35" y="50" text-anchor="start" dy="0em" style="opacity: 1; font-family: 'Open Sans', verdana, arial, sans-serif; font-size: 17px; fill: rgb(42, 63, 95); fill-opacity: 1; white-space: pre;">Government Entities Lobbied Over Time (Top 10)</text></g><g class="g-xtitle"><text class="xtitle" x="245" y="510.3" text-anchor="middle" style="opacity: 1; font-family: 'Open Sans', verdana, arial, sans-serif; font-size: 14px; fill: rgb(42, 63, 95); fill-opacity: 1; white-space: pre;">Year</text></g><g class="g-ytitle"><text class="ytitle" transform="rotate(-90,36.709375,285)" x="36.709375" y="285" text-anchor="middle" style="opacity: 1; font-family: 'Open Sans', verdana, arial, sans-serif; font-size: 14px; fill: rgb(42, 63, 95); fill-opacity: 1; white-space: pre;">Number of Filings</text></g></g></svg>