<svg class="main-svg" xmlns="http://www.w3.org/2000/svg" xmlns:xlink="http://www.w3.org/1999/xlink" width="1400" height="1100" style="" viewBox="0 0 700 550"><rect x="0" y="0" width="700" height="550" style="fill: rgb(255, 255, 255); fill-opacity: 1;"/><defs id="defs-8d1e0a"><g class="clips"><clipPath id="clip8d1e0axyplot" class="plotclip"><rect width="330" height="370"/></clipPath><clipPath class="axesclip" id="clip8d1e0ax"><rect x="80" y="0" width="330" height="550"/></clipPath><clipPath class="axesclip" id="clip8d1e0ay"><rect x="0" y="100" width="700" height="370"/></clipPath><clipPath class="axesclip" id="clip8d1e0axy"><rect x="80" y="100" width="330" height="370"/></clipPath></g><g class="gradients"/><g class="patterns"/></defs><g class="bglayer"><rect class="bg" x="80" y="100" width="330" height="370" style="fill: rgb(229, 236, 246); fill-opacity: 1; stroke-width: 0;"/></g><g class="layer-below"><g class="imagelayer"/><g class="shapelayer"/></g><g class="cartesianlayer"><g class="subplot xy"><g class="layer-subplot"><g class="shapelayer"/><g class="imagelayer"/></g><g class="minor-gridlayer"><g class="x"/><g class="y"/></g><g class="gridlayer"><g class="x"><path class="xgrid crisp" transform="translate(92.22,0)" d="M0,100v370" style="stroke: rgb(255, 255, 255); stroke-opacity: 1; stroke-width: 1px;"/><path class="xgrid crisp" transform="translate(214.44,0)" d="M0,100v370" style="stroke: rgb(255, 255, 255); stroke-opacity: 1; stroke-width: 1px;"/><path class="xgrid crisp" transform="translate(336.67,0)" d="M0,100v370" style="stroke: rgb(255, 255, 255); stroke-opacity: 1; stroke-width: 1px;"/></g><g class="y"><path class="ygrid crisp" transform="translate(0,432.3)" d="M80,0h330" style="stroke: rgb(255, 255, 255); stroke-opacity: 1; stroke-width: 1px;"/><path class="ygrid crisp" transform="translate(0,394.59)" d="M80,0h330" style="stroke: rgb(255, 255, 255); stroke-opacity: 1; stroke-width: 1px;"/><path class="ygrid crisp" transform="translate(0,356.89)" d="M80,0h330" style="stroke: rgb(255, 255, 255); stroke-opacity: 1; stroke-width: 1px;"/><path class="ygrid crisp" transform="translate(0,319.18)" d="M80,0h330" style="stroke: rgb(255, 255, 255); stroke-opacity: 1; stroke-width: 1px;"/><path class="ygrid crisp" transform="translate(0,281.48)" d="M80,0h330" style="stroke: rgb(255, 255, 255); stroke-opacity: 1; stroke-width: 1px;"/><path class="ygrid crisp" transform="translate(0,243.77)" d="M80,0h330" style="stroke: rgb(255, 255, 255); stroke-opacity: 1; stroke-width: 1px;"/><path class="ygrid crisp" transform="translate(0,206.07)" d="M80,0h330" style="stroke: rgb(255, 255, 255); stroke-opacity: 1; stroke-width: 1px;"/><path class="ygrid crisp" transform="translate(0,168.36)" d="M80,0h330" style="stroke: rgb(255, 255, 255); stroke-opacity: 1; stroke-width: 1px;"/><path class="ygrid crisp" transform="translate(0,130.66)" d="M80,0h330" style="stroke: rgb(255, 255, 255); stroke-opacity: 1; stroke-width: 1px;"/></g></g><g class="zerolinelayer"><path class="yzl zl crisp" transform="translate(0,470)" d="M80,0h330" style="stroke: rgb(255, 255, 255); stroke-opacity: 1; stroke-width: 2px;"/></g><g class="layer-between"><g class="shapelayer"/><g class="imagelayer"/></g><path class="xlines-below"/><path class="ylines-below"/><g class="overlines-below"/><g class="xaxislayer-below"/><g class="yaxislayer-below"/><g class="overaxes-below"/><g class="overplot"><g class="xy" transform="translate(80,100)" clip-path="url(#clip8d1e0axyplot)"><g class="scatterlayer mlayer"><g class="trace scatter tracee6fe92" style="stroke-miterlimit: 2;"><g class="fills"><g><path class="js-fill" d="M330,370L0,370L0,368.39L12.22,366.8L24.44,366.41L36.67,368.45L48.89,366.53L61.11,363.79L73.33,365.53L85.56,367.45L97.78,362.66L110,357.56L122.22,359.95L134.44,360.68L146.67,357.87L158.89,358.45L171.11,345.17L183.33,346.88L195.56,343.92L207.78,347.91L220,347.06L232.22,350.38L244.44,351.13L256.67,352.72L268.89,352.5L293.33,350.82L305.56,352.71L317.78,358.11L330,367.99" style="fill: rgb(99, 110, 250); fill-opacity: 0.5; stroke-width: 0;"/></g><g><path class="js-fill" d="M0,362.52L12.22,357.47L24.44,355.09L36.67,363.62L48.89,356.57L61.11,358.05L73.33,360.43L85.56,354.28L97.78,349.48L110,350.67L122.22,349.93L134.44,347.87L146.67,343.51L158.89,335.28L171.11,331.16L183.33,333.32L195.56,328.21L207.78,332.7L220,335.48L232.22,341.17L244.44,344.83L256.67,339.27L268.89,329.6L281.11,328.68L293.33,325.01L305.56,328.23L317.78,337.7L330,361.86L330,367.99L317.78,358.11L305.56,352.71L293.33,350.82L268.89,352.5L256.67,352.72L244.44,351.13L232.22,350.38L220,347.06L207.78,347.91L195.56,343.92L183.33,346.88L171.11,345.17L158.89,358.45L146.67,357.87L134.44,360.68L122.22,359.95L110,357.56L97.78,362.66L85.56,367.45L73.33,365.53L61.11,363.79L48.89,366.53L36.67,368.45L24.44,366.41L12.22,366.8L0,368.39Z" style="fill: rgb(239, 85, 59); fill-opacity: 0.5; stroke-width: 0;"/></g></g><g class="errorbars"/><g class="lines"><path class="js-line" d="M0,368.39L12.22,366.8L24.44,366.41L36.67,368.45L48.89,366.53L61.11,363.79L73.33,365.53L85.56,367.45L97.78,362.66L110,357.56L122.22,359.95L134.44,360.68L146.67,357.87L158.89,358.45L171.11,345.17L183.33,346.88L195.56,343.92L207.78,347.91L220,347.06L232.22,350.38L244.44,351.13L256.67,352.72L268.89,352.5L293.33,350.82L305.56,352.71L317.78,358.11L330,367.99" style="vector-effect: none; fill: none; stroke: rgb(99, 110, 250); stroke-opacity: 1; stroke-width: 2px; opacity: 1;"/></g><g class="points"/><g class="text"/></g><g class="trace scatter traced88908" style="stroke-miterlimit: 2;"><g class="fills"><g><path class="js-fill" d="M0,351.95L12.22,348.14L24.44,342.99L36.67,355.51L48.89,344.08L61.11,342.18L73.33,347.17L85.56,340.87L97.78,333.06L110,336.65L122.22,337.89L134.44,331.36L146.67,327.9L171.11,285.19L183.33,286.29L195.56,300.24L207.78,308L220,309.22L232.22,317.67L244.44,321.39L256.67,318.27L268.89,297.13L281.11,296.81L293.33,294.71L305.56,289.69L317.78,296.62L330,348.99L330,361.86L317.78,337.7L305.56,328.23L293.33,325.01L281.11,328.68L268.89,329.6L256.67,339.27L244.44,344.83L232.22,341.17L220,335.48L207.78,332.7L195.56,328.21L183.33,333.32L171.11,331.16L158.89,335.28L146.67,343.51L134.44,347.87L122.22,349.93L110,350.67L97.78,349.48L85.56,354.28L73.33,360.43L61.11,358.05L48.89,356.57L36.67,363.62L24.44,355.09L12.22,357.47L0,362.52Z" style="fill: rgb(0, 204, 150); fill-opacity: 0.5; stroke-width: 0;"/></g></g><g class="errorbars"/><g class="lines"><path class="js-line" d="M0,362.52L12.22,357.47L24.44,355.09L36.67,363.62L48.89,356.57L61.11,358.05L73.33,360.43L85.56,354.28L97.78,349.48L110,350.67L122.22,349.93L134.44,347.87L146.67,343.51L158.89,335.28L171.11,331.16L183.33,333.32L195.56,328.21L207.78,332.7L220,335.48L232.22,341.17L244.44,344.83L256.67,339.27L268.89,329.6L281.11,328.68L293.33,325.01L305.56,328.23L317.78,337.7L330,361.86" style="vector-effect: none; fill: none; stroke: rgb(239, 85, 59); stroke-opacity: 1; stroke-width: 2px; opacity: 1;"/></g><g class="points"/><g class="text"/></g><g class="trace scatter trace74c862" style="stroke-miterlimit: 2;"><g class="fills"><g><path class="js-fill" d="M0,347.7L12.22,344.51L24.44,338.45L36.67,350.67L48.89,338.04L61.11,333.48L73.33,340.91L85.56,326.98L97.78,319.88L110,324.22L122.22,322.52L146.67,313.54L158.89,291.51L171.11,271.18L183.33,269.48L195.56,283.17L207.78,293.87L220,294.75L232.22,302.09L244.44,312.26L256.67,306.08L268.89,280.24L281.11,281.99L293.33,278.5L305.56,284.53L317.78,290.27L330,347.13L330,348.99L317.78,296.62L305.56,289.69L293.33,294.71L281.11,296.81L268.89,297.13L256.67,318.27L244.44,321.39L232.22,317.67L220,309.22L207.78,308L195.56,300.24L183.33,286.29L171.11,285.19L146.67,327.9L134.44,331.36L122.22,337.89L110,336.65L97.78,333.06L85.56,340.87L73.33,347.17L61.11,342.18L48.89,344.08L36.67,355.51L24.44,342.99L12.22,348.14L0,351.95Z" style="fill: rgb(171, 99, 250); fill-opacity: 0.5; stroke-width: 0;"/></g></g><g class="errorbars"/><g class="lines"><path class="js-line" d="M0,351.95L12.22,348.14L24.44,342.99L36.67,355.51L48.89,344.08L61.11,342.18L73.33,347.17L85.56,340.87L97.78,333.06L110,336.65L122.22,337.89L134.44,331.36L146.67,327.9L171.11,285.19L183.33,286.29L195.56,300.24L207.78,308L220,309.22L232.22,317.67L244.44,321.39L256.67,318.27L268.89,297.13L281.11,296.81L293.33,294.71L305.56,289.69L317.78,296.62L330,348.99" style="vector-effect: none; fill: none; stroke: rgb(0, 204, 150); stroke-opacity: 1; stroke-width: 2px; opacity: 1;"/></g><g class="points"/><g class="text"/></g><g class="trace scatter trace726241" style="stroke-miterlimit: 2;"><g class="fills"><g><path class="js-fill" d="M0,308.6L12.22,307.4L24.44,285L36.67,269.35L48.89,241.86L61.11,280.59L73.33,282.08L85.56,265.93L97.78,248.51L110,220.01L122.22,204.52L134.44,198.3L146.67,210.57L158.89,188.4L171.11,209.11L183.33,206.01L195.56,208.91L207.78,236.06L220,244.19L232.22,253L244.44,220.45L256.67,247.22L268.89,227.32L281.11,230.59L293.33,229.57L317.78,211.18L330,329.14L330,347.13L317.78,290.27L305.56,284.53L293.33,278.5L281.11,281.99L268.89,280.24L256.67,306.08L244.44,312.26L232.22,302.09L220,294.75L207.78,293.87L195.56,283.17L183.33,269.48L171.11,271.18L158.89,291.51L146.67,313.54L122.22,322.52L110,324.22L97.78,319.88L85.56,326.98L73.33,340.91L61.11,333.48L48.89,338.04L36.67,350.67L24.44,338.45L12.22,344.51L0,347.7Z" style="fill: rgb(255, 161, 90); fill-opacity: 0.5; stroke-width: 0;"/></g></g><g class="errorbars"/><g class="lines"><path class="js-line" d="M0,347.7L12.22,344.51L24.44,338.45L36.67,350.67L48.89,338.04L61.11,333.48L73.33,340.91L85.56,326.98L97.78,319.88L110,324.22L122.22,322.52L146.67,313.54L158.89,291.51L171.11,271.18L183.33,269.48L195.56,283.17L207.78,293.87L220,294.75L232.22,302.09L244.44,312.26L256.67,306.08L268.89,280.24L281.11,281.99L293.33,278.5L305.56,284.53L317.78,290.27L330,347.13" style="vector-effect: none; fill: none; stroke: rgb(171, 99, 250); stroke-opacity: 1; stroke-width: 2px; opacity: 1;"/></g><g class="points"/><g class="text"/></g><g class="trace scatter trace39132b" style="stroke-miterlimit: 2;"><g class="fills"><g><path class="js-fill" d="M0,269.5L12.22,270.74L24.44,231.54L48.89,145.67L61.11,227.7L73.33,223.25L85.56,204.88L97.78,177.68L110,114.89L122.22,87.2L134.44,78.64L146.67,107.6L158.89,85.28L171.11,147.05L183.33,142.54L195.56,134.65L207.78,178.24L220,193.63L232.22,203.91L244.44,128.63L256.67,188.37L268.89,174.41L281.11,179.19L293.33,180.64L305.56,156L317.78,132.1L330,311.16L330,329.14L317.78,211.18L293.33,229.57L281.11,230.59L268.89,227.32L256.67,247.22L244.44,220.45L232.22,253L220,244.19L207.78,236.06L195.56,208.91L183.33,206.01L171.11,209.11L158.89,188.4L146.67,210.57L134.44,198.3L122.22,204.52L110,220.01L97.78,248.51L85.56,265.93L73.33,282.08L61.11,280.59L48.89,241.86L36.67,269.35L24.44,285L12.22,307.4L0,308.6Z" style="fill: rgb(25, 211, 243); fill-opacity: 0.5; stroke-width: 0;"/></g></g><g class="errorbars"/><g class="lines"><path class="js-line" d="M0,308.6L12.22,307.4L24.44,285L36.67,269.35L48.89,241.86L61.11,280.59L73.33,282.08L85.56,265.93L97.78,248.51L110,220.01L122.22,204.52L134.44,198.3L146.67,210.57L158.89,188.4L171.11,209.11L183.33,206.01L195.56,208.91L207.78,236.06L220,244.19L232.22,253L244.44,220.45L256.67,247.22L268.89,227.32L281.11,230.59L293.33,229.57L317.78,211.18L330,329.14" style="vector-effect: none; fill: none; stroke: rgb(255, 161, 90); stroke-opacity: 1; stroke-width: 2px; opacity: 1;"/></g><g class="points"/><g class="text"/></g><g class="trace scatter trace79ccdf" style="stroke-miterlimit: 2;"><g class="fills"><g><path class="js-fill" d="M0,258.93L12.22,261.41L24.44,219.44L48.89,133.18L61.11,213.9L73.33,207.91L85.56,198.62L97.78,166.31L110,100.06L122.22,74.35L134.44,70.07L146.67,95.47L158.89,73.96L171.11,139.51L183.33,136.19L195.56,128.02L207.78,168.31L220,181.42L232.22,190.3L244.44,110.52L256.67,171.09L268.89,156.91L281.11,161.2L293.33,161.45L305.56,133.93L317.78,112.76L330,305.52L330,311.16L317.78,132.1L305.56,156L293.33,180.64L281.11,179.19L268.89,174.41L256.67,188.37L244.44,128.63L232.22,203.91L220,193.63L207.78,178.24L195.56,134.65L183.33,142.54L171.11,147.05L158.89,85.28L146.67,107.6L134.44,78.64L122.22,87.2L110,114.89L97.78,177.68L85.56,204.88L73.33,223.25L61.11,227.7L48.89,145.67L24.44,231.54L12.22,270.74L0,269.5Z" style="fill: rgb(255, 102, 146); fill-opacity: 0.5; stroke-width: 0;"/></g></g><g class="errorbars"/><g class="lines"><path class="js-line" d="M0,269.5L12.22,270.74L24.44,231.54L48.89,145.67L61.11,227.7L73.33,223.25L85.56,204.88L97.78,177.68L110,114.89L122.22,87.2L134.44,78.64L146.67,107.6L158.89,85.28L171.11,147.05L183.33,142.54L195.56,134.65L207.78,178.24L220,193.63L232.22,203.91L244.44,128.63L256.67,188.37L268.89,174.41L281.11,179.19L293.33,180.64L305.56,156L317.78,132.1L330,311.16" style="vector-effect: none; fill: none; stroke: rgb(25, 211, 243); stroke-opacity: 1; stroke-width: 2px; opacity: 1;"/></g><g class="points"/><g class="text"/></g><g class="trace scatter trace0a5b79" style="stroke-miterlimit: 2;"><g class="fills"><g><path class="js-fill" d="M0,253.06L12.22,254.16L24.44,209.99L48.89,121.73L61.11,203.57L73.33,196.79L85.56,187.28L97.78,158.49L110,87.88L122.22,64.3L134.44,54.74L146.67,79.67L158.89,62.41L171.11,125.76L183.33,123.16L195.56,112.84L207.78,156.78L220,170.27L232.22,180.62L244.44,101.4L256.67,158.9L268.89,140.01L281.11,146.39L293.33,145.24L305.56,117.31L317.78,93.23L330,302.86L330,305.52L317.78,112.76L305.56,133.93L293.33,161.45L281.11,161.2L268.89,156.91L256.67,171.09L244.44,110.52L232.22,190.3L220,181.42L207.78,168.31L195.56,128.02L183.33,136.19L171.11,139.51L158.89,73.96L146.67,95.47L134.44,70.07L122.22,74.35L110,100.06L97.78,166.31L85.56,198.62L73.33,207.91L61.11,213.9L48.89,133.18L24.44,219.44L12.22,261.41L0,258.93Z" style="fill: rgb(182, 232, 128); fill-opacity: 0.5; stroke-width: 0;"/></g></g><g class="errorbars"/><g class="lines"><path class="js-line" d="M0,258.93L12.22,261.41L24.44,219.44L48.89,133.18L61.11,213.9L73.33,207.91L85.56,198.62L97.78,166.31L110,100.06L122.22,74.35L134.44,70.07L146.67,95.47L158.89,73.96L171.11,139.51L183.33,136.19L195.56,128.02L207.78,168.31L220,181.42L232.22,190.3L244.44,110.52L256.67,171.09L268.89,156.91L281.11,161.2L293.33,161.45L305.56,133.93L317.78,112.76L330,305.52" style="vector-effect: none; fill: none; stroke: rgb(255, 102, 146); stroke-opacity: 1; stroke-width: 2px; opacity: 1;"/></g><g class="points"/><g class="text"/></g><g class="trace scatter traceffec11" style="stroke-miterlimit: 2;"><g class="fills"><g><path class="js-fill" d="M0,253.06L12.22,253.53L24.44,206.4L48.89,119.19L61.11,200.82L73.33,194.33L85.56,184.25L97.78,151.34L110,75.44L122.22,54.25L134.44,45.41L146.67,58.77L158.89,37.47L171.11,91.41L183.33,89.61L195.56,79.08L207.78,126.01L232.22,154.74L244.44,74.07L256.67,134.88L268.89,115.38L281.11,120.86L293.33,116.7L305.56,90.24L317.78,72.05L330,300.51L330,302.86L317.78,93.23L305.56,117.31L293.33,145.24L281.11,146.39L268.89,140.01L256.67,158.9L244.44,101.4L232.22,180.62L220,170.27L207.78,156.78L195.56,112.84L183.33,123.16L171.11,125.76L158.89,62.41L146.67,79.67L134.44,54.74L122.22,64.3L110,87.88L97.78,158.49L85.56,187.28L73.33,196.79L61.11,203.57L48.89,121.73L24.44,209.99L12.22,254.16L0,253.06Z" style="fill: rgb(255, 151, 255); fill-opacity: 0.5; stroke-width: 0;"/></g></g><g class="errorbars"/><g class="lines"><path class="js-line" d="M0,253.06L12.22,254.16L24.44,209.99L48.89,121.73L61.11,203.57L73.33,196.79L85.56,187.28L97.78,158.49L110,87.88L122.22,64.3L134.44,54.74L146.67,79.67L158.89,62.41L171.11,125.76L183.33,123.16L195.56,112.84L207.78,156.78L220,170.27L232.22,180.62L244.44,101.4L256.67,158.9L268.89,140.01L281.11,146.39L293.33,145.24L305.56,117.31L317.78,93.23L330,302.86" style="vector-effect: none; fill: none; stroke: rgb(182, 232, 128); stroke-opacity: 1; stroke-width: 2px; opacity: 1;"/></g><g class="points"/><g class="text"/></g><g class="trace scatter trace920071" style="stroke-miterlimit: 2;"><g class="fills"><g><path class="js-fill" d="M0,253.06L12.22,253.53L24.44,206.4L48.89,112.11L61.11,196L73.33,187.83L85.56,170.12L97.78,137.25L110,65.4L122.22,44.2L134.44,28.25L146.67,47.89L158.89,18.5L171.11,80.84L183.33,79.08L195.56,64.19L207.78,111.29L220,122.21L232.22,135.12L244.44,55.2L256.67,113.87L268.89,89.72L281.11,96.81L293.33,90.89L305.56,72.95L317.78,62.64L330,298.5L330,300.51L317.78,72.05L305.56,90.24L293.33,116.7L281.11,120.86L268.89,115.38L256.67,134.88L244.44,74.07L232.22,154.74L207.78,126.01L195.56,79.08L183.33,89.61L171.11,91.41L158.89,37.47L146.67,58.77L134.44,45.41L122.22,54.25L110,75.44L97.78,151.34L85.56,184.25L73.33,194.33L61.11,200.82L48.89,119.19L24.44,206.4L12.22,253.53L0,253.06Z" style="fill: rgb(254, 203, 82); fill-opacity: 0.5; stroke-width: 0;"/></g></g><g class="errorbars"/><g class="lines"><path class="js-line" d="M0,253.06L12.22,253.53L24.44,206.4L48.89,119.19L61.11,200.82L73.33,194.33L85.56,184.25L97.78,151.34L110,75.44L122.22,54.25L134.44,45.41L146.67,58.77L158.89,37.47L171.11,91.41L183.33,89.61L195.56,79.08L207.78,126.01L232.22,154.74L244.44,74.07L256.67,134.88L268.89,115.38L281.11,120.86L293.33,116.7L305.56,90.24L317.78,72.05L330,300.51" style="vector-effect: none; fill: none; stroke: rgb(255, 151, 255); stroke-opacity: 1; stroke-width: 2px; opacity: 1;"/></g><g class="points"/><g class="text"/></g><g class="trace scatter trace87efa8" style="stroke-miterlimit: 2;"><g class="fills"/><g class="errorbars"/><g class="lines"><path class="js-line" d="M0,253.06L12.22,253.53L24.44,206.4L48.89,112.11L61.11,196L73.33,187.83L85.56,170.12L97.78,137.25L110,65.4L122.22,44.2L134.44,28.25L146.67,47.89L158.89,18.5L171.11,80.84L183.33,79.08L195.56,64.19L207.78,111.29L220,122.21L232.22,135.12L244.44,55.2L256.67,113.87L268.89,89.72L281.11,96.81L293.33,90.89L305.56,72.95L317.78,62.64L330,298.5" style="vector-effect: none; fill: none; stroke: rgb(254, 203, 82); stroke-opacity: 1; stroke-width: 2px; opacity: 1;"/></g><g class="points"/><g class="text"/></g></g></g></g><g class="zerolinelayer-above"/><path class="xlines-above crisp" d="M0,0" style="fill: none;"/><path class="ylines-above crisp" d="M0,0" style="fill: none;"/><g class="overlines-above"/><g class="xaxislayer-above"><g class="xtick"><text text-anchor="middle" x="0" y="483" transform="translate(92.22,0)" style="font-family: 'Open Sans', verdana, arial, sans-serif; font-size: 12px; fill: rgb(42, 63, 95); fill-opacity: 1; white-space: pre;">2000</text></g><g class="xtick"><text text-anchor="middle" x="0" y="483" style="font-family: 'Open Sans', verdana, arial, sans-serif; font-size: 12px; fill: rgb(42, 63, 95); fill-opacity: 1; white-space: pre;" transform="translate(214.44,0)">2010</text></g><g class="xtick"><text text-anchor="middle" x="0" y="483" style="font-family: 'Open Sans', verdana, arial, sans-serif; font-size: 12px; fill: rgb(42, 63, 95); fill-opacity: 1; white-space: pre;" transform="translate(336.67,0)">2020</text></g></g><g class="yaxislayer-above"><g class="ytick"><text text-anchor="end" x="79" y="4.199999999999999" transform="translate(0,470)" style="font-family: 'Open Sans', verdana, arial, sans-serif; font-size: 12px; fill: rgb(42, 63, 95); fill-opacity: 1; white-space: pre;">0</text></g><g class="ytick"><text text-anchor="end" x="79" y="4.199999999999999" style="font-family: 'Open Sans', verdana, arial, sans-serif; font-size: 12px; fill: rgb(42, 63, 95); fill-opacity: 1; white-space: pre;" transform="translate(0,432.3)">5M</text></g><g class="ytick"><text text-anchor="end" x="79" y="4.199999999999999" style="font-family: 'Open Sans', verdana, arial, sans-serif; font-size: 12px; fill: rgb(42, 63, 95); fill-opacity: 1; white-space: pre;" transform="translate(0,394.59)">10M</text></g><g class="ytick"><text text-anchor="end" x="79" y="4.199999999999999" style="font-family: 'Open Sans', verdana, arial, sans-serif; font-size: 12px; fill: rgb(42, 63, 95); fill-opacity: 1; white-space: pre;" transform="translate(0,356.89)">15M</text></g><g class="ytick"><text text-anchor="end" x="79" y="4.199999999999999" style="font-family: 'Open Sans', verdana, arial, sans-serif; font-size: 12px; fill: rgb(42, 63, 95); fill-opacity: 1; white-space: pre;" transform="translate(0,319.18)">20M</text></g><g class="ytick"><text text-anchor="end" x="79" y="4.199999999999999" style="font-family: 'Open Sans', verdana, arial, sans-serif; font-size: 12px; fill: rgb(42, 63, 95); fill-opacity: 1; white-space: pre;" transform="translate(0,281.48)">25M</text></g><g class="ytick"><text text-anchor="end" x="79" y="4.199999999999999" style="font-family: 'Open Sans', verdana, arial, sans-serif; font-size: 12px; fill: rgb(42, 63, 95); fill-opacity: 1; white-space: pre;" transform="translate(0,243.77)">30M</text></g><g class="ytick"><text text-anchor="end" x="79" y="4.199999999999999" style="font-family: 'Open Sans', verdana, arial, sans-serif; font-size: 12px; fill: rgb(42, 63, 95); fill-opacity: 1; white-space: pre;" transform="translate(0,206.07)">35M</text></g><g class="ytick"><text text-anchor="end" x="79" y="4.199999999999999" style="font-family: 'Open Sans', verdana, arial, sans-serif; font-size: 12px; fill: rgb(42, 63, 95); fill-opacity: 1; white-space: pre;" transform="translate(0,168.36)">40M</text></g><g class="ytick"><text text-anchor="end" x="79" y="4.199999999999999" style="font-family: 'Open Sans', verdana, arial, sans-serif; font-size: 12px; fill: rgb(42, 63, 95); fill-opacity: 1; white-space: pre;" transform="translate(0,130.66)">45M</text></g></g><g class="overaxes-above"/></g></g><g class="polarlayer"/><g class="smithlayer"/><g class="ternarylayer"/><g class="geolayer"/><g class="funnelarealayer"/><g class="pielayer"/><g class="iciclelayer"/><g class="treemaplayer"/><g class="sunburstlayer"/><g class="glimages"/><defs id="topdefs-8d1e0a"><g class="clips"/><clipPath id="legend8d1e0a"><rect width="271" height="219" x="0" y="0"/></clipPath></defs><g class="layer-above"><g class="imagelayer"/><g class="shapelayer"/></g><g class="infolayer"><g class="legend" pointer-events="all" transform="translate(416.6,100)"><rect class="bg" shape-rendering="crispEdges" style="stroke: rgb(68, 68, 68); stroke-opacity: 1; fill: rgb(255, 255, 255); fill-opacity: 1; stroke-width: 0px;" width="271" height="219" x="0" y="0"/><g class="scrollbox" transform="" clip-path="url(#legend8d1e0a)"><text class="legendtitletext" text-anchor="start" x="2" y="18.2" style="font-family: 'Open Sans', verdana, arial, sans-serif; font-size: 14px; fill: rgb(42, 63, 95); fill-opacity: 1; white-space: pre; opacity: 1;">Government Entity</text><g class="groups" transform=""><g class="traces" transform="translate(0,32.7)" style="opacity: 1;"><text class="legendtext" text-anchor="start" x="40" y="4.680000000000001" style="font-family: 'Open Sans', verdana, arial, sans-serif; font-size: 12px; fill: rgb(42, 63, 95); fill-opacity: 1; white-space: pre;">Air Force, Dept of</text><g class="layers"><g class="legendfill"><path class="js-fill" d="M5,-2h30v6h-30z" style="stroke-width: 0; fill: rgb(99, 110, 250); fill-opacity: 0.5;"/></g><g class="legendlines"><path class="js-line" d="M5,-2h30" style="fill: none; stroke: rgb(99, 110, 250); stroke-opacity: 1; stroke-width: 2px;"/></g><g class="legendsymbols"><g class="legendpoints"/></g></g><rect class="legendtoggle" x="0" y="-9.5" width="266" height="19" style="fill: rgb(0, 0, 0); fill-opacity: 0;"/></g></g><g class="groups" transform=""><g class="traces" transform="translate(0,51.7)" style="opacity: 1;"><text class="legendtext" text-anchor="start" x="40" y="4.680000000000001" style="font-family: 'Open Sans', verdana, arial, sans-serif; font-size: 12px; fill: rgb(42, 63, 95); fill-opacity: 1; white-space: pre;">Commerce, Dept of (DOC)</text><g class="layers"><g class="legendfill"><path class="js-fill" d="M5,-2h30v6h-30z" style="stroke-width: 0; fill: rgb(239, 85, 59); fill-opacity: 0.5;"/></g><g class="legendlines"><path class="js-line" d="M5,-2h30" style="fill: none; stroke: rgb(239, 85, 59); stroke-opacity: 1; stroke-width: 2px;"/></g><g class="legendsymbols"><g class="legendpoints"/></g></g><rect class="legendtoggle" x="0" y="-9.5" width="266" height="19" style="fill: rgb(0, 0, 0); fill-opacity: 0;"/></g></g><g class="groups" transform=""><g class="traces" transform="translate(0,70.7)" style="opacity: 1;"><text class="legendtext" text-anchor="start" x="40" y="4.680000000000001" style="font-family: 'Open Sans', verdana, arial, sans-serif; font-size: 12px; fill: rgb(42, 63, 95); fill-opacity: 1; white-space: pre;">Defense, Dept of (DOD)</text><g class="layers"><g class="legendfill"><path class="js-fill" d="M5,-2h30v6h-30z" style="stroke-width: 0; fill: rgb(0, 204, 150); fill-opacity: 0.5;"/></g><g class="legendlines"><path class="js-line" d="M5,-2h30" style="fill: none; stroke: rgb(0, 204, 150); stroke-opacity: 1; stroke-width: 2px;"/></g><g class="legendsymbols"><g class="legendpoints"/></g></g><rect class="legendtoggle" x="0" y="-9.5" width="266" height="19" style="fill: rgb(0, 0, 0); fill-opacity: 0;"/></g></g><g class="groups" transform=""><g class="traces" transform="translate(0,89.7)" style="opacity: 1;"><text class="legendtext" text-anchor="start" x="40" y="4.680000000000001" style="font-family: 'Open Sans', verdana, arial, sans-serif; font-size: 12px; fill: rgb(42, 63, 95); fill-opacity: 1; white-space: pre;">Federal Aviation Administration (FAA)</text><g class="layers"><g class="legendfill"><path class="js-fill" d="M5,-2h30v6h-30z" style="stroke-width: 0; fill: rgb(171, 99, 250); fill-opacity: 0.5;"/></g><g class="legendlines"><path class="js-line" d="M5,-2h30" style="fill: none; stroke: rgb(171, 99, 250); stroke-opacity: 1; stroke-width: 2px;"/></g><g class="legendsymbols"><g class="legendpoints"/></g></g><rect class="legendtoggle" x="0" y="-9.5" width="266" height="19" style="fill: rgb(0, 0, 0); fill-opacity: 0;"/></g></g><g class="groups" transform=""><g class="traces" transform="translate(0,108.7)" style="opacity: 1;"><text class="legendtext" text-anchor="start" x="40" y="4.680000000000001" style="font-family: 'Open Sans', verdana, arial, sans-serif; font-size: 12px; fill: rgb(42, 63, 95); fill-opacity: 1; white-space: pre;">HOUSE OF REPRESENTATIVES</text><g class="layers"><g class="legendfill"><path class="js-fill" d="M5,-2h30v6h-30z" style="stroke-width: 0; fill: rgb(255, 161, 90); fill-opacity: 0.5;"/></g><g class="legendlines"><path class="js-line" d="M5,-2h30" style="fill: none; stroke: rgb(255, 161, 90); stroke-opacity: 1; stroke-width: 2px;"/></g><g class="legendsymbols"><g class="legendpoints"/></g></g><rect class="legendtoggle" x="0" y="-9.5" width="266" height="19" style="fill: rgb(0, 0, 0); fill-opacity: 0;"/></g></g><g class="groups" transform=""><g class="traces" transform="translate(0,127.7)" style="opacity: 1;"><text class="legendtext" text-anchor="start" x="40" y="4.680000000000001" style="font-family: 'Open Sans', verdana, arial, sans-serif; font-size: 12px; fill: rgb(42, 63, 95); fill-opacity: 1; white-space: pre;">SENATE</text><g class="layers"><g class="legendfill"><path class="js-fill" d="M5,-2h30v6h-30z" style="stroke-width: 0; fill: rgb(25, 211, 243); fill-opacity: 0.5;"/></g><g class="legendlines"><path class="js-line" d="M5,-2h30" style="fill: none; stroke: rgb(25, 211, 243); stroke-opacity: 1; stroke-width: 2px;"/></g><g class="legendsymbols"><g class="legendpoints"/></g></g><rect class="legendtoggle" x="0" y="-9.5" width="266" height="19" style="fill: rgb(0, 0, 0); fill-opacity: 0;"/></g></g><g class="groups" transform=""><g class="traces" transform="translate(0,146.7)" style="opacity: 1;"><text class="legendtext" text-anchor="start" x="40" y="4.680000000000001" style="font-family: 'Open Sans', verdana, arial, sans-serif; font-size: 12px; fill: rgb(42, 63, 95); fill-opacity: 1; white-space: pre;">State, Dept of (DOS)</text><g class="layers"><g class="legendfill"><path class="js-fill" d="M5,-2h30v6h-30z" style="stroke-width: 0; fill: rgb(255, 102, 146); fill-opacity: 0.5;"/></g><g class="legendlines"><path class="js-line" d="M5,-2h30" style="fill: none; stroke: rgb(255, 102, 146); stroke-opacity: 1; stroke-width: 2px;"/></g><g class="legendsymbols"><g class="legendpoints"/></g></g><rect class="legendtoggle" x="0" y="-9.5" width="266" height="19" style="fill: rgb(0, 0, 0); fill-opacity: 0;"/></g></g><g class="groups" transform=""><g class="traces" transform="translate(0,165.7)" style="opacity: 1;"><text class="legendtext" text-anchor="start" x="40" y="4.680000000000001" style="font-family: 'Open Sans', verdana, arial, sans-serif; font-size: 12px; fill: rgb(42, 63, 95); fill-opacity: 1; white-space: pre;">Transportation, Dept of (DOT)</text><g class="layers"><g class="legendfill"><path class="js-fill" d="M5,-2h30v6h-30z" style="stroke-width: 0; fill: rgb(182, 232, 128); fill-opacity: 0.5;"/></g><g class="legendlines"><path class="js-line" d="M5,-2h30" style="fill: none; stroke: rgb(182, 232, 128); stroke-opacity: 1; stroke-width: 2px;"/></g><g class="legendsymbols"><g class="legendpoints"/></g></g><rect class="legendtoggle" x="0" y="-9.5" width="266" height="19" style="fill: rgb(0, 0, 0); fill-opacity: 0;"/></g></g><g class="groups" transform=""><g class="traces" transform="translate(0,184.7)" style="opacity: 1;"><text class="legendtext" text-anchor="start" x="40" y="4.680000000000001" style="font-family: 'Open Sans', verdana, arial, sans-serif; font-size: 12px; fill: rgb(42, 63, 95); fill-opacity: 1; white-space: pre;">Navy, Dept of</text><g class="layers"><g class="legendfill"><path class="js-fill" d="M5,-2h30v6h-30z" style="stroke-width: 0; fill: rgb(255, 151, 255); fill-opacity: 0.5;"/></g><g class="legendlines"><path class="js-line" d="M5,-2h30" style="fill: none; stroke: rgb(255, 151, 255); stroke-opacity: 1; stroke-width: 2px;"/></g><g class="legendsymbols"><g class="legendpoints"/></g></g><rect class="legendtoggle" x="0" y="-9.5" width="266" height="19" style="fill: rgb(0, 0, 0); fill-opacity: 0;"/></g></g><g class="groups" transform=""><g class="traces" transform="translate(0,203.7)" style="opacity: 1;"><text class="legendtext" text-anchor="start" x="40" y="4.680000000000001" style="font-family: 'Open Sans', verdana, arial, sans-serif; font-size: 12px; fill: rgb(42, 63, 95); fill-opacity: 1; white-space: pre;">Homeland Security, Dept of (DHS)</text><g class="layers"><g class="legendfill"><path class="js-fill" d="M5,-2h30v6h-30z" style="stroke-width: 0; fill: rgb(254, 203, 82); fill-opacity: 0.5;"/></g><g class="legendlines"><path class="js-line" d="M5,-2h30" style="fill: none; stroke: rgb(254, 203, 82); stroke-opacity: 1; stroke-width: 2px;"/></g><g class="legendsymbols"><g class="legendpoints"/></g></g><rect class="legendtoggle" x="0" y="-9.5" width="266" height="19" style="fill: rgb(0, 0, 0); fill-opacity: 0;"/></g></g></g><rect class="scrollbar" rx="20" ry="3" width="0" height="0" style="fill: rgb(128, 139, 164); fill-opacity: 1;" x="0" y="0"/></g><g class="g-gtitle"><text class="gtitle" x="35" y="50" text-anchor="start" dy="0em" style="opacity: 1; font-family: 'Open Sans', verdana, arial, sans-serif; font-size: 17px; fill: rgb(42, 63, 95); fill-opacity: 1; white-space: pre;">Lobbying Spend Attributed to Government Entities Over Time (Top 10)</text></g><g class="g-xtitle"><text class="xtitle" x="245" y="510.3" text-anchor="middle" style="opacity: 1; font-family: 'Open Sans', verdana, arial, sans-serif; font-size: 14px; fill: rgb(42, 63, 95); fill-opacity: 1; white-space: pre;">Year</text></g><g class="g-ytitle"><text class="ytitle" transform="rotate(-90,34.225,285)" x="34.225" y="285" text-anchor="middle" style="opacity: 1; font-family: 'Open Sans', verdana, arial, sans-serif; font-size: 14px; fill: rgb(42, 63, 95); fill-opacity: 1; white-space: pre;">Attributed Expenses ($)</text></g></g></svg>