<svg class="main-svg" xmlns="http://www.w3.org/2000/svg" xmlns:xlink="http://www.w3.org/1999/xlink" width="1400" height="1200" style="" viewBox="0 0 700 600"><rect x="0" y="0" width="700" height="600" style="fill: rgb(255, 255, 255); fill-opacity: 1;"/><defs id="defs-d4b975"><g class="clips"><clipPath id="clipd4b975xyplot" class="plotclip"><rect width="220" height="420"/></clipPath><clipPath class="axesclip" id="clipd4b975x"><rect x="80" y="0" width="220" height="600"/></clipPath><clipPath class="axesclip" id="clipd4b975y"><rect x="0" y="100" width="700" height="420"/></clipPath><clipPath class="axesclip" id="clipd4b975xy"><rect x="80" y="100" width="220" height="420"/></clipPath></g><g class="gradients"/><g class="patterns"/></defs><g class="bglayer"><rect class="bg" x="80" y="100" width="220" height="420" style="fill: rgb(229, 236, 246); fill-opacity: 1; stroke-width: 0;"/></g><g class="layer-below"><g class="imagelayer"/><g class="shapelayer"/></g><g class="cartesianlayer"><g class="subplot xy"><g class="layer-subplot"><g class="shapelayer"/><g class="imagelayer"/></g><g class="minor-gridlayer"><g class="x"/><g class="y"/></g><g class="gridlayer"><g class="x"><path class="xgrid crisp" transform="translate(88.15,0)" d="M0,100v420" style="stroke: rgb(255, 255, 255); stroke-opacity: 1; stroke-width: 1px;"/><path class="xgrid crisp" transform="translate(169.63,0)" d="M0,100v420" style="stroke: rgb(255, 255, 255); stroke-opacity: 1; stroke-width: 1px;"/><path class="xgrid crisp" transform="translate(251.11,0)" d="M0,100v420" style="stroke: rgb(255, 255, 255); stroke-opacity: 1; stroke-width: 1px;"/></g><g class="y"><path class="ygrid crisp" transform="translate(0,453.05)" d="M80,0h220" style="stroke: rgb(255, 255, 255); stroke-opacity: 1; stroke-width: 1px;"/><path class="ygrid crisp" transform="translate(0,386.11)" d="M80,0h220" style="stroke: rgb(255, 255, 255); stroke-opacity: 1; stroke-width: 1px;"/><path class="ygrid crisp" transform="translate(0,319.15999999999997)" d="M80,0h220" style="stroke: rgb(255, 255, 255); stroke-opacity: 1; stroke-width: 1px;"/><path class="ygrid crisp" transform="translate(0,252.21)" d="M80,0h220" style="stroke: rgb(255, 255, 255); stroke-opacity: 1; stroke-width: 1px;"/><path class="ygrid crisp" transform="translate(0,185.26999999999998)" d="M80,0h220" style="stroke: rgb(255, 255, 255); stroke-opacity: 1; stroke-width: 1px;"/><path class="ygrid crisp" transform="translate(0,118.32)" d="M80,0h220" style="stroke: rgb(255, 255, 255); stroke-opacity: 1; stroke-width: 1px;"/></g></g><g class="zerolinelayer"><path class="yzl zl crisp" transform="translate(0,520)" d="M80,0h220" style="stroke: rgb(255, 255, 255); stroke-opacity: 1; stroke-width: 2px;"/></g><g class="layer-between"><g class="shapelayer"/><g class="imagelayer"/></g><path class="xlines-below"/><path class="ylines-below"/><g class="overlines-below"/><g class="xaxislayer-below"/><g class="yaxislayer-below"/><g class="overaxes-below"/><g class="overplot"><g class="xy" transform="translate(80,100)" clip-path="url(#clipd4b975xyplot)"><g class="scatterlayer mlayer"><g class="trace scatter trace299f03" style="stroke-miterlimit: 2;"><g class="fills"><g><path class="js-fill" d="M220,420L0,420L0,420L16.3,420L24.44,379.83L48.89,379.83L57.04,420L65.19,420L73.33,397.24L81.48,393.22L89.63,393.22L97.78,402.59L105.93,402.59L114.07,406.61L122.22,402.59L130.37,401.26L138.52,405.27L146.67,405.27L154.81,411.97L220,411.97" style="fill: rgb(99, 110, 250); fill-opacity: 0.5; stroke-width: 0;"/></g><g><path class="js-fill" d="M0,387.87L8.15,393.22L16.3,390.54L24.44,345.02L32.59,345.02L40.74,339.66L48.89,336.99L57.04,369.12L65.19,369.12L73.33,369.12L81.48,383.85L89.63,381.17L97.78,389.2L105.93,390.54L114.07,398.58L122.22,394.56L130.37,395.9L138.52,399.92L146.67,399.92L154.81,394.56L162.96,399.25L171.11,400.59L179.26,405.94L187.41,405.27L195.56,405.41L203.7,399.92L211.85,403.26L220,411.97L220,411.97L154.81,411.97L146.67,405.27L138.52,405.27L130.37,401.26L122.22,402.59L114.07,406.61L105.93,402.59L97.78,402.59L89.63,393.22L81.48,393.22L73.33,397.24L65.19,420L57.04,420L48.89,379.83L24.44,379.83L16.3,420L0,420Z" style="fill: rgb(239, 85, 59); fill-opacity: 0.5; stroke-width: 0;"/></g></g><g class="errorbars"/><g class="lines"><path class="js-line" d="M0,420L16.3,420L24.44,379.83L48.89,379.83L57.04,420L65.19,420L73.33,397.24L81.48,393.22L89.63,393.22L97.78,402.59L105.93,402.59L114.07,406.61L122.22,402.59L130.37,401.26L138.52,405.27L146.67,405.27L154.81,411.97L220,411.97" style="vector-effect: none; fill: none; stroke: rgb(99, 110, 250); stroke-opacity: 1; stroke-width: 2px; opacity: 1;"/></g><g class="points"/><g class="text"/></g><g class="trace scatter tracecb992b" style="stroke-miterlimit: 2;"><g class="fills"><g><path class="js-fill" d="M0,339.66L8.15,350.38L16.3,275.4L24.44,302.17L32.59,339.66L40.74,326.28L48.89,323.6L57.04,366.44L65.19,366.44L73.33,366.44L81.48,381.17L89.63,381.17L97.78,389.2L105.93,390.54L114.07,398.58L122.22,387.87L130.37,389.2L138.52,393.22L146.67,393.22L154.81,383.85L162.96,388.54L171.11,389.87L179.26,395.23L187.41,394.56L195.56,394.69L203.7,389.2L211.85,392.55L220,401.26L220,411.97L211.85,403.26L203.7,399.92L195.56,405.41L187.41,405.27L179.26,405.94L171.11,400.59L162.96,399.25L154.81,394.56L146.67,399.92L138.52,399.92L130.37,395.9L122.22,394.56L114.07,398.58L105.93,390.54L97.78,389.2L89.63,381.17L81.48,383.85L73.33,369.12L65.19,369.12L57.04,369.12L48.89,336.99L40.74,339.66L32.59,345.02L24.44,345.02L16.3,390.54L8.15,393.22L0,387.87Z" style="fill: rgb(0, 204, 150); fill-opacity: 0.5; stroke-width: 0;"/></g></g><g class="errorbars"/><g class="lines"><path class="js-line" d="M0,387.87L8.15,393.22L16.3,390.54L24.44,345.02L32.59,345.02L40.74,339.66L48.89,336.99L57.04,369.12L65.19,369.12L73.33,369.12L81.48,383.85L89.63,381.17L97.78,389.2L105.93,390.54L114.07,398.58L122.22,394.56L130.37,395.9L138.52,399.92L146.67,399.92L154.81,394.56L162.96,399.25L171.11,400.59L179.26,405.94L187.41,405.27L195.56,405.41L203.7,399.92L211.85,403.26L220,411.97" style="vector-effect: none; fill: none; stroke: rgb(239, 85, 59); stroke-opacity: 1; stroke-width: 2px; opacity: 1;"/></g><g class="points"/><g class="text"/></g><g class="trace scatter tracee90778" style="stroke-miterlimit: 2;"><g class="fills"><g><path class="js-fill" d="M0,339.66L8.15,350.38L16.3,275.4L24.44,267.36L32.59,294.14L40.74,267.36L48.89,278.07L57.04,312.89L65.19,320.92L73.33,357.07L81.48,365.1L89.63,367.78L97.78,377.15L105.93,374.48L114.07,398.58L122.22,382.51L130.37,382.51L138.52,386.53L146.67,387.87L154.81,377.15L162.96,379.16L171.11,379.16L179.26,389.87L187.41,387.87L195.56,388L203.7,382.51L211.85,387.2L220,401.26L220,401.26L211.85,392.55L203.7,389.2L195.56,394.69L187.41,394.56L179.26,395.23L171.11,389.87L162.96,388.54L154.81,383.85L146.67,393.22L138.52,393.22L130.37,389.2L122.22,387.87L114.07,398.58L105.93,390.54L97.78,389.2L89.63,381.17L81.48,381.17L73.33,366.44L65.19,366.44L57.04,366.44L48.89,323.6L40.74,326.28L32.59,339.66L24.44,302.17L16.3,275.4L8.15,350.38L0,339.66Z" style="fill: rgb(171, 99, 250); fill-opacity: 0.5; stroke-width: 0;"/></g></g><g class="errorbars"/><g class="lines"><path class="js-line" d="M0,339.66L8.15,350.38L16.3,275.4L24.44,302.17L32.59,339.66L40.74,326.28L48.89,323.6L57.04,366.44L65.19,366.44L73.33,366.44L81.48,381.17L89.63,381.17L97.78,389.2L105.93,390.54L114.07,398.58L122.22,387.87L130.37,389.2L138.52,393.22L146.67,393.22L154.81,383.85L162.96,388.54L171.11,389.87L179.26,395.23L187.41,394.56L195.56,394.69L203.7,389.2L211.85,392.55L220,401.26" style="vector-effect: none; fill: none; stroke: rgb(0, 204, 150); stroke-opacity: 1; stroke-width: 2px; opacity: 1;"/></g><g class="points"/><g class="text"/></g><g class="trace scatter trace8a797e" style="stroke-miterlimit: 2;"><g class="fills"><g><path class="js-fill" d="M0,315.56L8.15,320.92L16.3,248.62L24.44,240.58L32.59,267.36L40.74,240.58L48.89,266.02L57.04,296.82L65.19,283.43L73.33,335.65L81.48,343.68L97.78,359.75L105.93,357.07L114.07,379.83L122.22,366.44L130.37,364.43L138.52,368.45L146.67,373.14L154.81,362.43L162.96,364.43L171.11,368.45L179.26,379.16L187.41,381.17L195.56,381.31L203.7,375.82L211.85,380.5L220,394.56L220,401.26L211.85,387.2L203.7,382.51L195.56,388L187.41,387.87L179.26,389.87L171.11,379.16L162.96,379.16L154.81,377.15L146.67,387.87L138.52,386.53L130.37,382.51L122.22,382.51L114.07,398.58L105.93,374.48L97.78,377.15L89.63,367.78L81.48,365.1L73.33,357.07L65.19,320.92L57.04,312.89L48.89,278.07L40.74,267.36L32.59,294.14L24.44,267.36L16.3,275.4L8.15,350.38L0,339.66Z" style="fill: rgb(255, 161, 90); fill-opacity: 0.5; stroke-width: 0;"/></g></g><g class="errorbars"/><g class="lines"><path class="js-line" d="M0,339.66L8.15,350.38L16.3,275.4L24.44,267.36L32.59,294.14L40.74,267.36L48.89,278.07L57.04,312.89L65.19,320.92L73.33,357.07L81.48,365.1L89.63,367.78L97.78,377.15L105.93,374.48L114.07,398.58L122.22,382.51L130.37,382.51L138.52,386.53L146.67,387.87L154.81,377.15L162.96,379.16L171.11,379.16L179.26,389.87L187.41,387.87L195.56,388L203.7,382.51L211.85,387.2L220,401.26" style="vector-effect: none; fill: none; stroke: rgb(171, 99, 250); stroke-opacity: 1; stroke-width: 2px; opacity: 1;"/></g><g class="points"/><g class="text"/></g><g class="trace scatter tracecfb968" style="stroke-miterlimit: 2;"><g class="fills"><g><path class="js-fill" d="M0,315.56L8.15,187.03L16.3,248.62L24.44,240.58L32.59,253.97L40.74,216.48L48.89,239.24L57.04,270.04L65.19,278.07L73.33,331.63L81.48,338.33L89.63,339.66L97.78,346.36L105.93,343.68L114.07,362.43L122.22,349.04L130.37,347.03L138.52,351.05L146.67,357.07L154.81,345.02L162.96,347.03L171.11,351.05L179.26,361.76L187.41,363.77L195.56,363.9L203.7,358.41L211.85,363.1L220,389.2L220,394.56L211.85,380.5L203.7,375.82L195.56,381.31L187.41,381.17L179.26,379.16L171.11,368.45L162.96,364.43L154.81,362.43L146.67,373.14L138.52,368.45L130.37,364.43L122.22,366.44L114.07,379.83L105.93,357.07L97.78,359.75L81.48,343.68L73.33,335.65L65.19,283.43L57.04,296.82L48.89,266.02L40.74,240.58L32.59,267.36L24.44,240.58L16.3,248.62L8.15,320.92L0,315.56Z" style="fill: rgb(25, 211, 243); fill-opacity: 0.5; stroke-width: 0;"/></g></g><g class="errorbars"/><g class="lines"><path class="js-line" d="M0,315.56L8.15,320.92L16.3,248.62L24.44,240.58L32.59,267.36L40.74,240.58L48.89,266.02L57.04,296.82L65.19,283.43L73.33,335.65L81.48,343.68L97.78,359.75L105.93,357.07L114.07,379.83L122.22,366.44L130.37,364.43L138.52,368.45L146.67,373.14L154.81,362.43L162.96,364.43L171.11,368.45L179.26,379.16L187.41,381.17L195.56,381.31L203.7,375.82L211.85,380.5L220,394.56" style="vector-effect: none; fill: none; stroke: rgb(255, 161, 90); stroke-opacity: 1; stroke-width: 2px; opacity: 1;"/></g><g class="points"/><g class="text"/></g><g class="trace scatter tracea6041e" style="stroke-miterlimit: 2;"><g class="fills"><g><path class="js-fill" d="M0,296.82L8.15,170.96L16.3,232.55L24.44,221.84L32.59,235.23L40.74,197.74L48.89,220.5L57.04,243.26L65.19,237.91L73.33,286.11L81.48,278.07L89.63,283.43L97.78,298.16L105.93,279.41L114.07,310.21L122.22,307.53L130.37,309.54L138.52,313.56L146.67,332.97L154.81,345.02L162.96,347.03L171.11,351.05L179.26,361.76L187.41,363.77L195.56,363.9L203.7,358.41L211.85,363.1L220,389.2L220,389.2L211.85,363.1L203.7,358.41L195.56,363.9L187.41,363.77L179.26,361.76L171.11,351.05L162.96,347.03L154.81,345.02L146.67,357.07L138.52,351.05L130.37,347.03L122.22,349.04L114.07,362.43L105.93,343.68L97.78,346.36L89.63,339.66L81.48,338.33L73.33,331.63L65.19,278.07L57.04,270.04L48.89,239.24L40.74,216.48L32.59,253.97L24.44,240.58L16.3,248.62L8.15,187.03L0,315.56Z" style="fill: rgb(255, 102, 146); fill-opacity: 0.5; stroke-width: 0;"/></g></g><g class="errorbars"/><g class="lines"><path class="js-line" d="M0,315.56L8.15,187.03L16.3,248.62L24.44,240.58L32.59,253.97L40.74,216.48L48.89,239.24L57.04,270.04L65.19,278.07L73.33,331.63L81.48,338.33L89.63,339.66L97.78,346.36L105.93,343.68L114.07,362.43L122.22,349.04L130.37,347.03L138.52,351.05L146.67,357.07L154.81,345.02L162.96,347.03L171.11,351.05L179.26,361.76L187.41,363.77L195.56,363.9L203.7,358.41L211.85,363.1L220,389.2" style="vector-effect: none; fill: none; stroke: rgb(25, 211, 243); stroke-opacity: 1; stroke-width: 2px; opacity: 1;"/></g><g class="points"/><g class="text"/></g><g class="trace scatter trace0a25c3" style="stroke-miterlimit: 2;"><g class="fills"><g><path class="js-fill" d="M0,267.36L8.15,141.5L16.3,208.45L24.44,181.67L32.59,195.06L40.74,144.18L48.89,164.27L57.04,187.03L65.19,195.06L73.33,267.36L81.48,263.35L97.78,291.46L105.93,278.07L114.07,310.21L122.22,307.53L130.37,309.54L138.52,313.56L146.67,332.97L154.81,345.02L162.96,347.03L171.11,351.05L179.26,361.76L187.41,363.77L195.56,363.9L203.7,358.41L211.85,363.1L220,389.2L220,389.2L211.85,363.1L203.7,358.41L195.56,363.9L187.41,363.77L179.26,361.76L171.11,351.05L162.96,347.03L154.81,345.02L146.67,332.97L138.52,313.56L130.37,309.54L122.22,307.53L114.07,310.21L105.93,279.41L97.78,298.16L89.63,283.43L81.48,278.07L73.33,286.11L65.19,237.91L57.04,243.26L48.89,220.5L40.74,197.74L32.59,235.23L24.44,221.84L16.3,232.55L8.15,170.96L0,296.82Z" style="fill: rgb(182, 232, 128); fill-opacity: 0.5; stroke-width: 0;"/></g></g><g class="errorbars"/><g class="lines"><path class="js-line" d="M0,296.82L8.15,170.96L16.3,232.55L24.44,221.84L32.59,235.23L40.74,197.74L48.89,220.5L57.04,243.26L65.19,237.91L73.33,286.11L81.48,278.07L89.63,283.43L97.78,298.16L105.93,279.41L114.07,310.21L122.22,307.53L130.37,309.54L138.52,313.56L146.67,332.97L154.81,345.02L162.96,347.03L171.11,351.05L179.26,361.76L187.41,363.77L195.56,363.9L203.7,358.41L211.85,363.1L220,389.2" style="vector-effect: none; fill: none; stroke: rgb(255, 102, 146); stroke-opacity: 1; stroke-width: 2px; opacity: 1;"/></g><g class="points"/><g class="text"/></g><g class="trace scatter trace6a0717" style="stroke-miterlimit: 2;"><g class="fills"><g><path class="js-fill" d="M0,203.09L8.15,58.49L16.3,149.54L24.44,146.86L32.59,157.57L40.74,98.66L48.89,121.42L57.04,146.86L65.19,154.89L73.33,252.63L81.48,248.62L89.63,276.73L97.78,291.46L105.93,278.07L114.07,310.21L122.22,307.53L130.37,309.54L138.52,313.56L146.67,332.97L154.81,345.02L162.96,347.03L171.11,351.05L179.26,361.76L187.41,363.77L195.56,363.9L203.7,358.41L211.85,363.1L220,389.2L220,389.2L211.85,363.1L203.7,358.41L195.56,363.9L187.41,363.77L179.26,361.76L171.11,351.05L162.96,347.03L154.81,345.02L146.67,332.97L138.52,313.56L130.37,309.54L122.22,307.53L114.07,310.21L105.93,278.07L97.78,291.46L81.48,263.35L73.33,267.36L65.19,195.06L57.04,187.03L48.89,164.27L40.74,144.18L32.59,195.06L24.44,181.67L16.3,208.45L8.15,141.5L0,267.36Z" style="fill: rgb(255, 151, 255); fill-opacity: 0.5; stroke-width: 0;"/></g></g><g class="errorbars"/><g class="lines"><path class="js-line" d="M0,267.36L8.15,141.5L16.3,208.45L24.44,181.67L32.59,195.06L40.74,144.18L48.89,164.27L57.04,187.03L65.19,195.06L73.33,267.36L81.48,263.35L97.78,291.46L105.93,278.07L114.07,310.21L122.22,307.53L130.37,309.54L138.52,313.56L146.67,332.97L154.81,345.02L162.96,347.03L171.11,351.05L179.26,361.76L187.41,363.77L195.56,363.9L203.7,358.41L211.85,363.1L220,389.2" style="vector-effect: none; fill: none; stroke: rgb(182, 232, 128); stroke-opacity: 1; stroke-width: 2px; opacity: 1;"/></g><g class="points"/><g class="text"/></g><g class="trace scatter trace52617e" style="stroke-miterlimit: 2;"><g class="fills"><g><path class="js-fill" d="M0,162.93L8.15,21L16.3,112.05L32.59,128.11L40.74,69.2L57.04,128.11L65.19,130.79L73.33,240.58L81.48,235.23L89.63,263.35L97.78,279.41L105.93,267.36L114.07,298.16L122.22,295.48L130.37,297.49L138.52,301.51L146.67,326.28L154.81,338.33L162.96,341.67L171.11,334.98L179.26,348.37L195.56,354.53L203.7,351.71L211.85,356.4L220,383.85L220,389.2L211.85,363.1L203.7,358.41L195.56,363.9L187.41,363.77L179.26,361.76L171.11,351.05L162.96,347.03L154.81,345.02L146.67,332.97L138.52,313.56L130.37,309.54L122.22,307.53L114.07,310.21L105.93,278.07L97.78,291.46L89.63,276.73L81.48,248.62L73.33,252.63L65.19,154.89L57.04,146.86L48.89,121.42L40.74,98.66L32.59,157.57L24.44,146.86L16.3,149.54L8.15,58.49L0,203.09Z" style="fill: rgb(254, 203, 82); fill-opacity: 0.5; stroke-width: 0;"/></g></g><g class="errorbars"/><g class="lines"><path class="js-line" d="M0,203.09L8.15,58.49L16.3,149.54L24.44,146.86L32.59,157.57L40.74,98.66L48.89,121.42L57.04,146.86L65.19,154.89L73.33,252.63L81.48,248.62L89.63,276.73L97.78,291.46L105.93,278.07L114.07,310.21L122.22,307.53L130.37,309.54L138.52,313.56L146.67,332.97L154.81,345.02L162.96,347.03L171.11,351.05L179.26,361.76L187.41,363.77L195.56,363.9L203.7,358.41L211.85,363.1L220,389.2" style="vector-effect: none; fill: none; stroke: rgb(255, 151, 255); stroke-opacity: 1; stroke-width: 2px; opacity: 1;"/></g><g class="points"/><g class="text"/></g><g class="trace scatter tracefa92b1" style="stroke-miterlimit: 2;"><g class="fills"/><g class="errorbars"/><g class="lines"><path class="js-line" d="M0,162.93L8.15,21L16.3,112.05L32.59,128.11L40.74,69.2L57.04,128.11L65.19,130.79L73.33,240.58L81.48,235.23L89.63,263.35L97.78,279.41L105.93,267.36L114.07,298.16L122.22,295.48L130.37,297.49L138.52,301.51L146.67,326.28L154.81,338.33L162.96,341.67L171.11,334.98L179.26,348.37L195.56,354.53L203.7,351.71L211.85,356.4L220,383.85" style="vector-effect: none; fill: none; stroke: rgb(254, 203, 82); stroke-opacity: 1; stroke-width: 2px; opacity: 1;"/></g><g class="points"/><g class="text"/></g></g></g></g><g class="zerolinelayer-above"/><path class="xlines-above crisp" d="M0,0" style="fill: none;"/><path class="ylines-above crisp" d="M0,0" style="fill: none;"/><g class="overlines-above"/><g class="xaxislayer-above"><g class="xtick"><text text-anchor="middle" x="0" y="533" transform="translate(88.15,0)" style="font-family: 'Open Sans', verdana, arial, sans-serif; font-size: 12px; fill: rgb(42, 63, 95); fill-opacity: 1; white-space: pre;">2000</text></g><g class="xtick"><text text-anchor="middle" x="0" y="533" style="font-family: 'Open Sans', verdana, arial, sans-serif; font-size: 12px; fill: rgb(42, 63, 95); fill-opacity: 1; white-space: pre;" transform="translate(169.63,0)">2010</text></g><g class="xtick"><text text-anchor="middle" x="0" y="533" style="font-family: 'Open Sans', verdana, arial, sans-serif; font-size: 12px; fill: rgb(42, 63, 95); fill-opacity: 1; white-space: pre;" transform="translate(251.11,0)">2020</text></g></g><g class="yaxislayer-above"><g class="ytick"><text text-anchor="end" x="79" y="4.199999999999999" transform="translate(0,520)" style="font-family: 'Open Sans', verdana, arial, sans-serif; font-size: 12px; fill: rgb(42, 63, 95); fill-opacity: 1; white-space: pre;">0</text></g><g class="ytick"><text text-anchor="end" x="79" y="4.199999999999999" style="font-family: 'Open Sans', verdana, arial, sans-serif; font-size: 12px; fill: rgb(42, 63, 95); fill-opacity: 1; white-space: pre;" transform="translate(0,453.05)">0.5M</text></g><g class="ytick"><text text-anchor="end" x="79" y="4.199999999999999" style="font-family: 'Open Sans', verdana, arial, sans-serif; font-size: 12px; fill: rgb(42, 63, 95); fill-opacity: 1; white-space: pre;" transform="translate(0,386.11)">1M</text></g><g class="ytick"><text text-anchor="end" x="79" y="4.199999999999999" style="font-family: 'Open Sans', verdana, arial, sans-serif; font-size: 12px; fill: rgb(42, 63, 95); fill-opacity: 1; white-space: pre;" transform="translate(0,319.15999999999997)">1.5M</text></g><g class="ytick"><text text-anchor="end" x="79" y="4.199999999999999" style="font-family: 'Open Sans', verdana, arial, sans-serif; font-size: 12px; fill: rgb(42, 63, 95); fill-opacity: 1; white-space: pre;" transform="translate(0,252.21)">2M</text></g><g class="ytick"><text text-anchor="end" x="79" y="4.199999999999999" style="font-family: 'Open Sans', verdana, arial, sans-serif; font-size: 12px; fill: rgb(42, 63, 95); fill-opacity: 1; white-space: pre;" transform="translate(0,185.26999999999998)">2.5M</text></g><g class="ytick"><text text-anchor="end" x="79" y="4.199999999999999" style="font-family: 'Open Sans', verdana, arial, sans-serif; font-size: 12px; fill: rgb(42, 63, 95); fill-opacity: 1; white-space: pre;" transform="translate(0,118.32)">3M</text></g></g><g class="overaxes-above"/></g></g><g class="polarlayer"/><g class="smithlayer"/><g class="ternarylayer"/><g class="geolayer"/><g class="funnelarealayer"/><g class="pielayer"/><g class="iciclelayer"/><g class="treemaplayer"/><g class="sunburstlayer"/><g class="glimages"/><defs id="topdefs-d4b975"><g class="clips"/><clipPath id="legendd4b975"><rect width="384" height="219" x="0" y="0"/></clipPath></defs><g class="layer-above"><g class="imagelayer"/><g class="shapelayer"/></g><g class="infolayer"><g class="legend" pointer-events="all" transform="translate(304.4,100)"><rect class="bg" shape-rendering="crispEdges" style="stroke: rgb(68, 68, 68); stroke-opacity: 1; fill: rgb(255, 255, 255); fill-opacity: 1; stroke-width: 0px;" width="384" height="219" x="0" y="0"/><g class="scrollbox" transform="" clip-path="url(#legendd4b975)"><text class="legendtitletext" text-anchor="start" x="2" y="18.2" style="font-family: 'Open Sans', verdana, arial, sans-serif; font-size: 14px; fill: rgb(42, 63, 95); fill-opacity: 1; white-space: pre; opacity: 1;">Firm</text><g class="groups" transform=""><g class="traces" transform="translate(0,32.7)" style="opacity: 1;"><text class="legendtext" text-anchor="start" x="40" y="4.680000000000001" style="font-family: 'Open Sans', verdana, arial, sans-serif; font-size: 12px; fill: rgb(42, 63, 95); fill-opacity: 1; white-space: pre;">AKIN GUMP STRAUSS HAUER &amp; FELD</text><g class="layers"><g class="legendfill"><path class="js-fill" d="M5,-2h30v6h-30z" style="stroke-width: 0; fill: rgb(99, 110, 250); fill-opacity: 0.5;"/></g><g class="legendlines"><path class="js-line" d="M5,-2h30" style="fill: none; stroke: rgb(99, 110, 250); stroke-opacity: 1; stroke-width: 2px;"/></g><g class="legendsymbols"><g class="legendpoints"/></g></g><rect class="legendtoggle" x="0" y="-9.5" width="378.25" height="19" style="fill: rgb(0, 0, 0); fill-opacity: 0;"/></g></g><g class="groups" transform=""><g class="traces" transform="translate(0,51.7)" style="opacity: 1;"><text class="legendtext" text-anchor="start" x="40" y="4.680000000000001" style="font-family: 'Open Sans', verdana, arial, sans-serif; font-size: 12px; fill: rgb(42, 63, 95); fill-opacity: 1; white-space: pre;">BAKER DONELSON BEARMAN CALDWELL &amp; BERKOWITZ</text><g class="layers"><g class="legendfill"><path class="js-fill" d="M5,-2h30v6h-30z" style="stroke-width: 0; fill: rgb(239, 85, 59); fill-opacity: 0.5;"/></g><g class="legendlines"><path class="js-line" d="M5,-2h30" style="fill: none; stroke: rgb(239, 85, 59); stroke-opacity: 1; stroke-width: 2px;"/></g><g class="legendsymbols"><g class="legendpoints"/></g></g><rect class="legendtoggle" x="0" y="-9.5" width="378.25" height="19" style="fill: rgb(0, 0, 0); fill-opacity: 0;"/></g></g><g class="groups" transform=""><g class="traces" transform="translate(0,70.7)" style="opacity: 1;"><text class="legendtext" text-anchor="start" x="40" y="4.680000000000001" style="font-family: 'Open Sans', verdana, arial, sans-serif; font-size: 12px; fill: rgb(42, 63, 95); fill-opacity: 1; white-space: pre;">CASSIDY &amp; ASSOCIATES, INC.</text><g class="layers"><g class="legendfill"><path class="js-fill" d="M5,-2h30v6h-30z" style="stroke-width: 0; fill: rgb(0, 204, 150); fill-opacity: 0.5;"/></g><g class="legendlines"><path class="js-line" d="M5,-2h30" style="fill: none; stroke: rgb(0, 204, 150); stroke-opacity: 1; stroke-width: 2px;"/></g><g class="legendsymbols"><g class="legendpoints"/></g></g><rect class="legendtoggle" x="0" y="-9.5" width="378.25" height="19" style="fill: rgb(0, 0, 0); fill-opacity: 0;"/></g></g><g class="groups" transform=""><g class="traces" transform="translate(0,89.7)" style="opacity: 1;"><text class="legendtext" text-anchor="start" x="40" y="4.680000000000001" style="font-family: 'Open Sans', verdana, arial, sans-serif; font-size: 12px; fill: rgb(42, 63, 95); fill-opacity: 1; white-space: pre;">DLA PIPER LLP (US)</text><g class="layers"><g class="legendfill"><path class="js-fill" d="M5,-2h30v6h-30z" style="stroke-width: 0; fill: rgb(171, 99, 250); fill-opacity: 0.5;"/></g><g class="legendlines"><path class="js-line" d="M5,-2h30" style="fill: none; stroke: rgb(171, 99, 250); stroke-opacity: 1; stroke-width: 2px;"/></g><g class="legendsymbols"><g class="legendpoints"/></g></g><rect class="legendtoggle" x="0" y="-9.5" width="378.25" height="19" style="fill: rgb(0, 0, 0); fill-opacity: 0;"/></g></g><g class="groups" transform=""><g class="traces" transform="translate(0,108.7)" style="opacity: 1;"><text class="legendtext" text-anchor="start" x="40" y="4.680000000000001" style="font-family: 'Open Sans', verdana, arial, sans-serif; font-size: 12px; fill: rgb(42, 63, 95); fill-opacity: 1; white-space: pre;">ERVIN GRAVES STRATEGY GROUP, LLC</text><g class="layers"><g class="legendfill"><path class="js-fill" d="M5,-2h30v6h-30z" style="stroke-width: 0; fill: rgb(255, 161, 90); fill-opacity: 0.5;"/></g><g class="legendlines"><path class="js-line" d="M5,-2h30" style="fill: none; stroke: rgb(255, 161, 90); stroke-opacity: 1; stroke-width: 2px;"/></g><g class="legendsymbols"><g class="legendpoints"/></g></g><rect class="legendtoggle" x="0" y="-9.5" width="378.25" height="19" style="fill: rgb(0, 0, 0); fill-opacity: 0;"/></g></g><g class="groups" transform=""><g class="traces" transform="translate(0,127.7)" style="opacity: 1;"><text class="legendtext" text-anchor="start" x="40" y="4.680000000000001" style="font-family: 'Open Sans', verdana, arial, sans-serif; font-size: 12px; fill: rgb(42, 63, 95); fill-opacity: 1; white-space: pre;">INNOVATIVE FEDERAL STRATEGIES, LLC</text><g class="layers"><g class="legendfill"><path class="js-fill" d="M5,-2h30v6h-30z" style="stroke-width: 0; fill: rgb(25, 211, 243); fill-opacity: 0.5;"/></g><g class="legendlines"><path class="js-line" d="M5,-2h30" style="fill: none; stroke: rgb(25, 211, 243); stroke-opacity: 1; stroke-width: 2px;"/></g><g class="legendsymbols"><g class="legendpoints"/></g></g><rect class="legendtoggle" x="0" y="-9.5" width="378.25" height="19" style="fill: rgb(0, 0, 0); fill-opacity: 0;"/></g></g><g class="groups" transform=""><g class="traces" transform="translate(0,146.7)" style="opacity: 1;"><text class="legendtext" text-anchor="start" x="40" y="4.680000000000001" style="font-family: 'Open Sans', verdana, arial, sans-serif; font-size: 12px; fill: rgb(42, 63, 95); fill-opacity: 1; white-space: pre;">PODESTA GROUP, INC.</text><g class="layers"><g class="legendfill"><path class="js-fill" d="M5,-2h30v6h-30z" style="stroke-width: 0; fill: rgb(255, 102, 146); fill-opacity: 0.5;"/></g><g class="legendlines"><path class="js-line" d="M5,-2h30" style="fill: none; stroke: rgb(255, 102, 146); stroke-opacity: 1; stroke-width: 2px;"/></g><g class="legendsymbols"><g class="legendpoints"/></g></g><rect class="legendtoggle" x="0" y="-9.5" width="378.25" height="19" style="fill: rgb(0, 0, 0); fill-opacity: 0;"/></g></g><g class="groups" transform=""><g class="traces" transform="translate(0,165.7)" style="opacity: 1;"><text class="legendtext" text-anchor="start" x="40" y="4.680000000000001" style="font-family: 'Open Sans', verdana, arial, sans-serif; font-size: 12px; fill: rgb(42, 63, 95); fill-opacity: 1; white-space: pre;">ROBISON INTERNATIONAL, INC.</text><g class="layers"><g class="legendfill"><path class="js-fill" d="M5,-2h30v6h-30z" style="stroke-width: 0; fill: rgb(182, 232, 128); fill-opacity: 0.5;"/></g><g class="legendlines"><path class="js-line" d="M5,-2h30" style="fill: none; stroke: rgb(182, 232, 128); stroke-opacity: 1; stroke-width: 2px;"/></g><g class="legendsymbols"><g class="legendpoints"/></g></g><rect class="legendtoggle" x="0" y="-9.5" width="378.25" height="19" style="fill: rgb(0, 0, 0); fill-opacity: 0;"/></g></g><g class="groups" transform=""><g class="traces" transform="translate(0,184.7)" style="opacity: 1;"><text class="legendtext" text-anchor="start" x="40" y="4.680000000000001" style="font-family: 'Open Sans', verdana, arial, sans-serif; font-size: 12px; fill: rgb(42, 63, 95); fill-opacity: 1; white-space: pre;">THE PMA GROUP</text><g class="layers"><g class="legendfill"><path class="js-fill" d="M5,-2h30v6h-30z" style="stroke-width: 0; fill: rgb(255, 151, 255); fill-opacity: 0.5;"/></g><g class="legendlines"><path class="js-line" d="M5,-2h30" style="fill: none; stroke: rgb(255, 151, 255); stroke-opacity: 1; stroke-width: 2px;"/></g><g class="legendsymbols"><g class="legendpoints"/></g></g><rect class="legendtoggle" x="0" y="-9.5" width="378.25" height="19" style="fill: rgb(0, 0, 0); fill-opacity: 0;"/></g></g><g class="groups" transform=""><g class="traces" transform="translate(0,203.7)" style="opacity: 1;"><text class="legendtext" text-anchor="start" x="40" y="4.680000000000001" style="font-family: 'Open Sans', verdana, arial, sans-serif; font-size: 12px; fill: rgb(42, 63, 95); fill-opacity: 1; white-space: pre;">VAN SCOYOC ASSOCIATES</text><g class="layers"><g class="legendfill"><path class="js-fill" d="M5,-2h30v6h-30z" style="stroke-width: 0; fill: rgb(254, 203, 82); fill-opacity: 0.5;"/></g><g class="legendlines"><path class="js-line" d="M5,-2h30" style="fill: none; stroke: rgb(254, 203, 82); stroke-opacity: 1; stroke-width: 2px;"/></g><g class="legendsymbols"><g class="legendpoints"/></g></g><rect class="legendtoggle" x="0" y="-9.5" width="378.25" height="19" style="fill: rgb(0, 0, 0); fill-opacity: 0;"/></g></g></g><rect class="scrollbar" rx="20" ry="3" width="0" height="0" style="fill: rgb(128, 139, 164); fill-opacity: 1;" x="0" y="0"/></g><g class="g-gtitle"><text class="gtitle" x="35" y="50" text-anchor="start" dy="0em" style="opacity: 1; font-family: 'Open Sans', verdana, arial, sans-serif; font-size: 17px; fill: rgb(42, 63, 95); fill-opacity: 1; white-space: pre;">Top Lobbying Firm Income Over Time</text></g><g class="g-xtitle"><text class="xtitle" x="190" y="560.3" text-anchor="middle" style="opacity: 1; font-family: 'Open Sans', verdana, arial, sans-serif; font-size: 14px; fill: rgb(42, 63, 95); fill-opacity: 1; white-space: pre;">Year</text></g><g class="g-ytitle"><text class="ytitle" transform="rotate(-90,29.85,310)" x="29.85" y="310" text-anchor="middle" style="opacity: 1; font-family: 'Open Sans', verdana, arial, sans-serif; font-size: 14px; fill: rgb(42, 63, 95); fill-opacity: 1; white-space: pre;">Income</text></g></g></svg>