<svg class="main-svg" xmlns="http://www.w3.org/2000/svg" xmlns:xlink="http://www.w3.org/1999/xlink" width="1400" height="1400" style="" viewBox="0 0 700 700"><rect x="0" y="0" width="700" height="700" style="fill: rgb(255, 255, 255); fill-opacity: 1;"/><defs id="defs-bac3b9"><g class="clips"/><g class="gradients"/><g class="patterns"/></defs><g class="bglayer"/><g class="layer-below"><g class="imagelayer"/><g class="shapelayer"/></g><g class="cartesianlayer"/><g class="polarlayer"/><g class="smithlayer"/><g class="ternarylayer"/><g class="geolayer"/><g class="funnelarealayer"/><g class="pielayer"/><g class="iciclelayer"/><g class="treemaplayer"/><g class="sunburstlayer"/><g class="glimages"/><g class="sankey" transform="translate(80,100)matrix(1 0 0 1 0 0)" style="box-sizing: content-box; position: absolute; left: 0px; shape-rendering: geometricprecision; pointer-events: none;"><g class="sankey-links" style="fill: none;"><path class="sankey-link" d="M20,75.18168045607607C270,75.18168045607607 270,94.22575599582885 520,94.22575599582885L520,99.81751824817505C270,99.81751824817505 270,80.77344270842227 20,80.77344270842227Z" style="stroke: rgb(68, 68, 68); stroke-opacity: 1; fill: rgb(100, 149, 237); fill-opacity: 0.3; stroke-width: 0; opacity: 1;"/><path class="sankey-link" d="M20,65.26901100873509C270,65.26901100873509 270,48.76498957247122 520,48.76498957247122L520,58.67765901981221C270,58.67765901981221 270,75.18168045607608 20,75.18168045607608Z" style="stroke: rgb(68, 68, 68); stroke-opacity: 1; fill: rgb(100, 149, 237); fill-opacity: 0.3; stroke-width: 0; opacity: 1;"/><path class="sankey-link" d="M20,385.0819153205856C270,385.0819153205856 270,348.04825990615217 520,348.04825990615217L520,352.68688086548485C270,352.68688086548485 270,389.7205362799183 20,389.7205362799183Z" style="stroke: rgb(68, 68, 68); stroke-opacity: 1; fill: rgb(100, 149, 237); fill-opacity: 0.3; stroke-width: 0; opacity: 1;"/><path class="sankey-link" d="M20,389.72053627991824C270,389.72053627991824 270,384.168241657977 520,384.168241657977L520,388.95936522419174C270,388.95936522419174 270,394.511659846133 20,394.511659846133Z" style="stroke: rgb(68, 68, 68); stroke-opacity: 1; fill: rgb(100, 149, 237); fill-opacity: 0.3; stroke-width: 0; opacity: 1;"/><path class="sankey-link" d="M20,394.51165984613306C270,394.51165984613306 270,416.2469043274243 520,416.2469043274243L520,422.47409410844625C270,422.47409410844625 270,400.738849627155 20,400.738849627155Z" style="stroke: rgb(68, 68, 68); stroke-opacity: 1; fill: rgb(100, 149, 237); fill-opacity: 0.3; stroke-width: 0; opacity: 1;"/><path class="sankey-link" d="M20,400.73884962715493C270,400.73884962715493 270,450.14288972888414 520,450.14288972888414L520,457.32322080291965C270,457.32322080291965 270,407.91918070119044 20,407.91918070119044Z" style="stroke: rgb(68, 68, 68); stroke-opacity: 1; fill: rgb(100, 149, 237); fill-opacity: 0.3; stroke-width: 0; opacity: 1;"/><path class="sankey-link" d="M20,381.2693501485314C270,381.2693501485314 270,313.2690302398331 520,313.2690302398331L520,317.0815954118873C270,317.0815954118873 270,385.08191532058555 20,385.08191532058555Z" style="stroke: rgb(68, 68, 68); stroke-opacity: 1; fill: rgb(100, 149, 237); fill-opacity: 0.3; stroke-width: 0; opacity: 1;"/><path class="sankey-link" d="M20,199.2491940737276C270,199.2491940737276 270,342.0815954118873 520,342.0815954118873L520,343.5113073514076C270,343.5113073514076 270,200.67890601324797 20,200.67890601324797Z" style="stroke: rgb(68, 68, 68); stroke-opacity: 1; fill: rgb(100, 149, 237); fill-opacity: 0.3; stroke-width: 0; opacity: 1;"/><path class="sankey-link" d="M20,164.80902201950443C270,164.80902201950443 270,99.81751824817505 520,99.81751824817505L520,105.40928050052125C270,105.40928050052125 270,170.40078427185063 20,170.40078427185063Z" style="stroke: rgb(68, 68, 68); stroke-opacity: 1; fill: rgb(100, 149, 237); fill-opacity: 0.3; stroke-width: 0; opacity: 1;"/><path class="sankey-link" d="M20,191.17926445954615C270,191.17926445954615 270,263.9956986444212 520,263.9956986444212L520,269.52391814389983C270,269.52391814389983 270,196.70748395902476 20,196.70748395902476Z" style="stroke: rgb(68, 68, 68); stroke-opacity: 1; fill: rgb(100, 149, 237); fill-opacity: 0.3; stroke-width: 0; opacity: 1;"/><path class="sankey-link" d="M20,170.40078427185063C270,170.40078427185063 270,133.0780761209592 520,133.0780761209592L520,140.63966371220008C270,140.63966371220008 270,177.9623718630915 20,177.9623718630915Z" style="stroke: rgb(68, 68, 68); stroke-opacity: 1; fill: rgb(100, 149, 237); fill-opacity: 0.3; stroke-width: 0; opacity: 1;"/><path class="sankey-link" d="M20,159.0266315085555C270,159.0266315085555 270,58.677659019812204 520,58.677659019812204L520,64.46004953076111C270,64.46004953076111 270,164.80902201950443 20,164.80902201950443Z" style="stroke: rgb(68, 68, 68); stroke-opacity: 1; fill: rgb(100, 149, 237); fill-opacity: 0.3; stroke-width: 0; opacity: 1;"/><path class="sankey-link" d="M20,184.6343609141864C270,184.6343609141864 270,217.3276199165797 520,217.3276199165797L520,223.87252346193947C270,223.87252346193947 270,191.17926445954618 20,191.17926445954618Z" style="stroke: rgb(68, 68, 68); stroke-opacity: 1; fill: rgb(100, 149, 237); fill-opacity: 0.3; stroke-width: 0; opacity: 1;"/><path class="sankey-link" d="M20,177.9623718630915C270,177.9623718630915 270,179.23781282586012 520,179.23781282586012L520,185.90980187695502C270,185.90980187695502 270,184.6343609141864 20,184.6343609141864Z" style="stroke: rgb(68, 68, 68); stroke-opacity: 1; fill: rgb(100, 149, 237); fill-opacity: 0.3; stroke-width: 0; opacity: 1;"/><path class="sankey-link" d="M20,196.70748395902478C270,196.70748395902478 270,301.32299270072986 520,301.32299270072986L520,303.8647028154327C270,303.8647028154327 270,199.2491940737276 20,199.2491940737276Z" style="stroke: rgb(68, 68, 68); stroke-opacity: 1; fill: rgb(100, 149, 237); fill-opacity: 0.3; stroke-width: 0; opacity: 1;"/><path class="sankey-link" d="M20,468.2639370524392C270,468.2639370524392 270,485.72275808133475 520,485.72275808133475L520,493.1572601668405C270,493.1572601668405 270,475.69843913794494 20,475.69843913794494Z" style="stroke: rgb(68, 68, 68); stroke-opacity: 1; fill: rgb(100, 149, 237); fill-opacity: 0.3; stroke-width: 0; opacity: 1;"/><path class="sankey-link" d="M20,463.72063022240786C270,463.72063022240786 270,388.9593652241918 520,388.9593652241918L520,390.1031347758081C270,390.1031347758081 270,464.86439977402415 20,464.86439977402415Z" style="stroke: rgb(68, 68, 68); stroke-opacity: 1; fill: rgb(100, 149, 237); fill-opacity: 0.3; stroke-width: 0; opacity: 1;"/><path class="sankey-link" d="M20,464.86439977402415C270,464.86439977402415 270,457.3232208029196 520,457.3232208029196L520,460.7227580813346C270,460.7227580813346 270,468.26393705243913 20,468.26393705243913Z" style="stroke: rgb(68, 68, 68); stroke-opacity: 1; fill: rgb(100, 149, 237); fill-opacity: 0.3; stroke-width: 0; opacity: 1;"/><path class="sankey-link" d="M20,518.1572601668404C270,518.1572601668404 270,518.1572601668405 520,518.1572601668405L520,520.0000000000001C270,520.0000000000001 270,520 20,520Z" style="stroke: rgb(68, 68, 68); stroke-opacity: 1; fill: rgb(100, 149, 237); fill-opacity: 0.3; stroke-width: 0; opacity: 1;"/><path class="sankey-link" d="M20,432.9191807011904C270,432.9191807011904 270,422.4740941084462 520,422.4740941084462L520,425.1428897288842C270,425.1428897288842 270,435.5879763216284 20,435.5879763216284Z" style="stroke: rgb(68, 68, 68); stroke-opacity: 1; fill: rgb(100, 149, 237); fill-opacity: 0.3; stroke-width: 0; opacity: 1;"/><path class="sankey-link" d="M20,309.1382386514126C270,309.1382386514126 270,343.51130735140765 520,343.51130735140765L520,348.04825990615217C270,348.04825990615217 270,313.67519120615714 20,313.67519120615714Z" style="stroke: rgb(68, 68, 68); stroke-opacity: 1; fill: rgb(100, 149, 237); fill-opacity: 0.3; stroke-width: 0; opacity: 1;"/><path class="sankey-link" d="M20,270.5677876607974C270,270.5677876607974 270,105.40928050052125 520,105.40928050052125L520,108.0780761209592C270,108.0780761209592 270,273.2365832812354 20,273.2365832812354Z" style="stroke: rgb(68, 68, 68); stroke-opacity: 1; fill: rgb(100, 149, 237); fill-opacity: 0.3; stroke-width: 0; opacity: 1;"/><path class="sankey-link" d="M20,299.35265470980676C270,299.35265470980676 270,269.52391814389983 520,269.52391814389983L520,269.90517466110526C270,269.90517466110526 270,299.7339112270122 20,299.7339112270122Z" style="stroke: rgb(100, 149, 237); stroke-opacity: 0.3; fill: rgb(100, 149, 237); fill-opacity: 0.3; stroke-width: 1; opacity: 1;"/><path class="sankey-link" d="M20,268.53441956903515C270,268.53441956903515 270,18.046141814389863 520,18.046141814389863L520,20.07950990615212C270,20.07950990615212 270,270.56778766079736 20,270.56778766079736Z" style="stroke: rgb(68, 68, 68); stroke-opacity: 1; fill: rgb(100, 149, 237); fill-opacity: 0.3; stroke-width: 0; opacity: 1;"/><path class="sankey-link" d="M20,273.23658328123537C270,273.23658328123537 270,149.28147810218965 520,149.28147810218965L520,154.23781282586012C270,154.23781282586012 270,278.19291800490583 20,278.19291800490583Z" style="stroke: rgb(68, 68, 68); stroke-opacity: 1; fill: rgb(100, 149, 237); fill-opacity: 0.3; stroke-width: 0; opacity: 1;"/><path class="sankey-link" d="M20,313.67519120615714C270,313.67519120615714 270,380.60984749739305 520,380.60984749739305L520,384.168241657977C270,384.168241657977 270,317.23358536674107 20,317.23358536674107Z" style="stroke: rgb(68, 68, 68); stroke-opacity: 1; fill: rgb(100, 149, 237); fill-opacity: 0.3; stroke-width: 0; opacity: 1;"/><path class="sankey-link" d="M20,284.6107360445304C270,284.6107360445304 270,224.25377997914487 520,224.25377997914487L520,238.9956986444212C270,238.9956986444212 270,299.35265470980676 20,299.35265470980676Z" style="stroke: rgb(68, 68, 68); stroke-opacity: 1; fill: rgb(100, 149, 237); fill-opacity: 0.3; stroke-width: 0; opacity: 1;"/><path class="sankey-link" d="M20,278.19291800490583C270,278.19291800490583 270,185.90980187695502 520,185.90980187695502L520,192.3276199165796C270,192.3276199165796 270,284.6107360445305 20,284.6107360445305Z" style="stroke: rgb(68, 68, 68); stroke-opacity: 1; fill: rgb(100, 149, 237); fill-opacity: 0.3; stroke-width: 0; opacity: 1;"/><path class="sankey-link" d="M20,299.7339112270122C270,299.7339112270122 270,303.8647028154327 520,303.8647028154327L520,313.2690302398331C270,313.2690302398331 270,309.1382386514126 20,309.1382386514126Z" style="stroke: rgb(68, 68, 68); stroke-opacity: 1; fill: rgb(100, 149, 237); fill-opacity: 0.3; stroke-width: 0; opacity: 1;"/><path class="sankey-link" d="M20,230.4446124783157C270,230.4446124783157 270,140.63966371220008 520,140.63966371220008L520,149.28147810218965C270,149.28147810218965 270,239.08642686830527 20,239.08642686830527Z" style="stroke: rgb(68, 68, 68); stroke-opacity: 1; fill: rgb(100, 149, 237); fill-opacity: 0.3; stroke-width: 0; opacity: 1;"/><path class="sankey-link" d="M20,239.4676833855107C270,239.4676833855107 270,377.6868808654848 520,377.6868808654848L520,380.60984749739305C270,380.60984749739305 270,242.39065001741895 20,242.39065001741895Z" style="stroke: rgb(68, 68, 68); stroke-opacity: 1; fill: rgb(100, 149, 237); fill-opacity: 0.3; stroke-width: 0; opacity: 1;"/><path class="sankey-link" d="M20,225.6789060132479C270,225.6789060132479 270,64.46004953076111 520,64.46004953076111L520,69.22575599582889C270,69.22575599582889 270,230.44461247831566 20,230.44461247831566Z" style="stroke: rgb(68, 68, 68); stroke-opacity: 1; fill: rgb(100, 149, 237); fill-opacity: 0.3; stroke-width: 0; opacity: 1;"/><path class="sankey-link" d="M20,239.08642686830527C270,239.08642686830527 270,223.87252346193944 520,223.87252346193944L520,224.25377997914487C270,224.25377997914487 270,239.4676833855107 20,239.4676833855107Z" style="stroke: rgb(100, 149, 237); stroke-opacity: 0.3; fill: rgb(100, 149, 237); fill-opacity: 0.3; stroke-width: 1; opacity: 1;"/><path class="sankey-link" d="M20,242.39065001741892C270,242.39065001741892 270,415.10313477580803 520,415.10313477580803L520,416.2469043274243C270,416.2469043274243 270,243.5344195690352 20,243.5344195690352Z" style="stroke: rgb(68, 68, 68); stroke-opacity: 1; fill: rgb(100, 149, 237); fill-opacity: 0.3; stroke-width: 0; opacity: 1;"/><path class="sankey-link" d="M20,7.163847498917544C270,7.163847498917544 270,-1.2434497875801753e-13 520,-1.2434497875801753e-13L520,18.046141814389866C270,18.046141814389866 270,25.209989313307535 20,25.209989313307535Z" style="stroke: rgb(68, 68, 68); stroke-opacity: 1; fill: rgb(100, 149, 237); fill-opacity: 0.3; stroke-width: 0; opacity: 1;"/><path class="sankey-link" d="M20,25.209989313307535C270,25.209989313307535 270,45.07950990615214 520,45.07950990615214L520,48.76498957247122C270,48.76498957247122 270,28.895468979626617 20,28.895468979626617Z" style="stroke: rgb(68, 68, 68); stroke-opacity: 1; fill: rgb(100, 149, 237); fill-opacity: 0.3; stroke-width: 0; opacity: 1;"/><path class="sankey-link" d="M20,342.2335853667414C270,342.2335853667414 270,269.90517466110526 520,269.90517466110526L520,276.3229927007299C270,276.3229927007299 270,348.65140340636606 20,348.65140340636606Z" style="stroke: rgb(68, 68, 68); stroke-opacity: 1; fill: rgb(100, 149, 237); fill-opacity: 0.3; stroke-width: 0; opacity: 1;"/></g><g class="sankey-node-set" style="cursor: move;"><g class="sankey-node" transform="translate(0.000,268.534)" style="opacity: 1;"><rect class="node-rect" width="20" height="48.69916579770626" style="stroke-width: 0.5; stroke: rgb(68, 68, 68); stroke-opacity: 1; fill: rgb(70, 130, 180); fill-opacity: 1;"/><text class="node-label" data-notex="1" x="0" y="0" text-anchor="start" transform="translate(23.25,28.19958289885313)" style="cursor: default; font-family: 'Open Sans', verdana, arial, sans-serif; font-size: 11px; fill: rgb(42, 63, 95); fill-opacity: 1; text-shadow: rgb(255, 255, 255) 1px 1px 1px, rgb(255, 255, 255) -1px -1px 1px, rgb(255, 255, 255) 1px -1px 1px, rgb(255, 255, 255) -1px 1px 1px; white-space: pre;">LOCKHEED MARTIN CORPORATION</text></g><g class="sankey-node" transform="translate(0.000,159.027)" style="opacity: 1;"><rect class="node-rect" width="20" height="41.6522745046924" style="stroke-width: 0.5; stroke: rgb(68, 68, 68); stroke-opacity: 1; fill: rgb(70, 130, 180); fill-opacity: 1;"/><text class="node-label" data-notex="1" x="0" y="0" text-anchor="start" transform="translate(23.25,24.6761372523462)" style="cursor: default; font-family: 'Open Sans', verdana, arial, sans-serif; font-size: 11px; fill: rgb(42, 63, 95); fill-opacity: 1; text-shadow: rgb(255, 255, 255) 1px 1px 1px, rgb(255, 255, 255) -1px -1px 1px, rgb(255, 255, 255) 1px -1px 1px, rgb(255, 255, 255) -1px 1px 1px; white-space: pre;">GENERAL DYNAMICS</text></g><g class="sankey-node" transform="translate(0.000,381.269)" style="opacity: 1;"><rect class="node-rect" width="20" height="26.64983055265901" style="stroke-width: 0.5; stroke: rgb(68, 68, 68); stroke-opacity: 1; fill: rgb(70, 130, 180); fill-opacity: 1;"/><text class="node-label" data-notex="1" x="0" y="0" text-anchor="start" transform="translate(23.25,17.174915276329507)" style="cursor: default; font-family: 'Open Sans', verdana, arial, sans-serif; font-size: 11px; fill: rgb(42, 63, 95); fill-opacity: 1; text-shadow: rgb(255, 255, 255) 1px 1px 1px, rgb(255, 255, 255) -1px -1px 1px, rgb(255, 255, 255) 1px -1px 1px, rgb(255, 255, 255) -1px 1px 1px; white-space: pre;">BOEING COMPANY</text></g><g class="sankey-node" transform="translate(0.000,7.164)" style="opacity: 1;"><rect class="node-rect" width="20" height="21.73162148070905" style="stroke-width: 0.5; stroke: rgb(68, 68, 68); stroke-opacity: 1; fill: rgb(70, 130, 180); fill-opacity: 1;"/><text class="node-label" data-notex="1" x="0" y="0" text-anchor="start" transform="translate(23.25,14.715810740354526)" style="cursor: default; font-family: 'Open Sans', verdana, arial, sans-serif; font-size: 11px; fill: rgb(42, 63, 95); fill-opacity: 1; text-shadow: rgb(255, 255, 255) 1px 1px 1px, rgb(255, 255, 255) -1px -1px 1px, rgb(255, 255, 255) 1px -1px 1px, rgb(255, 255, 255) -1px 1px 1px; white-space: pre;">RTX CORPORATION AND AFFILIATES</text></g><g class="sankey-node" transform="translate(0.000,225.679)" style="opacity: 1;"><rect class="node-rect" width="20" height="17.85551355578724" style="stroke-width: 0.5; stroke: rgb(68, 68, 68); stroke-opacity: 1; fill: rgb(70, 130, 180); fill-opacity: 1;"/><text class="node-label" data-notex="1" x="0" y="0" text-anchor="start" transform="translate(23.25,12.77775677789362)" style="cursor: default; font-family: 'Open Sans', verdana, arial, sans-serif; font-size: 11px; fill: rgb(42, 63, 95); fill-opacity: 1; text-shadow: rgb(255, 255, 255) 1px 1px 1px, rgb(255, 255, 255) -1px -1px 1px, rgb(255, 255, 255) 1px -1px 1px, rgb(255, 255, 255) -1px 1px 1px; white-space: pre;">NORTHROP GRUMMAN CORPORATION</text></g><g class="sankey-node" transform="translate(0.000,65.269)" style="opacity: 1;"><rect class="node-rect" width="20" height="15.504431699687188" style="stroke-width: 0.5; stroke: rgb(68, 68, 68); stroke-opacity: 1; fill: rgb(70, 130, 180); fill-opacity: 1;"/><text class="node-label" data-notex="1" x="0" y="0" text-anchor="start" transform="translate(23.25,11.602215849843594)" style="cursor: default; font-family: 'Open Sans', verdana, arial, sans-serif; font-size: 11px; fill: rgb(42, 63, 95); fill-opacity: 1; text-shadow: rgb(255, 255, 255) 1px 1px 1px, rgb(255, 255, 255) -1px -1px 1px, rgb(255, 255, 255) 1px -1px 1px, rgb(255, 255, 255) -1px 1px 1px; white-space: pre;">BOEING CO</text></g><g class="sankey-node" transform="translate(0.000,463.721)" style="opacity: 1;"><rect class="node-rect" width="20" height="11.977808915537025" style="stroke-width: 0.5; stroke: rgb(68, 68, 68); stroke-opacity: 1; fill: rgb(70, 130, 180); fill-opacity: 1;"/><text class="node-label" data-notex="1" x="0" y="0" text-anchor="start" transform="translate(23.25,9.838904457768512)" style="cursor: default; font-family: 'Open Sans', verdana, arial, sans-serif; font-size: 11px; fill: rgb(42, 63, 95); fill-opacity: 1; text-shadow: rgb(255, 255, 255) 1px 1px 1px, rgb(255, 255, 255) -1px -1px 1px, rgb(255, 255, 255) 1px -1px 1px, rgb(255, 255, 255) -1px 1px 1px; white-space: pre;">GENERAL DYNAMICS CORPORATION</text></g><g class="sankey-node" transform="translate(0.000,342.234)" style="opacity: 1;"><rect class="node-rect" width="20" height="6.417818039624649" style="stroke-width: 0.5; stroke: rgb(68, 68, 68); stroke-opacity: 1; fill: rgb(70, 130, 180); fill-opacity: 1;"/><text class="node-label" data-notex="1" x="0" y="0" text-anchor="start" transform="translate(23.25,7.058909019812324)" style="cursor: default; font-family: 'Open Sans', verdana, arial, sans-serif; font-size: 11px; fill: rgb(42, 63, 95); fill-opacity: 1; text-shadow: rgb(255, 255, 255) 1px 1px 1px, rgb(255, 255, 255) -1px -1px 1px, rgb(255, 255, 255) 1px -1px 1px, rgb(255, 255, 255) -1px 1px 1px; white-space: pre;">THE BOEING COMPANY</text></g><g class="sankey-node" transform="translate(0.000,432.919)" style="opacity: 1;"><rect class="node-rect" width="20" height="2.6687956204380043" style="stroke-width: 0.5; stroke: rgb(68, 68, 68); stroke-opacity: 1; fill: rgb(70, 130, 180); fill-opacity: 1;"/><text class="node-label" data-notex="1" x="0" y="0" text-anchor="start" transform="translate(23.25,5.184397810219002)" style="cursor: default; font-family: 'Open Sans', verdana, arial, sans-serif; font-size: 11px; fill: rgb(42, 63, 95); fill-opacity: 1; text-shadow: rgb(255, 255, 255) 1px 1px 1px, rgb(255, 255, 255) -1px -1px 1px, rgb(255, 255, 255) 1px -1px 1px, rgb(255, 255, 255) -1px 1px 1px; white-space: pre;">LOCKHEED MARTIN CORP</text></g><g class="sankey-node" transform="translate(0.000,518.157)" style="opacity: 1;"><rect class="node-rect" width="20" height="1.8427398331596123" style="stroke-width: 0.5; stroke: rgb(68, 68, 68); stroke-opacity: 1; fill: rgb(70, 130, 180); fill-opacity: 1;"/><text class="node-label" data-notex="1" x="0" y="0" text-anchor="start" transform="translate(23.25,4.771369916579806)" style="cursor: default; font-family: 'Open Sans', verdana, arial, sans-serif; font-size: 11px; fill: rgb(42, 63, 95); fill-opacity: 1; text-shadow: rgb(255, 255, 255) 1px 1px 1px, rgb(255, 255, 255) -1px -1px 1px, rgb(255, 255, 255) 1px -1px 1px, rgb(255, 255, 255) -1px 1px 1px; white-space: pre;">LOCKHEED MARTIN</text></g><g class="sankey-node" transform="translate(520.000,45.080)" style="opacity: 1;"><rect class="node-rect" width="20" height="24.14624608967671" style="stroke-width: 0.5; stroke: rgb(68, 68, 68); stroke-opacity: 1; fill: rgb(70, 130, 180); fill-opacity: 1;"/><text class="node-label" data-notex="1" x="0" y="0" text-anchor="end" transform="translate(-3.25,15.923123044838354)" style="cursor: default; font-family: 'Open Sans', verdana, arial, sans-serif; font-size: 11px; fill: rgb(42, 63, 95); fill-opacity: 1; text-shadow: rgb(255, 255, 255) 1px 1px 1px, rgb(255, 255, 255) -1px -1px 1px, rgb(255, 255, 255) 1px -1px 1px, rgb(255, 255, 255) -1px 1px 1px; white-space: pre;">INNOVATIVE FEDERAL STRATEGIES, LLC</text></g><g class="sankey-node" transform="translate(520.000,217.328)" style="opacity: 1;"><rect class="node-rect" width="20" height="21.668078727841532" style="stroke-width: 0.5; stroke: rgb(68, 68, 68); stroke-opacity: 1; fill: rgb(70, 130, 180); fill-opacity: 1;"/><text class="node-label" data-notex="1" x="0" y="0" text-anchor="end" transform="translate(-3.25,14.684039363920766)" style="cursor: default; font-family: 'Open Sans', verdana, arial, sans-serif; font-size: 11px; fill: rgb(42, 63, 95); fill-opacity: 1; text-shadow: rgb(255, 255, 255) 1px 1px 1px, rgb(255, 255, 255) -1px -1px 1px, rgb(255, 255, 255) 1px -1px 1px, rgb(255, 255, 255) -1px 1px 1px; white-space: pre;">PODESTA GROUP, INC.</text></g><g class="sankey-node" transform="translate(520.000,133.078)" style="opacity: 1;"><rect class="node-rect" width="20" height="21.159736704900922" style="stroke-width: 0.5; stroke: rgb(68, 68, 68); stroke-opacity: 1; fill: rgb(70, 130, 180); fill-opacity: 1;"/><text class="node-label" data-notex="1" x="0" y="0" text-anchor="end" transform="translate(-3.25,14.42986835245046)" style="cursor: default; font-family: 'Open Sans', verdana, arial, sans-serif; font-size: 11px; fill: rgb(42, 63, 95); fill-opacity: 1; text-shadow: rgb(255, 255, 255) 1px 1px 1px, rgb(255, 255, 255) -1px -1px 1px, rgb(255, 255, 255) 1px -1px 1px, rgb(255, 255, 255) -1px 1px 1px; white-space: pre;">ERVIN GRAVES STRATEGY GROUP, LLC</text></g><g class="sankey-node" transform="translate(520.000,-0.000)" style="opacity: 1;"><rect class="node-rect" width="20" height="20.079509906152257" style="stroke-width: 0.5; stroke: rgb(68, 68, 68); stroke-opacity: 1; fill: rgb(70, 130, 180); fill-opacity: 1;"/><text class="node-label" data-notex="1" x="0" y="0" text-anchor="end" transform="translate(-3.25,13.889754953076128)" style="cursor: default; font-family: 'Open Sans', verdana, arial, sans-serif; font-size: 11px; fill: rgb(42, 63, 95); fill-opacity: 1; text-shadow: rgb(255, 255, 255) 1px 1px 1px, rgb(255, 255, 255) -1px -1px 1px, rgb(255, 255, 255) 1px -1px 1px, rgb(255, 255, 255) -1px 1px 1px; white-space: pre;">DLA PIPER LLP (US)</text></g><g class="sankey-node" transform="translate(520.000,301.323)" style="opacity: 1;"><rect class="node-rect" width="20" height="15.758602711157437" style="stroke-width: 0.5; stroke: rgb(68, 68, 68); stroke-opacity: 1; fill: rgb(70, 130, 180); fill-opacity: 1;"/><text class="node-label" data-notex="1" x="0" y="0" text-anchor="end" transform="translate(-3.25,11.729301355578718)" style="cursor: default; font-family: 'Open Sans', verdana, arial, sans-serif; font-size: 11px; fill: rgb(42, 63, 95); fill-opacity: 1; text-shadow: rgb(255, 255, 255) 1px 1px 1px, rgb(255, 255, 255) -1px -1px 1px, rgb(255, 255, 255) 1px -1px 1px, rgb(255, 255, 255) -1px 1px 1px; white-space: pre;">VAN SCOYOC ASSOCIATES</text></g><g class="sankey-node" transform="translate(520.000,94.226)" style="opacity: 1;"><rect class="node-rect" width="20" height="13.852320125130348" style="stroke-width: 0.5; stroke: rgb(68, 68, 68); stroke-opacity: 1; fill: rgb(70, 130, 180); fill-opacity: 1;"/><text class="node-label" data-notex="1" x="0" y="0" text-anchor="end" transform="translate(-3.25,10.776160062565173)" style="cursor: default; font-family: 'Open Sans', verdana, arial, sans-serif; font-size: 11px; fill: rgb(42, 63, 95); fill-opacity: 1; text-shadow: rgb(255, 255, 255) 1px 1px 1px, rgb(255, 255, 255) -1px -1px 1px, rgb(255, 255, 255) 1px -1px 1px, rgb(255, 255, 255) -1px 1px 1px; white-space: pre;">CASSIDY &amp; ASSOCIATES, INC.</text></g><g class="sankey-node" transform="translate(520.000,179.238)" style="opacity: 1;"><rect class="node-rect" width="20" height="13.089807090719546" style="stroke-width: 0.5; stroke: rgb(68, 68, 68); stroke-opacity: 1; fill: rgb(70, 130, 180); fill-opacity: 1;"/><text class="node-label" data-notex="1" x="0" y="0" text-anchor="end" transform="translate(-3.25,10.394903545359773)" style="cursor: default; font-family: 'Open Sans', verdana, arial, sans-serif; font-size: 11px; fill: rgb(42, 63, 95); fill-opacity: 1; text-shadow: rgb(255, 255, 255) 1px 1px 1px, rgb(255, 255, 255) -1px -1px 1px, rgb(255, 255, 255) 1px -1px 1px, rgb(255, 255, 255) -1px 1px 1px; white-space: pre;">THE PMA GROUP</text></g><g class="sankey-node" transform="translate(520.000,377.687)" style="opacity: 1;"><rect class="node-rect" width="20" height="12.416253910323235" style="stroke-width: 0.5; stroke: rgb(68, 68, 68); stroke-opacity: 1; fill: rgb(70, 130, 180); fill-opacity: 1;"/><text class="node-label" data-notex="1" x="0" y="0" text-anchor="end" transform="translate(-3.25,10.058126955161617)" style="cursor: default; font-family: 'Open Sans', verdana, arial, sans-serif; font-size: 11px; fill: rgb(42, 63, 95); fill-opacity: 1; text-shadow: rgb(255, 255, 255) 1px 1px 1px, rgb(255, 255, 255) -1px -1px 1px, rgb(255, 255, 255) 1px -1px 1px, rgb(255, 255, 255) -1px 1px 1px; white-space: pre;">ETHERTON AND ASSOCIATES, INC.</text></g><g class="sankey-node" transform="translate(520.000,263.996)" style="opacity: 1;"><rect class="node-rect" width="20" height="12.32729405630863" style="stroke-width: 0.5; stroke: rgb(68, 68, 68); stroke-opacity: 1; fill: rgb(70, 130, 180); fill-opacity: 1;"/><text class="node-label" data-notex="1" x="0" y="0" text-anchor="end" transform="translate(-3.25,10.013647028154315)" style="cursor: default; font-family: 'Open Sans', verdana, arial, sans-serif; font-size: 11px; fill: rgb(42, 63, 95); fill-opacity: 1; text-shadow: rgb(255, 255, 255) 1px 1px 1px, rgb(255, 255, 255) -1px -1px 1px, rgb(255, 255, 255) 1px -1px 1px, rgb(255, 255, 255) -1px 1px 1px; white-space: pre;">CORNERSTONE GOVERNMENT AFFAIRS, INC.</text></g><g class="sankey-node" transform="translate(520.000,342.082)" style="opacity: 1;"><rect class="node-rect" width="20" height="10.605285453597503" style="stroke-width: 0.5; stroke: rgb(68, 68, 68); stroke-opacity: 1; fill: rgb(70, 130, 180); fill-opacity: 1;"/><text class="node-label" data-notex="1" x="0" y="0" text-anchor="end" transform="translate(-3.25,9.152642726798751)" style="cursor: default; font-family: 'Open Sans', verdana, arial, sans-serif; font-size: 11px; fill: rgb(42, 63, 95); fill-opacity: 1; text-shadow: rgb(255, 255, 255) 1px 1px 1px, rgb(255, 255, 255) -1px -1px 1px, rgb(255, 255, 255) 1px -1px 1px, rgb(255, 255, 255) -1px 1px 1px; white-space: pre;">BAKER DONELSON BEARMAN CALDWELL &amp; BERKOWITZ</text></g><g class="sankey-node" transform="translate(520.000,450.143)" style="opacity: 1;"><rect class="node-rect" width="20" height="10.579868352450603" style="stroke-width: 0.5; stroke: rgb(68, 68, 68); stroke-opacity: 1; fill: rgb(70, 130, 180); fill-opacity: 1;"/><text class="node-label" data-notex="1" x="0" y="0" text-anchor="end" transform="translate(-3.25,9.139934176225301)" style="cursor: default; font-family: 'Open Sans', verdana, arial, sans-serif; font-size: 11px; fill: rgb(42, 63, 95); fill-opacity: 1; text-shadow: rgb(255, 255, 255) 1px 1px 1px, rgb(255, 255, 255) -1px -1px 1px, rgb(255, 255, 255) 1px -1px 1px, rgb(255, 255, 255) -1px 1px 1px; white-space: pre;">SIGNAL GROUP CONSULTING, LLC</text></g><g class="sankey-node" transform="translate(520.000,415.103)" style="opacity: 1;"><rect class="node-rect" width="20" height="10.039754953076113" style="stroke-width: 0.5; stroke: rgb(68, 68, 68); stroke-opacity: 1; fill: rgb(70, 130, 180); fill-opacity: 1;"/><text class="node-label" data-notex="1" x="0" y="0" text-anchor="end" transform="translate(-3.25,8.869877476538056)" style="cursor: default; font-family: 'Open Sans', verdana, arial, sans-serif; font-size: 11px; fill: rgb(42, 63, 95); fill-opacity: 1; text-shadow: rgb(255, 255, 255) 1px 1px 1px, rgb(255, 255, 255) -1px -1px 1px, rgb(255, 255, 255) 1px -1px 1px, rgb(255, 255, 255) -1px 1px 1px; white-space: pre;">ROBISON INTERNATIONAL, INC.</text></g><g class="sankey-node" transform="translate(520.000,485.723)" style="opacity: 1;"><rect class="node-rect" width="20" height="7.4345020855057555" style="stroke-width: 0.5; stroke: rgb(68, 68, 68); stroke-opacity: 1; fill: rgb(70, 130, 180); fill-opacity: 1;"/><text class="node-label" data-notex="1" x="0" y="0" text-anchor="end" transform="translate(-3.25,7.567251042752877)" style="cursor: default; font-family: 'Open Sans', verdana, arial, sans-serif; font-size: 11px; fill: rgb(42, 63, 95); fill-opacity: 1; text-shadow: rgb(255, 255, 255) 1px 1px 1px, rgb(255, 255, 255) -1px -1px 1px, rgb(255, 255, 255) 1px -1px 1px, rgb(255, 255, 255) -1px 1px 1px; white-space: pre;">C. BAKER CONSULTING, INC.</text></g><g class="sankey-node" transform="translate(520.000,518.157)" style="opacity: 1;"><rect class="node-rect" width="20" height="1.8427398331594986" style="stroke-width: 0.5; stroke: rgb(68, 68, 68); stroke-opacity: 1; fill: rgb(70, 130, 180); fill-opacity: 1;"/><text class="node-label" data-notex="1" x="0" y="0" text-anchor="end" transform="translate(-3.25,4.771369916579749)" style="cursor: default; font-family: 'Open Sans', verdana, arial, sans-serif; font-size: 11px; fill: rgb(42, 63, 95); fill-opacity: 1; text-shadow: rgb(255, 255, 255) 1px 1px 1px, rgb(255, 255, 255) -1px -1px 1px, rgb(255, 255, 255) 1px -1px 1px, rgb(255, 255, 255) -1px 1px 1px; white-space: pre;">NORTHPOINT STRATEGIES, LLC</text></g></g></g><defs id="topdefs-bac3b9"><g class="clips"/></defs><g class="layer-above"><g class="imagelayer"/><g class="shapelayer"/></g><g class="infolayer"><g class="g-gtitle"><text class="gtitle" x="35" y="50" text-anchor="start" dy="0em" style="opacity: 1; font-family: 'Open Sans', verdana, arial, sans-serif; font-size: 15px; fill: rgb(42, 63, 95); fill-opacity: 1; white-space: pre;">Top Lobbying Firm Income by Client</text></g><g class="first-render"/></g></svg>