<svg class="main-svg" xmlns="http://www.w3.org/2000/svg" xmlns:xlink="http://www.w3.org/1999/xlink" width="1400" height="1400" style="" viewBox="0 0 700 700"><rect x="0" y="0" width="700" height="700" style="fill: rgb(255, 255, 255); fill-opacity: 1;"/><defs id="defs-8aefad"><g class="clips"/><g class="gradients"/><g class="patterns"/></defs><g class="bglayer"/><g class="layer-below"><g class="imagelayer"/><g class="shapelayer"/></g><g class="cartesianlayer"/><g class="polarlayer"/><g class="smithlayer"/><g class="ternarylayer"/><g class="geolayer"/><g class="funnelarealayer"/><g class="pielayer"/><g class="iciclelayer"/><g class="treemaplayer"/><g class="sunburstlayer"/><g class="glimages"/><g class="sankey" transform="translate(80,100)matrix(1 0 0 1 0 0)" style="box-sizing: content-box; position: absolute; left: 0px; shape-rendering: geometricprecision; pointer-events: none;"><g class="sankey-links" style="fill: none;"><path class="sankey-link" d="M20,207.8853018089678C270,207.8853018089678 270,11.327579120427899 520,11.327579120427899L520,12.156696004649167C270,12.156696004649167 270,208.71441869318906 20,208.71441869318906Z" style="stroke: rgb(100, 149, 237); stroke-opacity: 0.3; fill: rgb(100, 149, 237); fill-opacity: 0.3; stroke-width: 1; opacity: 1;"/><path class="sankey-link" d="M20,234.601290300542C270,234.601290300542 270,430.82597859076463 520,430.82597859076463L520,435.1373863887152C270,435.1373863887152 270,238.9126980984926 20,238.9126980984926Z" style="stroke: rgb(68, 68, 68); stroke-opacity: 1; fill: rgb(100, 149, 237); fill-opacity: 0.3; stroke-width: 0; opacity: 1;"/><path class="sankey-link" d="M20,218.14792635366214C270,218.14792635366214 270,154.6868894247614 520,154.6868894247614L520,157.92965768304904C270,157.92965768304904 270,221.39069461194978 20,221.39069461194978Z" style="stroke: rgb(68, 68, 68); stroke-opacity: 1; fill: rgb(100, 149, 237); fill-opacity: 0.3; stroke-width: 0; opacity: 1;"/><path class="sankey-link" d="M20,227.47088509623907C270,227.47088509623907 270,294.09960336020146 520,294.09960336020146L520,297.6371687328788C270,297.6371687328788 270,231.0084504689165 20,231.0084504689165Z" style="stroke: rgb(68, 68, 68); stroke-opacity: 1; fill: rgb(100, 149, 237); fill-opacity: 0.3; stroke-width: 0; opacity: 1;"/><path class="sankey-link" d="M20,231.0084504689165C270,231.0084504689165 270,328.11076758608573 520,328.11076758608573L520,329.7321517152296C270,329.7321517152296 270,232.62983459806028 20,232.62983459806028Z" style="stroke: rgb(68, 68, 68); stroke-opacity: 1; fill: rgb(100, 149, 237); fill-opacity: 0.3; stroke-width: 0; opacity: 1;"/><path class="sankey-link" d="M20,223.45427441267827C270,223.45427441267827 270,221.16153302598352 520,221.16153302598352L520,221.82482653336055C270,221.82482653336055 270,224.1175679200553 20,224.1175679200553Z" style="stroke: rgb(100, 149, 237); stroke-opacity: 0.3; fill: rgb(100, 149, 237); fill-opacity: 0.3; stroke-width: 1; opacity: 1;"/><path class="sankey-link" d="M20,224.11756792005528C270,224.11756792005528 270,253.86085009283315 520,253.86085009283315L520,257.21416726901697C270,257.21416726901697 270,227.47088509623907 20,227.47088509623907Z" style="stroke: rgb(68, 68, 68); stroke-opacity: 1; fill: rgb(100, 149, 237); fill-opacity: 0.3; stroke-width: 0; opacity: 1;"/><path class="sankey-link" d="M20,208.71441869318906C270,208.71441869318906 270,48.23144003126191 520,48.23144003126191L520,52.02695287903039C270,52.02695287903039 270,212.50993154095752 20,212.50993154095752Z" style="stroke: rgb(68, 68, 68); stroke-opacity: 1; fill: rgb(100, 149, 237); fill-opacity: 0.3; stroke-width: 0; opacity: 1;"/><path class="sankey-link" d="M20,221.39069461194978C270,221.39069461194978 270,188.21900833976224 520,188.21900833976224L520,190.2825881404907C270,190.2825881404907 270,223.45427441267825 20,223.45427441267825Z" style="stroke: rgb(68, 68, 68); stroke-opacity: 1; fill: rgb(100, 149, 237); fill-opacity: 0.3; stroke-width: 0; opacity: 1;"/><path class="sankey-link" d="M20,232.6298345980603C270,232.6298345980603 270,360.7032206989692 520,360.7032206989692L520,362.6746764014508C270,362.6746764014508 270,234.60129030054202 20,234.60129030054202Z" style="stroke: rgb(68, 68, 68); stroke-opacity: 1; fill: rgb(100, 149, 237); fill-opacity: 0.3; stroke-width: 0; opacity: 1;"/><path class="sankey-link" d="M20,213.98391711290645C270,213.98391711290645 270,120.19667988799372 520,120.19667988799372L520,124.36068912874941C270,124.36068912874941 270,218.14792635366217 20,218.14792635366217Z" style="stroke: rgb(68, 68, 68); stroke-opacity: 1; fill: rgb(100, 149, 237); fill-opacity: 0.3; stroke-width: 0; opacity: 1;"/><path class="sankey-link" d="M20,212.50993154095752C270,212.50993154095752 270,86.62771133369412 520,86.62771133369412L520,88.10169690564305C270,88.10169690564305 270,213.98391711290643 20,213.98391711290643Z" style="stroke: rgb(68, 68, 68); stroke-opacity: 1; fill: rgb(100, 149, 237); fill-opacity: 0.3; stroke-width: 0; opacity: 1;"/><path class="sankey-link" d="M20,429.08618920062617C270,429.08618920062617 270,400.8682746877401 520,400.8682746877401L520,403.8530954709367C270,403.8530954709367 270,432.07100998382276 20,432.07100998382276Z" style="stroke: rgb(68, 68, 68); stroke-opacity: 1; fill: rgb(100, 149, 237); fill-opacity: 0.3; stroke-width: 0; opacity: 1;"/><path class="sankey-link" d="M20,428.90194100413254C270,428.90194100413254 270,371.64756357068995 520,371.64756357068995L520,371.8318117671836C270,371.8318117671836 270,429.08618920062617 20,429.08618920062617Z" style="stroke: rgb(100, 149, 237); stroke-opacity: 0.3; fill: rgb(100, 149, 237); fill-opacity: 0.3; stroke-width: 1; opacity: 1;"/><path class="sankey-link" d="M20,29.205982152850083C270,29.205982152850083 270,4.405364961712621e-13 520,4.405364961712621e-13L520,5.085250223224218C270,5.085250223224218 270,34.291232376073864 20,34.291232376073864Z" style="stroke: rgb(68, 68, 68); stroke-opacity: 1; fill: rgb(100, 149, 237); fill-opacity: 0.3; stroke-width: 0; opacity: 1;"/><path class="sankey-link" d="M20,34.291232376073864C270,34.291232376073864 270,507.9501679493176 520,507.9501679493176L520,508.2081154244087C270,508.2081154244087 270,34.54917985116492 20,34.54917985116492Z" style="stroke: rgb(100, 149, 237); stroke-opacity: 0.3; fill: rgb(100, 149, 237); fill-opacity: 0.3; stroke-width: 1; opacity: 1;"/><path class="sankey-link" d="M20,336.55845158250474C270,336.55845158250474 270,333.9514354149333 520,333.9514354149333L520,335.05692459389496C270,335.05692459389496 270,337.6639407614664 20,337.6639407614664Z" style="stroke: rgb(68, 68, 68); stroke-opacity: 1; fill: rgb(100, 149, 237); fill-opacity: 0.3; stroke-width: 0; opacity: 1;"/><path class="sankey-link" d="M20,332.5786905382427C270,332.5786905382427 270,224.60328933648424 520,224.60328933648424L520,225.59822959754973C270,225.59822959754973 270,333.5736307993082 20,333.5736307993082Z" style="stroke: rgb(100, 149, 237); stroke-opacity: 0.3; fill: rgb(100, 149, 237); fill-opacity: 0.3; stroke-width: 1; opacity: 1;"/><path class="sankey-link" d="M20,333.5736307993082C270,333.5736307993082 270,263.0364102782152 520,263.0364102782152L520,266.0212310614118C270,266.0212310614118 270,336.5584515825048 20,336.5584515825048Z" style="stroke: rgb(68, 68, 68); stroke-opacity: 1; fill: rgb(100, 149, 237); fill-opacity: 0.3; stroke-width: 0; opacity: 1;"/><path class="sankey-link" d="M20,337.66394076146645C270,337.66394076146645 270,366.8386856422066 520,366.8386856422066L520,368.7917165250389C270,368.7917165250389 270,339.61697164429876 20,339.61697164429876Z" style="stroke: rgb(68, 68, 68); stroke-opacity: 1; fill: rgb(100, 149, 237); fill-opacity: 0.3; stroke-width: 0; opacity: 1;"/><path class="sankey-link" d="M20,123.69426687841298C270,123.69426687841298 270,8.696514874499073 520,8.696514874499073L520,11.327579120427899C270,11.327579120427899 270,126.3253311243418 20,126.3253311243418Z" style="stroke: rgb(68, 68, 68); stroke-opacity: 1; fill: rgb(100, 149, 237); fill-opacity: 0.3; stroke-width: 0; opacity: 1;"/><path class="sankey-link" d="M20,154.1468087948777C270,154.1468087948777 270,396.5937165290882 520,396.5937165290882L520,400.27868045896054C270,400.27868045896054 270,157.83177272475 20,157.83177272475Z" style="stroke: rgb(68, 68, 68); stroke-opacity: 1; fill: rgb(100, 149, 237); fill-opacity: 0.3; stroke-width: 0; opacity: 1;"/><path class="sankey-link" d="M20,148.5456636214718C270,148.5456636214718 270,153.21290385281247 520,153.21290385281247L520,154.68688942476138C270,154.68688942476138 270,150.0196491934207 20,150.0196491934207Z" style="stroke: rgb(68, 68, 68); stroke-opacity: 1; fill: rgb(100, 149, 237); fill-opacity: 0.3; stroke-width: 0; opacity: 1;"/><path class="sankey-link" d="M20,153.92571095908536C270,153.92571095908536 270,293.8785055244091 520,293.8785055244091L520,294.0996033602014C270,294.0996033602014 270,154.14680879487773 20,154.14680879487773Z" style="stroke: rgb(100, 149, 237); stroke-opacity: 0.3; fill: rgb(100, 149, 237); fill-opacity: 0.3; stroke-width: 1; opacity: 1;"/><path class="sankey-link" d="M20,157.83177272475C270,157.83177272475 270,508.2081154244086 520,508.2081154244086L520,509.5347024391627C270,509.5347024391627 270,159.15835973950402 20,159.15835973950402Z" style="stroke: rgb(68, 68, 68); stroke-opacity: 1; fill: rgb(100, 149, 237); fill-opacity: 0.3; stroke-width: 0; opacity: 1;"/><path class="sankey-link" d="M20,151.86213115835687C270,151.86213115835687 270,219.09795322525503 520,219.09795322525503L520,221.1615330259835C270,221.1615330259835 270,153.92571095908534 20,153.92571095908534Z" style="stroke: rgb(68, 68, 68); stroke-opacity: 1; fill: rgb(100, 149, 237); fill-opacity: 0.3; stroke-width: 0; opacity: 1;"/><path class="sankey-link" d="M20,126.32533112434182C270,126.32533112434182 270,39.608624435360724 520,39.608624435360724L520,48.23144003126191C270,48.23144003126191 270,134.94814672024302 20,134.94814672024302Z" style="stroke: rgb(68, 68, 68); stroke-opacity: 1; fill: rgb(100, 149, 237); fill-opacity: 0.3; stroke-width: 0; opacity: 1;"/><path class="sankey-link" d="M20,150.01964919342072C270,150.01964919342072 270,186.37652637482608 520,186.37652637482608L520,188.21900833976224C270,188.21900833976224 270,151.86213115835687 20,151.86213115835687Z" style="stroke: rgb(68, 68, 68); stroke-opacity: 1; fill: rgb(100, 149, 237); fill-opacity: 0.3; stroke-width: 0; opacity: 1;"/><path class="sankey-link" d="M20,143.71836087333907C270,143.71836087333907 270,115.369377139861 520,115.369377139861L520,120.19667988799372C270,120.19667988799372 270,148.54566362147176 20,148.54566362147176Z" style="stroke: rgb(68, 68, 68); stroke-opacity: 1; fill: rgb(100, 149, 237); fill-opacity: 0.3; stroke-width: 0; opacity: 1;"/><path class="sankey-link" d="M20,134.948146720243C270,134.948146720243 270,77.85749718059805 520,77.85749718059805L520,86.62771133369412C270,86.62771133369412 270,143.7183608733391 20,143.7183608733391Z" style="stroke: rgb(68, 68, 68); stroke-opacity: 1; fill: rgb(100, 149, 237); fill-opacity: 0.3; stroke-width: 0; opacity: 1;"/><path class="sankey-link" d="M20,467.70355833885077C270,467.70355833885077 270,479.35590070034556 520,479.35590070034556L520,483.1882631874127C270,483.1882631874127 270,471.5359208259179 20,471.5359208259179Z" style="stroke: rgb(68, 68, 68); stroke-opacity: 1; fill: rgb(100, 149, 237); fill-opacity: 0.3; stroke-width: 0; opacity: 1;"/><path class="sankey-link" d="M20,461.32857074017164C270,461.32857074017164 270,403.85309547093664 520,403.85309547093664L520,406.06407382886005C270,406.06407382886005 270,463.53954909809505 20,463.53954909809505Z" style="stroke: rgb(68, 68, 68); stroke-opacity: 1; fill: rgb(100, 149, 237); fill-opacity: 0.3; stroke-width: 0; opacity: 1;"/><path class="sankey-link" d="M20,463.53954909809505C270,463.53954909809505 270,435.8006798960923 520,435.8006798960923L520,439.964689136848C270,439.964689136848 270,467.70355833885077 20,467.70355833885077Z" style="stroke: rgb(68, 68, 68); stroke-opacity: 1; fill: rgb(100, 149, 237); fill-opacity: 0.3; stroke-width: 0; opacity: 1;"/><path class="sankey-link" d="M20,460.2599312005087C270,460.2599312005087 270,302.280223284518 520,302.280223284518L520,303.34886282418097C270,303.34886282418097 270,461.32857074017164 20,461.32857074017164Z" style="stroke: rgb(68, 68, 68); stroke-opacity: 1; fill: rgb(100, 149, 237); fill-opacity: 0.3; stroke-width: 0; opacity: 1;"/><path class="sankey-link" d="M20,471.53592082591797C270,471.53592082591797 270,509.53470243916263 520,509.53470243916263L520,520C270,520 270,482.00121838675534 20,482.00121838675534Z" style="stroke: rgb(68, 68, 68); stroke-opacity: 1; fill: rgb(100, 149, 237); fill-opacity: 0.3; stroke-width: 0; opacity: 1;"/><path class="sankey-link" d="M20,456.8329147457274C270,456.8329147457274 270,226.18782382632932 520,226.18782382632932L520,227.47756120178465C270,227.47756120178465 270,458.1226521211827 20,458.1226521211827Z" style="stroke: rgb(68, 68, 68); stroke-opacity: 1; fill: rgb(100, 149, 237); fill-opacity: 0.3; stroke-width: 0; opacity: 1;"/><path class="sankey-link" d="M20,458.12265212118274C270,458.12265212118274 270,266.97932168317857 520,266.97932168317857L520,269.1166007625045C270,269.1166007625045 270,460.2599312005087 20,460.2599312005087Z" style="stroke: rgb(68, 68, 68); stroke-opacity: 1; fill: rgb(100, 149, 237); fill-opacity: 0.3; stroke-width: 0; opacity: 1;"/><path class="sankey-link" d="M20,301.11015142397C270,301.11015142397 270,464.7265938987525 520,464.7265938987525L520,471.4332282511201C270,471.4332282511201 270,307.8167857763376 20,307.8167857763376Z" style="stroke: rgb(68, 68, 68); stroke-opacity: 1; fill: rgb(100, 149, 237); fill-opacity: 0.3; stroke-width: 0; opacity: 1;"/><path class="sankey-link" d="M20,263.6746028603973C270,263.6746028603973 270,12.156696004649167 520,12.156696004649167L520,14.846719673455947C270,14.846719673455947 270,266.3646265292041 20,266.3646265292041Z" style="stroke: rgb(68, 68, 68); stroke-opacity: 1; fill: rgb(100, 149, 237); fill-opacity: 0.3; stroke-width: 0; opacity: 1;"/><path class="sankey-link" d="M20,273.550306192455C270,273.550306192455 270,157.92965768304904 520,157.92965768304904L520,161.17242594133668C270,161.17242594133668 270,276.7930744507426 20,276.7930744507426Z" style="stroke: rgb(68, 68, 68); stroke-opacity: 1; fill: rgb(100, 149, 237); fill-opacity: 0.3; stroke-width: 0; opacity: 1;"/><path class="sankey-link" d="M20,289.00504491433946C270,289.00504491433946 270,297.6371687328789 520,297.6371687328789L520,301.35898230204987C270,301.35898230204987 270,292.72685848351045 20,292.72685848351045Z" style="stroke: rgb(68, 68, 68); stroke-opacity: 1; fill: rgb(100, 149, 237); fill-opacity: 0.3; stroke-width: 0; opacity: 1;"/><path class="sankey-link" d="M20,292.7268584835105C270,292.7268584835105 270,329.7321517152295 520,329.7321517152295L520,333.95143541493326C270,333.95143541493326 270,296.94614218321425 20,296.94614218321425Z" style="stroke: rgb(68, 68, 68); stroke-opacity: 1; fill: rgb(100, 149, 237); fill-opacity: 0.3; stroke-width: 0; opacity: 1;"/><path class="sankey-link" d="M20,280.4043391020175C270,280.4043391020175 270,221.82482653336052 520,221.82482653336052L520,224.60328933648424C270,224.60328933648424 270,283.1828019051412 20,283.1828019051412Z" style="stroke: rgb(68, 68, 68); stroke-opacity: 1; fill: rgb(100, 149, 237); fill-opacity: 0.3; stroke-width: 0; opacity: 1;"/><path class="sankey-link" d="M20,283.1828019051412C270,283.1828019051412 270,257.21416726901697 520,257.21416726901697L520,263.0364102782152C270,263.0364102782152 270,289.00504491433946 20,289.00504491433946Z" style="stroke: rgb(68, 68, 68); stroke-opacity: 1; fill: rgb(100, 149, 237); fill-opacity: 0.3; stroke-width: 0; opacity: 1;"/><path class="sankey-link" d="M20,266.36462652920403C270,266.36462652920403 270,52.02695287903038 520,52.02695287903038L520,53.09559241869335C270,53.09559241869335 270,267.433266068867 20,267.433266068867Z" style="stroke: rgb(68, 68, 68); stroke-opacity: 1; fill: rgb(100, 149, 237); fill-opacity: 0.3; stroke-width: 0; opacity: 1;"/><path class="sankey-link" d="M20,276.79307445074267C270,276.79307445074267 270,190.28258814049073 520,190.28258814049073L520,193.89385279176557C270,193.89385279176557 270,280.4043391020175 20,280.4043391020175Z" style="stroke: rgb(68, 68, 68); stroke-opacity: 1; fill: rgb(100, 149, 237); fill-opacity: 0.3; stroke-width: 0; opacity: 1;"/><path class="sankey-link" d="M20,296.9461421832143C270,296.9461421832143 270,362.6746764014509 520,362.6746764014509L520,366.8386856422066C270,366.8386856422066 270,301.11015142397 20,301.11015142397Z" style="stroke: rgb(68, 68, 68); stroke-opacity: 1; fill: rgb(100, 149, 237); fill-opacity: 0.3; stroke-width: 0; opacity: 1;"/><path class="sankey-link" d="M20,269.6442444267904C270,269.6442444267904 270,124.36068912874943 520,124.36068912874943L520,128.26675089441406C270,128.26675089441406 270,273.550306192455 20,273.550306192455Z" style="stroke: rgb(68, 68, 68); stroke-opacity: 1; fill: rgb(100, 149, 237); fill-opacity: 0.3; stroke-width: 0; opacity: 1;"/><path class="sankey-link" d="M20,267.433266068867C270,267.433266068867 270,88.10169690564304 520,88.10169690564304L520,90.31267526356642C270,90.31267526356642 270,269.6442444267904 20,269.6442444267904Z" style="stroke: rgb(68, 68, 68); stroke-opacity: 1; fill: rgb(100, 149, 237); fill-opacity: 0.3; stroke-width: 0; opacity: 1;"/><path class="sankey-link" d="M20,396.21736379300233C270,396.21736379300233 270,471.4332282511201 520,471.4332282511201L520,479.3559007003456C270,479.3559007003456 270,404.14003624222784 20,404.14003624222784Z" style="stroke: rgb(68, 68, 68); stroke-opacity: 1; fill: rgb(100, 149, 237); fill-opacity: 0.3; stroke-width: 0; opacity: 1;"/><path class="sankey-link" d="M20,394.96447605684574C270,394.96447605684574 270,400.27868045896054 520,400.27868045896054L520,400.8682746877401C270,400.8682746877401 270,395.5540702856253 20,395.5540702856253Z" style="stroke: rgb(100, 149, 237); stroke-opacity: 0.3; fill: rgb(100, 149, 237); fill-opacity: 0.3; stroke-width: 1; opacity: 1;"/><path class="sankey-link" d="M20,395.5540702856253C270,395.5540702856253 270,435.13738638871524 520,435.13738638871524L520,435.8006798960923C270,435.8006798960923 270,396.21736379300233 20,396.21736379300233Z" style="stroke: rgb(100, 149, 237); stroke-opacity: 0.3; fill: rgb(100, 149, 237); fill-opacity: 0.3; stroke-width: 1; opacity: 1;"/><path class="sankey-link" d="M20,390.3029966855573C270,390.3029966855573 270,301.3589823020499 520,301.3589823020499L520,302.28022328451794C270,302.28022328451794 270,391.2242376680253 20,391.2242376680253Z" style="stroke: rgb(100, 149, 237); stroke-opacity: 0.3; fill: rgb(100, 149, 237); fill-opacity: 0.3; stroke-width: 1; opacity: 1;"/><path class="sankey-link" d="M20,391.22423766802535C270,391.22423766802535 270,335.056924593895 520,335.056924593895L520,335.94131593706436C270,335.94131593706436 270,392.1086290111947 20,392.1086290111947Z" style="stroke: rgb(100, 149, 237); stroke-opacity: 0.3; fill: rgb(100, 149, 237); fill-opacity: 0.3; stroke-width: 1; opacity: 1;"/><path class="sankey-link" d="M20,388.7553118350109C270,388.7553118350109 270,225.59822959754976 520,225.59822959754976L520,226.18782382632932C270,226.18782382632932 270,389.34490606379046 20,389.34490606379046Z" style="stroke: rgb(100, 149, 237); stroke-opacity: 0.3; fill: rgb(100, 149, 237); fill-opacity: 0.3; stroke-width: 1; opacity: 1;"/><path class="sankey-link" d="M20,389.34490606379046C270,389.34490606379046 270,266.02123106141175 520,266.02123106141175L520,266.97932168317857C270,266.97932168317857 270,390.3029966855573 20,390.3029966855573Z" style="stroke: rgb(100, 149, 237); stroke-opacity: 0.3; fill: rgb(100, 149, 237); fill-opacity: 0.3; stroke-width: 1; opacity: 1;"/><path class="sankey-link" d="M20,388.31311616342623C270,388.31311616342623 270,193.8938527917656 520,193.8938527917656L520,194.33604846335027C270,194.33604846335027 270,388.75531183501096 20,388.75531183501096Z" style="stroke: rgb(100, 149, 237); stroke-opacity: 0.3; fill: rgb(100, 149, 237); fill-opacity: 0.3; stroke-width: 1; opacity: 1;"/><path class="sankey-link" d="M20,392.1086290111947C270,392.1086290111947 270,368.7917165250389 520,368.7917165250389L520,371.6475635706899C270,371.6475635706899 270,394.9644760568457 20,394.9644760568457Z" style="stroke: rgb(68, 68, 68); stroke-opacity: 1; fill: rgb(100, 149, 237); fill-opacity: 0.3; stroke-width: 0; opacity: 1;"/><path class="sankey-link" d="M20,388.01831904903645C270,388.01831904903645 270,90.31267526356642 520,90.31267526356642L520,90.6074723779562C270,90.6074723779562 270,388.31311616342623 20,388.31311616342623Z" style="stroke: rgb(100, 149, 237); stroke-opacity: 0.3; fill: rgb(100, 149, 237); fill-opacity: 0.3; stroke-width: 1; opacity: 1;"/><path class="sankey-link" d="M20,93.07326946801123C270,93.07326946801123 270,5.085250223224218 520,5.085250223224218L520,8.696514874499075C270,8.696514874499075 270,96.6845341192861 20,96.6845341192861Z" style="stroke: rgb(68, 68, 68); stroke-opacity: 1; fill: rgb(100, 149, 237); fill-opacity: 0.3; stroke-width: 0; opacity: 1;"/><path class="sankey-link" d="M20,96.68453411928608C270,96.68453411928608 270,153.02865565631885 520,153.02865565631885L520,153.21290385281247C270,153.21290385281247 270,96.86878231577971 20,96.86878231577971Z" style="stroke: rgb(100, 149, 237); stroke-opacity: 0.3; fill: rgb(100, 149, 237); fill-opacity: 0.3; stroke-width: 1; opacity: 1;"/><path class="sankey-link" d="M20,97.31097798736437C270,97.31097798736437 270,252.23946596368933 520,252.23946596368933L520,253.86085009283312C270,253.86085009283312 270,98.93236211650819 20,98.93236211650819Z" style="stroke: rgb(68, 68, 68); stroke-opacity: 1; fill: rgb(100, 149, 237); fill-opacity: 0.3; stroke-width: 0; opacity: 1;"/><path class="sankey-link" d="M20,96.8687823157797C270,96.8687823157797 270,185.93433070324141 520,185.93433070324141L520,186.37652637482608C270,186.37652637482608 270,97.31097798736437 20,97.31097798736437Z" style="stroke: rgb(100, 149, 237); stroke-opacity: 0.3; fill: rgb(100, 149, 237); fill-opacity: 0.3; stroke-width: 1; opacity: 1;"/></g><g class="sankey-node-set" style="cursor: move;"><g class="sankey-node" transform="translate(0.000,263.675)" style="opacity: 1;"><rect class="node-rect" width="20" height="44.14218291594068" style="stroke-width: 0.5; stroke: rgb(68, 68, 68); stroke-opacity: 1; fill: rgb(70, 130, 180); fill-opacity: 1;"/><text class="node-label" data-notex="1" x="0" y="0" text-anchor="start" transform="translate(23.25,25.92109145797034)" style="cursor: default; font-family: 'Open Sans', verdana, arial, sans-serif; font-size: 11px; fill: rgb(42, 63, 95); fill-opacity: 1; text-shadow: rgb(255, 255, 255) 1px 1px 1px, rgb(255, 255, 255) -1px -1px 1px, rgb(255, 255, 255) 1px -1px 1px, rgb(255, 255, 255) -1px 1px 1px; white-space: pre;">boeing</text></g><g class="sankey-node" transform="translate(0.000,123.694)" style="opacity: 1;"><rect class="node-rect" width="20" height="35.464092861091075" style="stroke-width: 0.5; stroke: rgb(68, 68, 68); stroke-opacity: 1; fill: rgb(70, 130, 180); fill-opacity: 1;"/><text class="node-label" data-notex="1" x="0" y="0" text-anchor="start" transform="translate(23.25,21.58204643054554)" style="cursor: default; font-family: 'Open Sans', verdana, arial, sans-serif; font-size: 11px; fill: rgb(42, 63, 95); fill-opacity: 1; text-shadow: rgb(255, 255, 255) 1px 1px 1px, rgb(255, 255, 255) -1px -1px 1px, rgb(255, 255, 255) 1px -1px 1px, rgb(255, 255, 255) -1px 1px 1px; white-space: pre;">Lockheed Martin</text></g><g class="sankey-node" transform="translate(0.000,207.885)" style="opacity: 1;"><rect class="node-rect" width="20" height="31.027396289524745" style="stroke-width: 0.5; stroke: rgb(68, 68, 68); stroke-opacity: 1; fill: rgb(70, 130, 180); fill-opacity: 1;"/><text class="node-label" data-notex="1" x="0" y="0" text-anchor="start" transform="translate(23.25,19.363698144762374)" style="cursor: default; font-family: 'Open Sans', verdana, arial, sans-serif; font-size: 11px; fill: rgb(42, 63, 95); fill-opacity: 1; text-shadow: rgb(255, 255, 255) 1px 1px 1px, rgb(255, 255, 255) -1px -1px 1px, rgb(255, 255, 255) 1px -1px 1px, rgb(255, 255, 255) -1px 1px 1px; white-space: pre;">General Dynamics</text></g><g class="sankey-node" transform="translate(0.000,456.833)" style="opacity: 1;"><rect class="node-rect" width="20" height="25.16830364102782" style="stroke-width: 0.5; stroke: rgb(68, 68, 68); stroke-opacity: 1; fill: rgb(70, 130, 180); fill-opacity: 1;"/><text class="node-label" data-notex="1" x="0" y="0" text-anchor="start" transform="translate(23.25,16.43415182051391)" style="cursor: default; font-family: 'Open Sans', verdana, arial, sans-serif; font-size: 11px; fill: rgb(42, 63, 95); fill-opacity: 1; text-shadow: rgb(255, 255, 255) 1px 1px 1px, rgb(255, 255, 255) -1px -1px 1px, rgb(255, 255, 255) 1px -1px 1px, rgb(255, 255, 255) -1px 1px 1px; white-space: pre;">RTX</text></g><g class="sankey-node" transform="translate(0.000,388.018)" style="opacity: 1;"><rect class="node-rect" width="20" height="16.12171719319133" style="stroke-width: 0.5; stroke: rgb(68, 68, 68); stroke-opacity: 1; fill: rgb(70, 130, 180); fill-opacity: 1;"/><text class="node-label" data-notex="1" x="0" y="0" text-anchor="start" transform="translate(23.25,11.910858596595665)" style="cursor: default; font-family: 'Open Sans', verdana, arial, sans-serif; font-size: 11px; fill: rgb(42, 63, 95); fill-opacity: 1; text-shadow: rgb(255, 255, 255) 1px 1px 1px, rgb(255, 255, 255) -1px -1px 1px, rgb(255, 255, 255) 1px -1px 1px, rgb(255, 255, 255) -1px 1px 1px; white-space: pre;">honeywell</text></g><g class="sankey-node" transform="translate(0.000,332.579)" style="opacity: 1;"><rect class="node-rect" width="20" height="7.038281106056047" style="stroke-width: 0.5; stroke: rgb(68, 68, 68); stroke-opacity: 1; fill: rgb(70, 130, 180); fill-opacity: 1;"/><text class="node-label" data-notex="1" x="0" y="0" text-anchor="start" transform="translate(23.25,7.369140553028023)" style="cursor: default; font-family: 'Open Sans', verdana, arial, sans-serif; font-size: 11px; fill: rgb(42, 63, 95); fill-opacity: 1; text-shadow: rgb(255, 255, 255) 1px 1px 1px, rgb(255, 255, 255) -1px -1px 1px, rgb(255, 255, 255) 1px -1px 1px, rgb(255, 255, 255) -1px 1px 1px; white-space: pre;">Leidos</text></g><g class="sankey-node" transform="translate(0.000,93.073)" style="opacity: 1;"><rect class="node-rect" width="20" height="5.859092648496983" style="stroke-width: 0.5; stroke: rgb(68, 68, 68); stroke-opacity: 1; fill: rgb(70, 130, 180); fill-opacity: 1;"/><text class="node-label" data-notex="1" x="0" y="0" text-anchor="start" transform="translate(23.25,6.779546324248491)" style="cursor: default; font-family: 'Open Sans', verdana, arial, sans-serif; font-size: 11px; fill: rgb(42, 63, 95); fill-opacity: 1; text-shadow: rgb(255, 255, 255) 1px 1px 1px, rgb(255, 255, 255) -1px -1px 1px, rgb(255, 255, 255) 1px -1px 1px, rgb(255, 255, 255) -1px 1px 1px; white-space: pre;">thales</text></g><g class="sankey-node" transform="translate(0.000,29.206)" style="opacity: 1;"><rect class="node-rect" width="20" height="5.3431976983148495" style="stroke-width: 0.5; stroke: rgb(68, 68, 68); stroke-opacity: 1; fill: rgb(70, 130, 180); fill-opacity: 1;"/><text class="node-label" data-notex="1" x="0" y="0" text-anchor="start" transform="translate(23.25,6.521598849157424)" style="cursor: default; font-family: 'Open Sans', verdana, arial, sans-serif; font-size: 11px; fill: rgb(42, 63, 95); fill-opacity: 1; text-shadow: rgb(255, 255, 255) 1px 1px 1px, rgb(255, 255, 255) -1px -1px 1px, rgb(255, 255, 255) 1px -1px 1px, rgb(255, 255, 255) -1px 1px 1px; white-space: pre;">L3Harris</text></g><g class="sankey-node" transform="translate(0.000,428.902)" style="opacity: 1;"><rect class="node-rect" width="20" height="3.1690689796901097" style="stroke-width: 0.5; stroke: rgb(68, 68, 68); stroke-opacity: 1; fill: rgb(70, 130, 180); fill-opacity: 1;"/><text class="node-label" data-notex="1" x="0" y="0" text-anchor="start" transform="translate(23.25,5.4345344898450545)" style="cursor: default; font-family: 'Open Sans', verdana, arial, sans-serif; font-size: 11px; fill: rgb(42, 63, 95); fill-opacity: 1; text-shadow: rgb(255, 255, 255) 1px 1px 1px, rgb(255, 255, 255) -1px -1px 1px, rgb(255, 255, 255) 1px -1px 1px, rgb(255, 255, 255) -1px 1px 1px; white-space: pre;">Huntington</text></g><g class="sankey-node" transform="translate(520.000,464.727)" style="opacity: 1;"><rect class="node-rect" width="20" height="18.461669288660232" style="stroke-width: 0.5; stroke: rgb(68, 68, 68); stroke-opacity: 1; fill: rgb(70, 130, 180); fill-opacity: 1;"/><text class="node-label" data-notex="1" x="0" y="0" text-anchor="end" transform="translate(-3.25,13.080834644330116)" style="cursor: default; font-family: 'Open Sans', verdana, arial, sans-serif; font-size: 11px; fill: rgb(42, 63, 95); fill-opacity: 1; text-shadow: rgb(255, 255, 255) 1px 1px 1px, rgb(255, 255, 255) -1px -1px 1px, rgb(255, 255, 255) 1px -1px 1px, rgb(255, 255, 255) -1px 1px 1px; white-space: pre;">AKIN GUMP STRAUSS HAUER &amp; FELD</text></g><g class="sankey-node" transform="translate(520.000,252.239)" style="opacity: 1;"><rect class="node-rect" width="20" height="16.877134798815007" style="stroke-width: 0.5; stroke: rgb(68, 68, 68); stroke-opacity: 1; fill: rgb(70, 130, 180); fill-opacity: 1;"/><text class="node-label" data-notex="1" x="0" y="0" text-anchor="end" transform="translate(-3.25,12.288567399407503)" style="cursor: default; font-family: 'Open Sans', verdana, arial, sans-serif; font-size: 11px; fill: rgb(42, 63, 95); fill-opacity: 1; text-shadow: rgb(255, 255, 255) 1px 1px 1px, rgb(255, 255, 255) -1px -1px 1px, rgb(255, 255, 255) 1px -1px 1px, rgb(255, 255, 255) -1px 1px 1px; white-space: pre;">INNOVATIVE FEDERAL STRATEGIES, LLC</text></g><g class="sankey-node" transform="translate(520.000,0.000)" style="opacity: 1;"><rect class="node-rect" width="20" height="14.846719673455524" style="stroke-width: 0.5; stroke: rgb(68, 68, 68); stroke-opacity: 1; fill: rgb(70, 130, 180); fill-opacity: 1;"/><text class="node-label" data-notex="1" x="0" y="0" text-anchor="end" transform="translate(-3.25,11.273359836727762)" style="cursor: default; font-family: 'Open Sans', verdana, arial, sans-serif; font-size: 11px; fill: rgb(42, 63, 95); fill-opacity: 1; text-shadow: rgb(255, 255, 255) 1px 1px 1px, rgb(255, 255, 255) -1px -1px 1px, rgb(255, 255, 255) 1px -1px 1px, rgb(255, 255, 255) -1px 1px 1px; white-space: pre;">BAKER DONELSON BEARMAN CALDWELL &amp; BERKOWITZ</text></g><g class="sankey-node" transform="translate(520.000,39.609)" style="opacity: 1;"><rect class="node-rect" width="20" height="13.486967983332562" style="stroke-width: 0.5; stroke: rgb(68, 68, 68); stroke-opacity: 1; fill: rgb(70, 130, 180); fill-opacity: 1;"/><text class="node-label" data-notex="1" x="0" y="0" text-anchor="end" transform="translate(-3.25,10.59348399166628)" style="cursor: default; font-family: 'Open Sans', verdana, arial, sans-serif; font-size: 11px; fill: rgb(42, 63, 95); fill-opacity: 1; text-shadow: rgb(255, 255, 255) 1px 1px 1px, rgb(255, 255, 255) -1px -1px 1px, rgb(255, 255, 255) 1px -1px 1px, rgb(255, 255, 255) -1px 1px 1px; white-space: pre;">PODESTA GROUP, INC.</text></g><g class="sankey-node" transform="translate(520.000,115.369)" style="opacity: 1;"><rect class="node-rect" width="20" height="12.897373754553087" style="stroke-width: 0.5; stroke: rgb(68, 68, 68); stroke-opacity: 1; fill: rgb(70, 130, 180); fill-opacity: 1;"/><text class="node-label" data-notex="1" x="0" y="0" text-anchor="end" transform="translate(-3.25,10.298686877276543)" style="cursor: default; font-family: 'Open Sans', verdana, arial, sans-serif; font-size: 11px; fill: rgb(42, 63, 95); fill-opacity: 1; text-shadow: rgb(255, 255, 255) 1px 1px 1px, rgb(255, 255, 255) -1px -1px 1px, rgb(255, 255, 255) 1px -1px 1px, rgb(255, 255, 255) -1px 1px 1px; white-space: pre;">THE PMA GROUP</text></g><g class="sankey-node" transform="translate(520.000,77.857)" style="opacity: 1;"><rect class="node-rect" width="20" height="12.749975197358197" style="stroke-width: 0.5; stroke: rgb(68, 68, 68); stroke-opacity: 1; fill: rgb(70, 130, 180); fill-opacity: 1;"/><text class="node-label" data-notex="1" x="0" y="0" text-anchor="end" transform="translate(-3.25,10.224987598679098)" style="cursor: default; font-family: 'Open Sans', verdana, arial, sans-serif; font-size: 11px; fill: rgb(42, 63, 95); fill-opacity: 1; text-shadow: rgb(255, 255, 255) 1px 1px 1px, rgb(255, 255, 255) -1px -1px 1px, rgb(255, 255, 255) 1px -1px 1px, rgb(255, 255, 255) -1px 1px 1px; white-space: pre;">VAN SCOYOC ASSOCIATES</text></g><g class="sankey-node" transform="translate(520.000,507.950)" style="opacity: 1;"><rect class="node-rect" width="20" height="12.049832050682426" style="stroke-width: 0.5; stroke: rgb(68, 68, 68); stroke-opacity: 1; fill: rgb(70, 130, 180); fill-opacity: 1;"/><text class="node-label" data-notex="1" x="0" y="0" text-anchor="end" transform="translate(-3.25,9.874916025341212)" style="cursor: default; font-family: 'Open Sans', verdana, arial, sans-serif; font-size: 11px; fill: rgb(42, 63, 95); fill-opacity: 1; text-shadow: rgb(255, 255, 255) 1px 1px 1px, rgb(255, 255, 255) -1px -1px 1px, rgb(255, 255, 255) 1px -1px 1px, rgb(255, 255, 255) -1px 1px 1px; white-space: pre;">DLA PIPER LLP (US)</text></g><g class="sankey-node" transform="translate(520.000,360.703)" style="opacity: 1;"><rect class="node-rect" width="20" height="11.128591068214291" style="stroke-width: 0.5; stroke: rgb(68, 68, 68); stroke-opacity: 1; fill: rgb(70, 130, 180); fill-opacity: 1;"/><text class="node-label" data-notex="1" x="0" y="0" text-anchor="end" transform="translate(-3.25,9.414295534107145)" style="cursor: default; font-family: 'Open Sans', verdana, arial, sans-serif; font-size: 11px; fill: rgb(42, 63, 95); fill-opacity: 1; text-shadow: rgb(255, 255, 255) 1px 1px 1px, rgb(255, 255, 255) -1px -1px 1px, rgb(255, 255, 255) 1px -1px 1px, rgb(255, 255, 255) -1px 1px 1px; white-space: pre;">SIGNAL GROUP CONSULTING, LLC</text></g><g class="sankey-node" transform="translate(520.000,396.594)" style="opacity: 1;"><rect class="node-rect" width="20" height="9.47035729977165" style="stroke-width: 0.5; stroke: rgb(68, 68, 68); stroke-opacity: 1; fill: rgb(70, 130, 180); fill-opacity: 1;"/><text class="node-label" data-notex="1" x="0" y="0" text-anchor="end" transform="translate(-3.25,8.585178649885824)" style="cursor: default; font-family: 'Open Sans', verdana, arial, sans-serif; font-size: 11px; fill: rgb(42, 63, 95); fill-opacity: 1; text-shadow: rgb(255, 255, 255) 1px 1px 1px, rgb(255, 255, 255) -1px -1px 1px, rgb(255, 255, 255) 1px -1px 1px, rgb(255, 255, 255) -1px 1px 1px; white-space: pre;">BGR GOVERNMENT AFFAIRS</text></g><g class="sankey-node" transform="translate(520.000,293.879)" style="opacity: 1;"><rect class="node-rect" width="20" height="9.470357299771877" style="stroke-width: 0.5; stroke: rgb(68, 68, 68); stroke-opacity: 1; fill: rgb(70, 130, 180); fill-opacity: 1;"/><text class="node-label" data-notex="1" x="0" y="0" text-anchor="end" transform="translate(-3.25,8.585178649885938)" style="cursor: default; font-family: 'Open Sans', verdana, arial, sans-serif; font-size: 11px; fill: rgb(42, 63, 95); fill-opacity: 1; text-shadow: rgb(255, 255, 255) 1px 1px 1px, rgb(255, 255, 255) -1px -1px 1px, rgb(255, 255, 255) 1px -1px 1px, rgb(255, 255, 255) -1px 1px 1px; white-space: pre;">CORNERSTONE GOVERNMENT AFFAIRS, INC.</text></g><g class="sankey-node" transform="translate(520.000,430.826)" style="opacity: 1;"><rect class="node-rect" width="20" height="9.138710546083189" style="stroke-width: 0.5; stroke: rgb(68, 68, 68); stroke-opacity: 1; fill: rgb(70, 130, 180); fill-opacity: 1;"/><text class="node-label" data-notex="1" x="0" y="0" text-anchor="end" transform="translate(-3.25,8.419355273041594)" style="cursor: default; font-family: 'Open Sans', verdana, arial, sans-serif; font-size: 11px; fill: rgb(42, 63, 95); fill-opacity: 1; text-shadow: rgb(255, 255, 255) 1px 1px 1px, rgb(255, 255, 255) -1px -1px 1px, rgb(255, 255, 255) 1px -1px 1px, rgb(255, 255, 255) -1px 1px 1px; white-space: pre;">C. BAKER CONSULTING, INC.</text></g><g class="sankey-node" transform="translate(520.000,185.934)" style="opacity: 1;"><rect class="node-rect" width="20" height="8.401717760108852" style="stroke-width: 0.5; stroke: rgb(68, 68, 68); stroke-opacity: 1; fill: rgb(70, 130, 180); fill-opacity: 1;"/><text class="node-label" data-notex="1" x="0" y="0" text-anchor="end" transform="translate(-3.25,8.050858880054426)" style="cursor: default; font-family: 'Open Sans', verdana, arial, sans-serif; font-size: 11px; fill: rgb(42, 63, 95); fill-opacity: 1; text-shadow: rgb(255, 255, 255) 1px 1px 1px, rgb(255, 255, 255) -1px -1px 1px, rgb(255, 255, 255) 1px -1px 1px, rgb(255, 255, 255) -1px 1px 1px; white-space: pre;">ROBISON INTERNATIONAL, INC.</text></g><g class="sankey-node" transform="translate(520.000,219.098)" style="opacity: 1;"><rect class="node-rect" width="20" height="8.379607976529542" style="stroke-width: 0.5; stroke: rgb(68, 68, 68); stroke-opacity: 1; fill: rgb(70, 130, 180); fill-opacity: 1;"/><text class="node-label" data-notex="1" x="0" y="0" text-anchor="end" transform="translate(-3.25,8.03980398826477)" style="cursor: default; font-family: 'Open Sans', verdana, arial, sans-serif; font-size: 11px; fill: rgb(42, 63, 95); fill-opacity: 1; text-shadow: rgb(255, 255, 255) 1px 1px 1px, rgb(255, 255, 255) -1px -1px 1px, rgb(255, 255, 255) 1px -1px 1px, rgb(255, 255, 255) -1px 1px 1px; white-space: pre;">ETHERTON AND ASSOCIATES, INC.</text></g><g class="sankey-node" transform="translate(520.000,153.029)" style="opacity: 1;"><rect class="node-rect" width="20" height="8.143770285017808" style="stroke-width: 0.5; stroke: rgb(68, 68, 68); stroke-opacity: 1; fill: rgb(70, 130, 180); fill-opacity: 1;"/><text class="node-label" data-notex="1" x="0" y="0" text-anchor="end" transform="translate(-3.25,7.921885142508904)" style="cursor: default; font-family: 'Open Sans', verdana, arial, sans-serif; font-size: 11px; fill: rgb(42, 63, 95); fill-opacity: 1; text-shadow: rgb(255, 255, 255) 1px 1px 1px, rgb(255, 255, 255) -1px -1px 1px, rgb(255, 255, 255) 1px -1px 1px, rgb(255, 255, 255) -1px 1px 1px; white-space: pre;">CASSIDY &amp; ASSOCIATES, INC.</text></g><g class="sankey-node" transform="translate(520.000,328.111)" style="opacity: 1;"><rect class="node-rect" width="20" height="7.830548350978688" style="stroke-width: 0.5; stroke: rgb(68, 68, 68); stroke-opacity: 1; fill: rgb(70, 130, 180); fill-opacity: 1;"/><text class="node-label" data-notex="1" x="0" y="0" text-anchor="end" transform="translate(-3.25,7.765274175489344)" style="cursor: default; font-family: 'Open Sans', verdana, arial, sans-serif; font-size: 11px; fill: rgb(42, 63, 95); fill-opacity: 1; text-shadow: rgb(255, 255, 255) 1px 1px 1px, rgb(255, 255, 255) -1px -1px 1px, rgb(255, 255, 255) 1px -1px 1px, rgb(255, 255, 255) -1px 1px 1px; white-space: pre;">DENNY MILLER ASSOCIATES</text></g></g></g><defs id="topdefs-8aefad"><g class="clips"/></defs><g class="layer-above"><g class="imagelayer"/><g class="shapelayer"/></g><g class="infolayer"><g class="g-gtitle"><text class="gtitle" x="35" y="50" text-anchor="start" dy="0em" style="opacity: 1; font-family: 'Open Sans', verdana, arial, sans-serif; font-size: 15px; fill: rgb(42, 63, 95); fill-opacity: 1; white-space: pre;">Top Lobbying Firm Income by Client</text></g><g class="first-render"/></g></svg>